{"glyphs":{"0":{"ha":807,"x_min":0,"x_max":776,"o":"m 320 975 l 370 975 q 726 864 638 975 q 776 450 776 793 l 776 220 q 624 54 776 156 q 357 0 509 0 q 54 79 133 0 q 4 420 4 100 q 0 562 4 463 q 132 938 0 874 q 320 975 203 975 m 345 495 l 345 463 q 386 220 345 220 q 398 210 388 210 l 414 210 q 435 448 427 235 q 398 787 425 787 l 394 787 q 345 495 345 787 z "},"1":{"ha":659,"x_min":0,"x_max":637,"o":"m 548 983 l 576 983 q 628 924 628 983 q 637 743 628 914 q 628 186 628 400 l 628 45 q 562 0 628 0 l 312 0 q 208 60 208 0 q 227 493 227 394 q 175 688 227 688 q 0 709 0 694 l 0 766 q 66 852 9 852 q 354 956 188 886 q 548 983 354 976 z "},"2":{"ha":688,"x_min":0,"x_max":669,"o":"m 344 983 q 642 854 537 983 q 669 736 669 798 l 669 699 q 424 272 669 518 q 348 184 348 193 l 348 182 q 371 175 351 175 q 585 184 553 184 l 596 184 q 650 140 650 184 l 650 107 q 604 7 650 7 q 435 0 500 0 q 12 20 12 5 l 4 35 q 46 245 4 200 q 248 509 90 322 q 351 746 351 654 q 332 779 346 779 l 325 779 q 287 642 304 779 q 271 629 275 629 l 7 629 q 0 634 0 629 l 0 667 q 264 979 0 926 q 344 983 307 983 z "},"3":{"ha":753,"x_min":0,"x_max":729,"o":"m 313 975 q 669 884 626 975 q 701 650 701 872 q 642 576 701 618 q 693 530 642 570 q 729 373 729 501 l 729 284 q 677 87 729 106 q 440 7 620 40 q 333 0 380 0 q 36 157 159 0 q 0 306 0 221 q 43 410 0 410 q 262 421 43 416 q 305 402 280 420 q 337 193 305 193 l 340 193 q 380 330 380 218 q 325 458 380 430 q 238 484 245 473 q 226 564 226 496 q 313 614 226 614 q 404 722 404 634 q 372 792 404 768 l 368 792 q 329 694 338 783 l 329 679 q 43 665 329 665 q 28 694 28 676 q 131 949 28 907 q 313 975 201 975 z "},"4":{"ha":811,"x_min":0,"x_max":785,"o":"m 269 973 q 372 970 294 973 q 677 973 613 973 q 729 780 729 973 q 718 422 725 561 q 753 358 718 358 q 785 317 785 358 l 785 291 q 741 170 785 170 q 685 126 685 170 l 689 113 q 693 33 689 81 q 577 7 693 7 q 460 0 540 0 l 433 0 q 389 62 389 0 q 353 152 389 152 q 313 155 332 155 q 56 149 96 149 l 52 149 q 0 219 0 149 l 0 317 q 92 541 0 386 l 277 953 q 269 973 269 962 m 309 401 q 325 389 316 390 l 340 389 q 380 456 380 389 l 380 549 q 369 569 380 568 q 309 401 357 569 z "},"5":{"ha":813,"x_min":0,"x_max":789,"o":"m 154 970 l 241 970 q 690 950 690 960 q 715 837 715 950 l 715 786 q 644 764 715 764 l 640 764 q 374 772 557 764 q 345 699 352 772 q 349 692 349 694 l 357 692 q 519 721 460 721 l 578 721 q 735 650 656 721 q 777 491 760 628 l 789 317 q 511 9 789 68 q 391 0 440 0 q 45 170 151 0 q 12 321 12 225 q 96 389 12 389 q 233 392 162 389 q 353 360 353 392 q 349 237 353 317 q 378 184 360 186 q 424 433 404 184 q 378 534 424 534 q 299 469 362 534 l 270 465 q 12 493 12 465 q 0 522 2 493 l 0 612 q 50 960 14 960 q 154 970 71 970 z "},"6":{"ha":753,"x_min":0,"x_max":737,"o":"m 395 977 q 707 759 627 977 q 711 725 711 744 l 711 708 q 632 686 711 686 q 418 679 494 684 q 365 766 372 679 q 346 786 353 786 l 331 786 q 304 686 304 751 l 304 623 q 316 604 304 606 l 323 604 q 500 652 409 652 q 722 488 688 652 q 737 328 733 399 q 560 49 737 119 q 342 0 460 0 q 37 123 123 0 q 0 466 0 155 q 75 859 0 808 q 395 977 174 977 m 350 400 q 387 184 364 184 l 395 184 q 399 191 395 187 q 402 420 402 336 l 402 429 q 384 473 399 473 l 376 473 q 350 400 357 473 z "},"7":{"ha":688,"x_min":0,"x_max":663,"o":"m 637 975 q 659 958 659 972 q 663 755 659 869 q 534 304 663 739 q 427 20 481 58 q 265 0 427 0 l 193 0 q 73 24 73 0 l 73 37 l 299 755 l 299 760 q 278 770 298 767 q 175 766 240 766 l 111 766 q 0 802 0 766 l 0 958 q 132 970 0 970 l 637 975 z "},"8":{"ha":770,"x_min":0,"x_max":743,"o":"m 334 972 l 357 972 q 663 892 533 972 q 727 759 727 836 q 640 548 727 642 l 640 541 q 743 325 743 487 l 743 296 q 584 26 743 83 q 377 0 492 0 l 366 0 q 24 119 81 0 q 0 242 0 183 l 0 279 q 92 531 0 429 l 92 538 q 0 686 0 599 l 0 713 q 163 945 0 852 q 334 972 238 972 m 357 703 q 381 613 361 613 q 401 759 401 631 q 385 785 396 785 q 357 703 357 774 m 326 371 l 326 179 q 338 160 326 161 l 345 160 q 370 218 370 170 l 370 349 q 345 422 370 422 q 326 371 329 422 z "},"9":{"ha":809,"x_min":0,"x_max":782,"o":"m 339 977 l 387 977 q 730 808 641 977 q 782 506 782 699 q 746 127 777 127 q 627 44 726 85 q 359 0 483 0 q 36 174 149 0 q 16 245 20 207 q 80 285 16 285 l 263 285 q 327 258 327 285 q 375 182 353 182 l 379 182 q 431 294 431 182 q 411 361 431 361 q 303 341 336 341 l 259 341 q 48 442 137 341 q 0 665 0 544 l 0 692 q 136 950 14 916 q 339 977 199 977 m 379 709 q 423 491 391 491 l 427 491 q 439 501 435 501 q 435 592 435 563 l 435 717 q 411 812 435 812 q 379 709 386 812 z "},"\u0000":{"ha":0,"x_min":0,"x_max":0,"o":""},"\u001d":{"ha":0,"x_min":0,"x_max":0,"o":""}," ":{"ha":345,"x_min":0,"x_max":0,"o":""}," ":{"ha":345,"x_min":0,"x_max":0,"o":""},"!":{"ha":456,"x_min":20,"x_max":446,"o":"m 335 973 q 441 947 441 973 q 446 895 446 905 q 393 444 446 856 q 353 269 393 269 q 317 264 326 264 q 100 290 100 264 q 20 947 52 561 q 153 971 20 971 q 335 973 281 973 m 406 240 q 437 100 437 220 q 339 3 437 3 q 269 0 319 0 l 140 0 q 60 28 60 0 q 52 174 52 82 l 52 190 q 162 231 52 231 q 406 240 239 231 z "},"\"":{"ha":612,"x_min":27,"x_max":573,"o":"m 486 1131 q 569 1069 569 1131 q 573 1025 569 1059 q 336 787 573 854 l 328 787 q 296 826 296 793 l 296 843 q 347 886 296 852 q 355 896 347 890 l 355 905 q 316 943 316 923 q 336 1117 316 1117 q 486 1131 427 1131 m 209 1124 l 233 1124 q 276 1078 276 1124 l 276 1035 q 86 797 276 882 q 71 795 79 795 l 66 795 q 39 848 49 795 l 39 859 q 71 896 39 871 l 71 903 q 31 929 32 920 q 39 1078 39 1034 q 27 1107 27 1100 l 27 1109 q 209 1124 27 1124 z "},"#":{"ha":1044,"x_min":27,"x_max":1025,"o":"m 490 958 q 515 944 508 954 l 515 939 l 465 762 q 545 738 465 738 q 678 762 678 738 q 749 952 698 949 l 779 958 q 858 955 824 955 l 879 955 q 912 941 901 955 l 912 930 q 870 727 912 915 q 891 711 874 715 l 899 713 l 908 713 q 966 716 931 713 q 996 703 992 711 l 996 697 q 941 589 996 589 q 841 548 841 589 l 820 456 q 858 437 820 437 l 920 437 q 1017 374 1017 437 q 1025 307 1025 345 l 1025 298 q 1008 288 1025 294 l 945 288 q 762 260 762 288 q 695 68 751 249 q 632 27 669 27 l 574 27 q 532 52 532 31 l 532 62 q 562 233 532 93 q 524 260 554 260 q 390 244 390 260 q 315 38 345 98 q 227 14 302 14 l 190 14 q 106 46 106 14 q 169 258 106 64 q 148 271 168 265 l 119 269 l 94 269 q 44 369 44 269 l 44 396 q 60 407 44 400 q 165 393 72 407 q 219 491 206 393 q 236 551 224 491 q 94 575 236 571 q 27 610 27 583 l 27 637 q 94 722 27 722 q 277 760 277 722 q 319 947 294 813 q 490 958 319 952 m 411 431 q 549 412 411 412 l 578 412 q 599 437 599 412 l 599 537 q 557 559 599 559 l 474 559 q 428 529 428 559 l 411 431 z "},"$":{"ha":858,"x_min":20,"x_max":843,"o":"m 475 1000 q 525 957 525 1000 q 566 917 525 917 q 756 819 667 917 q 806 687 806 760 q 748 640 806 640 q 458 642 559 642 l 458 640 q 591 571 458 623 q 843 323 843 493 l 843 277 q 574 47 843 119 q 549 -9 561 47 q 429 -20 532 -20 l 380 -20 q 330 35 330 -20 q 219 69 326 47 q 70 178 135 92 q 20 317 20 257 l 20 321 q 91 375 20 363 q 260 384 157 384 l 310 384 q 405 326 405 384 q 442 218 411 218 l 458 218 q 488 265 488 229 l 488 274 q 285 441 488 365 q 62 683 62 528 l 62 703 q 269 897 62 851 q 334 966 334 907 q 425 998 334 998 q 475 1000 425 1000 m 409 725 q 405 711 409 724 q 442 658 420 658 l 446 658 q 450 665 446 665 q 421 725 433 725 l 409 725 z "},"%":{"ha":1092,"x_min":27,"x_max":1067,"o":"m 329 972 q 515 864 476 972 q 519 817 519 832 l 519 732 q 515 682 519 713 l 524 673 q 631 823 544 673 q 730 945 678 945 l 781 945 q 813 939 811 945 l 813 926 q 623 462 813 890 q 627 452 627 458 l 631 452 q 710 500 696 500 q 829 529 806 529 l 873 529 q 1036 414 1001 529 q 1067 241 1067 314 l 1067 208 q 941 17 1067 61 q 813 0 885 0 q 646 53 688 0 q 607 211 607 113 l 607 347 q 611 407 607 368 l 603 407 q 479 191 588 407 q 361 7 406 7 q 325 3 335 3 l 313 3 q 241 31 241 5 l 241 33 q 361 330 241 66 l 424 467 l 424 471 l 412 471 q 261 433 336 433 l 254 433 q 39 587 78 433 q 27 701 27 635 l 27 749 q 190 958 27 930 q 329 972 268 972 m 281 795 q 261 699 269 774 q 286 587 269 606 l 297 587 q 305 670 305 618 l 305 735 q 297 795 305 768 l 281 795 m 793 363 q 798 316 798 332 l 798 282 q 821 170 798 170 q 837 199 834 170 q 809 374 833 374 l 806 374 q 793 363 802 374 z "},"&":{"ha":1091,"x_min":0,"x_max":1069,"o":"m 428 973 l 481 973 q 792 869 641 973 q 865 726 865 810 q 724 519 865 631 q 720 508 724 513 q 802 393 787 393 l 817 393 q 1016 474 981 474 l 1025 474 q 1069 319 1057 474 q 987 227 1069 268 l 972 208 q 1065 59 995 158 l 1065 47 q 734 14 1065 32 q 652 67 682 14 l 642 70 l 637 70 q 500 28 627 70 q 330 0 407 0 l 272 0 q 15 157 85 0 q 0 250 5 191 q 184 485 0 412 l 184 496 q 121 558 184 503 q 83 701 83 618 q 340 962 90 899 q 428 973 375 973 m 457 743 q 471 692 457 720 l 481 692 q 511 763 500 692 q 491 785 502 785 l 481 785 q 457 743 460 785 m 447 314 q 437 292 447 309 q 491 230 437 250 l 511 230 l 511 241 q 457 314 473 314 l 447 314 z "},"'":{"ha":322,"x_min":16,"x_max":293,"o":"m 205 1131 q 289 1069 289 1131 q 293 1025 289 1059 q 56 787 293 854 l 47 787 q 16 826 16 793 l 16 843 q 67 886 16 852 q 75 896 67 890 l 75 905 q 35 944 35 923 q 56 1117 35 1117 q 205 1131 147 1131 z "},"(":{"ha":513,"x_min":0,"x_max":486,"o":"m 392 1050 q 468 1013 468 1050 l 477 897 q 387 807 387 836 l 387 759 q 338 384 387 667 l 338 279 q 414 135 338 135 q 486 87 477 135 l 486 79 q 406 -43 486 -43 l 307 -43 q 26 56 94 -43 q 0 242 9 73 q 5 759 5 586 q 165 1016 5 966 q 392 1050 245 1050 z "},")":{"ha":514,"x_min":0,"x_max":497,"o":"m 183 1019 q 441 970 388 1019 q 497 785 497 927 q 431 45 497 79 q 108 -47 369 -47 l 98 -47 q 0 -7 0 -47 l 0 80 q 80 137 0 115 q 98 210 98 170 q 103 671 98 292 q 108 718 108 709 q 61 831 102 825 q 0 902 0 847 l 0 1002 q 183 1019 0 1014 z "},"*":{"ha":486,"x_min":25,"x_max":458,"o":"m 268 1112 l 294 1112 q 324 1093 324 1112 q 320 1050 324 1078 q 333 1036 326 1036 q 406 1050 388 1050 q 458 947 440 1050 q 380 901 457 930 l 380 895 q 411 849 411 852 l 411 833 q 315 787 349 787 l 311 787 q 233 836 282 787 l 224 836 q 159 789 173 789 q 142 787 152 787 l 134 787 q 68 822 68 793 l 68 833 q 107 901 107 892 q 38 941 107 918 q 25 968 25 961 q 68 1023 25 1000 l 77 1023 q 146 1012 141 1012 l 151 1012 q 163 1023 155 1012 l 159 1036 l 159 1080 q 268 1112 159 1112 z "},"+":{"ha":688,"x_min":14,"x_max":676,"o":"m 386 796 q 443 762 443 796 q 439 710 439 732 l 439 650 q 507 609 439 609 q 661 585 661 609 q 676 530 676 566 l 676 489 q 626 446 676 453 q 450 429 537 435 q 422 293 441 416 q 296 280 422 281 l 275 280 q 239 351 239 280 q 218 463 239 463 l 196 465 q 67 463 161 465 q 14 484 14 463 l 14 519 q 17 574 14 538 q 14 581 14 579 q 189 603 14 599 q 232 640 232 607 q 228 772 228 728 q 386 796 228 796 z "},",":{"ha":378,"x_min":66,"x_max":315,"o":"m 257 183 q 315 93 315 183 l 315 78 q 110 -115 315 -61 l 99 -115 q 66 -70 66 -115 l 66 -57 q 113 -18 66 -43 l 113 -14 q 70 9 70 -1 l 70 12 q 66 155 70 47 q 153 174 66 174 q 257 183 154 181 z "},"-":{"ha":474,"x_min":20,"x_max":452,"o":"m 141 646 l 401 646 q 448 586 448 646 q 452 550 452 581 l 452 511 q 394 471 452 471 l 386 471 q 36 459 218 471 q 20 479 20 468 l 20 634 q 141 646 20 645 z "},"­":{"ha":474,"x_min":20,"x_max":452,"o":"m 141 646 l 401 646 q 448 586 448 646 q 452 550 452 581 l 452 511 q 394 471 452 471 l 386 471 q 36 459 218 471 q 20 479 20 468 l 20 634 q 141 646 20 645 z "},".":{"ha":398,"x_min":60,"x_max":340,"o":"m 267 193 q 330 127 330 193 q 340 20 340 50 q 245 -5 340 -5 q 99 -12 129 -12 q 60 31 60 -12 q 88 184 60 184 q 267 193 88 193 z "},"/":{"ha":573,"x_min":0,"x_max":556,"o":"m 406 977 l 472 977 q 556 965 556 977 q 338 219 514 844 q 234 3 280 3 q 218 0 220 0 q 0 26 0 0 l 0 44 q 111 374 0 58 q 276 848 161 554 q 357 975 305 975 q 406 977 382 977 z "},":":{"ha":355,"x_min":20,"x_max":329,"o":"m 197 606 l 233 606 q 305 570 305 606 l 305 436 q 237 387 305 387 l 209 387 q 20 424 20 387 q 44 594 30 594 q 197 606 81 606 m 180 229 l 184 229 q 321 186 321 229 q 329 85 329 155 l 329 38 q 253 2 329 2 q 140 0 223 0 l 136 0 q 44 45 44 0 q 73 219 44 219 q 180 229 106 229 z "},";":{"ha":378,"x_min":21,"x_max":357,"o":"m 130 551 l 139 551 q 347 534 347 551 q 357 507 357 525 l 357 447 q 304 358 357 358 q 272 354 304 354 q 31 383 31 354 q 54 547 31 547 q 130 551 75 551 m 267 192 q 342 149 342 192 l 342 85 q 54 -90 342 -63 q 26 -77 26 -87 q 78 3 26 -25 q 26 26 78 9 l 21 39 q 35 178 21 45 q 267 192 62 192 z "},";":{"ha":378,"x_min":21,"x_max":357,"o":"m 130 551 l 139 551 q 347 534 347 551 q 357 507 357 525 l 357 447 q 304 358 357 358 q 272 354 304 354 q 31 383 31 354 q 54 547 31 547 q 130 551 75 551 m 267 192 q 342 149 342 192 l 342 85 q 54 -90 342 -63 q 26 -77 26 -87 q 78 3 26 -25 q 26 26 78 9 l 21 39 q 35 178 21 45 q 267 192 62 192 z "},"<":{"ha":723,"x_min":27,"x_max":696,"o":"m 678 749 q 696 690 696 749 l 696 629 q 616 578 696 597 q 344 465 429 509 q 340 455 340 460 l 340 453 q 473 414 350 444 q 650 326 650 370 q 654 307 650 323 q 626 177 654 177 l 623 177 q 73 371 425 214 q 27 503 27 389 l 27 519 q 149 565 27 538 q 647 745 343 628 q 678 749 669 749 z "},"=":{"ha":688,"x_min":14,"x_max":673,"o":"m 448 677 l 546 677 q 670 631 670 677 q 673 589 673 603 q 591 496 673 496 q 500 494 548 494 l 441 494 q 63 508 63 494 q 46 545 46 522 l 46 564 q 50 649 46 591 q 448 677 50 669 m 174 450 l 598 450 q 621 434 621 450 l 621 343 q 585 304 621 304 q 262 290 554 294 q 24 306 24 290 q 14 357 14 316 q 33 441 14 441 q 174 450 61 450 z "},">":{"ha":737,"x_min":20,"x_max":701,"o":"m 79 761 q 341 674 134 761 q 648 583 394 655 q 701 519 701 566 l 701 467 q 578 404 701 432 q 69 224 125 224 q 34 315 41 224 q 20 380 20 349 q 138 440 20 418 q 358 499 349 493 q 362 501 362 499 l 362 504 q 121 583 360 509 q 52 659 52 610 q 55 754 52 693 q 79 761 68 761 z "},"?":{"ha":807,"x_min":27,"x_max":785,"o":"m 402 975 l 463 975 q 725 840 612 975 q 785 580 785 687 q 616 281 785 338 q 523 262 568 262 l 491 262 q 362 303 450 262 l 358 303 q 346 286 346 294 l 346 264 q 309 238 346 238 q 71 260 71 252 q 39 473 39 426 l 39 500 q 132 524 39 524 q 297 531 263 531 l 313 531 q 354 495 345 531 q 374 483 354 483 q 398 728 385 483 l 398 732 q 386 760 398 760 l 382 760 l 358 657 q 249 628 358 628 l 224 628 q 27 655 27 628 l 27 720 q 245 954 27 880 q 402 975 315 975 m 116 214 l 265 214 q 374 203 374 214 q 386 95 382 162 q 330 7 386 7 q 136 0 306 7 l 79 0 q 27 43 27 0 l 27 66 q 60 209 27 209 q 116 214 90 214 z "},"@":{"ha":1311,"x_min":14,"x_max":1292,"o":"m 688 983 l 715 983 q 1283 627 1153 983 q 1292 562 1292 586 q 961 199 1292 286 q 863 184 912 184 q 729 232 792 184 q 720 235 720 232 q 653 203 709 235 q 510 177 587 177 q 241 349 311 177 q 228 435 233 387 q 460 780 228 635 q 581 806 529 806 q 755 761 663 806 l 764 761 q 823 789 798 789 l 859 789 q 966 778 890 789 q 805 852 966 807 q 671 864 711 864 q 179 543 327 864 q 157 433 161 487 q 452 113 157 239 q 604 91 541 91 q 1033 168 837 91 q 1109 191 1081 191 l 1154 191 q 1230 165 1230 184 q 948 28 1162 83 q 675 0 835 0 q 179 172 364 0 q 14 512 14 305 q 269 892 14 759 q 688 983 465 983 m 979 763 q 926 462 969 763 q 907 337 926 450 l 916 328 q 1064 536 972 328 q 1073 595 1073 590 q 988 761 1073 690 l 979 763 m 438 390 l 438 376 q 532 296 448 296 q 644 431 625 296 q 675 574 675 509 q 612 639 675 639 q 474 512 541 639 q 438 390 438 444 z "},"A":{"ha":1044,"x_min":0,"x_max":1029,"o":"m 224 972 q 365 967 282 967 q 709 969 488 967 q 834 911 834 969 q 959 449 884 671 q 1029 37 1029 125 q 974 3 1029 3 q 604 5 871 3 q 574 68 574 5 l 574 149 q 524 176 574 176 q 475 107 475 176 q 435 5 475 5 q 404 3 408 3 q 150 0 199 0 q 0 29 0 0 l 0 46 q 184 867 0 75 q 224 972 194 972 m 459 395 q 530 376 459 385 q 554 388 543 376 q 530 584 530 492 l 524 596 l 519 596 q 459 395 499 596 z "},"B":{"ha":901,"x_min":0,"x_max":877,"o":"m 171 973 l 432 961 l 454 961 q 656 970 486 961 q 841 813 841 970 q 832 591 832 624 q 769 530 832 571 q 836 493 769 526 q 877 399 877 453 l 877 347 q 814 24 858 24 q 562 5 814 5 q 274 0 319 0 q 41 7 81 7 l 18 7 q 5 22 5 10 q 0 180 5 96 q 14 436 14 404 q 5 614 14 498 q 41 963 9 963 q 171 973 60 973 m 422 749 l 422 709 q 441 643 422 643 l 450 643 q 463 702 463 674 l 463 749 q 450 768 463 767 l 436 768 q 422 749 422 767 m 418 362 l 418 303 q 441 224 418 224 q 477 308 468 229 q 436 377 477 357 q 418 362 418 374 z "},"C":{"ha":916,"x_min":0,"x_max":887,"o":"m 466 973 q 774 922 720 973 q 878 717 878 840 q 873 585 873 649 l 873 557 q 846 538 873 543 q 530 534 600 536 q 511 541 511 537 l 511 545 q 457 766 511 729 l 452 766 q 430 726 436 766 q 435 618 435 661 q 425 275 435 507 q 439 200 430 208 l 466 200 q 493 412 478 222 q 584 435 518 435 q 674 437 625 437 q 887 378 887 437 l 887 329 q 783 73 887 174 q 412 0 678 0 q 41 148 119 0 q 32 218 32 184 l 32 244 q 0 555 32 313 l 0 602 q 122 903 0 804 q 466 973 244 973 z "},"D":{"ha":1004,"x_min":0,"x_max":982,"o":"m 491 977 l 541 977 q 928 880 734 977 q 977 731 977 859 q 982 610 982 691 q 967 327 982 496 q 972 261 972 298 l 972 196 q 789 20 972 58 q 665 5 726 5 l 640 5 q 407 13 611 5 l 357 13 q 50 0 281 13 q 10 20 24 0 q 5 221 5 148 l 5 465 q 0 716 5 563 q 15 932 15 842 l 15 962 l 30 972 l 99 970 q 491 977 456 977 m 456 771 q 431 281 441 771 q 446 193 431 216 l 466 193 q 506 361 506 196 l 506 399 q 496 573 506 469 q 501 721 501 678 q 466 771 501 760 l 456 771 z "},"E":{"ha":795,"x_min":0,"x_max":774,"o":"m 681 972 q 732 909 732 972 l 732 813 q 702 743 732 743 l 696 743 q 536 746 561 746 q 495 714 495 746 l 495 695 q 490 645 495 676 q 511 633 490 642 q 598 635 571 635 l 645 635 q 707 599 707 635 q 722 435 722 468 l 722 418 q 686 401 722 401 q 536 406 561 406 q 490 347 490 406 q 475 255 475 281 l 490 250 l 707 250 q 768 197 768 250 l 768 178 q 774 79 768 132 q 691 9 774 9 q 248 0 560 0 q 5 31 5 0 q 0 50 0 41 l 0 387 q 20 953 0 460 q 155 972 47 972 l 681 972 z "},"F":{"ha":732,"x_min":0,"x_max":715,"o":"m 48 983 q 715 968 715 978 l 715 966 q 706 777 715 899 q 576 759 682 759 q 452 743 452 759 l 452 649 q 509 621 452 621 q 648 623 614 623 q 672 541 672 623 l 672 534 q 667 409 672 488 q 600 393 667 393 l 485 393 q 437 368 437 393 l 437 347 q 432 299 437 313 q 456 28 437 178 q 317 5 456 5 l 67 0 q 19 20 19 5 q 24 49 19 35 q 0 945 14 696 l 0 960 q 48 983 0 981 z "},"G":{"ha":984,"x_min":0,"x_max":955,"o":"m 463 972 l 523 972 q 915 817 801 972 q 955 604 955 680 q 834 585 955 585 q 517 601 517 585 l 517 634 q 482 760 514 760 l 477 760 q 442 638 442 760 l 442 554 q 463 535 442 536 q 503 540 481 540 l 799 540 q 930 507 930 540 q 955 151 955 201 q 899 26 955 26 q 648 21 871 24 q 603 52 627 21 l 588 52 q 392 0 484 0 l 347 0 q 75 73 211 0 q 0 228 0 124 l 0 233 q 10 498 0 318 q 0 697 10 524 q 311 958 0 895 q 463 972 391 972 m 457 387 l 448 378 q 452 270 452 313 l 452 220 q 473 190 456 190 l 482 190 q 533 277 524 190 l 533 357 q 482 382 533 376 l 457 387 z "},"H":{"ha":1002,"x_min":0,"x_max":977,"o":"m 71 972 l 203 972 q 463 960 463 972 q 473 932 468 956 q 458 668 458 726 l 453 668 q 498 622 459 622 q 545 651 545 626 q 539 879 539 826 q 534 923 539 889 q 539 957 539 930 l 559 964 l 865 964 q 977 940 977 964 q 966 73 977 807 q 921 7 966 7 q 671 5 709 5 q 539 35 539 5 q 534 66 534 46 l 534 130 q 549 367 534 262 q 509 394 549 393 l 498 394 q 473 250 473 394 q 433 7 446 23 l 407 0 q 16 32 16 0 q 0 257 5 138 q 31 952 16 718 q 71 972 35 972 z "},"I":{"ha":470,"x_min":0,"x_max":439,"o":"m 104 972 l 118 972 q 307 969 219 972 q 410 972 337 972 q 439 897 435 972 q 434 639 439 769 q 439 519 434 626 q 434 360 434 387 q 439 154 439 197 q 410 5 439 5 l 391 5 q 61 0 81 0 q 9 22 9 6 q 0 584 5 503 q 19 962 5 643 q 104 972 33 972 z "},"J":{"ha":556,"x_min":0,"x_max":541,"o":"m 488 968 q 528 916 528 968 q 541 652 541 769 q 536 296 541 499 q 541 152 541 233 q 391 18 541 55 q 22 0 285 0 l 9 12 q 0 184 9 26 q 75 197 0 197 q 136 252 136 197 q 140 269 136 269 q 136 296 136 291 q 140 943 136 408 q 233 965 140 965 q 325 963 290 963 q 488 968 359 963 z "},"K":{"ha":910,"x_min":0,"x_max":887,"o":"m 113 973 l 385 961 q 403 941 403 951 l 403 871 q 398 787 403 838 q 403 778 403 783 l 408 778 q 475 912 424 786 q 552 968 511 968 q 865 944 833 968 l 865 937 q 751 704 865 922 q 706 574 706 590 q 810 291 772 458 q 887 29 810 235 l 887 20 q 838 0 887 3 q 611 7 695 7 l 570 7 q 511 56 524 7 q 430 201 444 201 q 416 181 416 199 l 416 144 q 421 41 416 98 q 394 3 415 3 q 86 0 269 3 q 5 34 5 0 l 5 313 q 0 611 5 438 l 18 895 q 14 929 14 916 q 90 970 14 970 q 113 973 98 973 z "},"L":{"ha":739,"x_min":0,"x_max":722,"o":"m 439 970 q 481 888 481 970 q 486 757 486 782 q 444 250 486 642 q 476 228 444 233 q 565 230 537 230 l 606 230 q 716 208 716 230 q 722 74 722 122 l 722 39 q 690 5 722 5 q 450 7 668 5 q 52 0 384 7 q 5 18 20 0 q 10 205 10 144 q 0 522 0 469 l 0 549 q 21 903 0 671 q 16 945 21 916 q 298 967 16 967 q 439 970 395 970 z "},"M":{"ha":1179,"x_min":0,"x_max":1152,"o":"m 54 972 q 358 969 127 972 q 467 972 440 972 q 567 763 520 972 l 576 760 l 585 760 q 626 955 594 787 q 743 972 626 970 l 1029 960 q 1120 962 1070 962 q 1138 916 1138 953 q 1133 777 1133 800 l 1152 542 q 1147 66 1147 166 q 1152 39 1152 44 q 1020 24 1152 24 q 829 22 864 22 q 798 218 798 22 l 798 335 q 802 422 798 368 q 793 457 797 426 l 785 457 q 712 61 766 392 q 662 5 705 5 q 621 3 645 3 l 494 3 q 449 129 463 3 q 358 430 380 430 l 349 420 q 353 95 353 191 q 349 9 353 73 q 317 0 329 0 q 27 24 27 18 l 22 29 l 22 34 q 32 352 22 113 q 0 860 32 474 q 41 969 0 969 q 54 972 50 972 z "},"N":{"ha":968,"x_min":0,"x_max":943,"o":"m 81 975 l 92 975 q 391 960 391 975 q 512 758 430 912 l 517 758 q 532 777 532 759 l 532 795 q 558 968 532 968 q 589 972 578 972 q 776 968 745 968 q 913 972 789 968 q 933 951 928 964 q 928 827 928 851 q 939 532 928 698 q 933 267 933 379 q 943 18 933 192 q 892 7 922 7 q 568 0 839 7 q 456 168 483 0 q 395 309 412 309 q 380 282 380 309 l 380 230 q 391 18 380 81 q 365 5 391 11 q 41 7 155 7 l 35 7 q 20 22 20 10 q 0 468 0 229 l 0 470 q 31 960 0 593 q 81 975 31 973 z "},"O":{"ha":1050,"x_min":0,"x_max":1029,"o":"m 517 993 l 574 993 q 977 871 841 993 q 1029 547 998 871 l 1029 488 q 920 126 1029 177 q 621 14 811 49 q 460 0 496 0 q 93 136 244 0 q 0 495 0 223 q 98 867 0 712 q 362 979 178 946 q 517 993 433 993 m 481 777 q 460 722 460 752 l 460 559 q 496 202 479 202 q 522 191 517 191 l 538 191 q 553 197 542 191 q 528 412 532 314 l 548 654 l 548 684 q 501 777 548 755 l 481 777 z "},"P":{"ha":791,"x_min":0,"x_max":770,"o":"m 245 972 q 659 911 592 972 q 770 678 770 842 l 770 654 q 703 420 770 445 q 561 372 680 394 q 422 355 422 362 q 418 345 422 353 q 427 221 422 246 l 418 20 q 374 0 406 0 q 18 5 43 5 q 5 22 5 14 q 9 58 5 52 q 5 131 5 107 q 9 318 5 272 q 0 945 5 495 q 218 972 0 972 l 245 972 m 418 746 l 414 734 l 414 600 l 418 588 l 431 588 q 467 663 467 606 l 467 678 q 431 746 467 728 l 418 746 z "},"Q":{"ha":1095,"x_min":-2,"x_max":1068,"o":"m 633 985 q 969 878 782 985 q 1063 638 1063 835 q 1068 528 1063 609 q 1019 136 1054 136 q 848 45 983 85 q 804 33 828 45 l 804 20 q 1019 5 831 10 q 1063 -35 1063 -3 l 1063 -98 q 953 -153 1063 -153 q 831 -156 889 -156 l 715 -156 q 494 -123 526 -156 q 439 -23 471 -123 q 313 -10 439 -12 q 86 71 155 14 q 9 382 37 91 q -2 485 -2 427 q 70 832 24 832 q 633 985 220 985 m 528 734 q 506 636 511 713 q 517 264 517 430 l 517 224 q 544 178 517 184 q 555 193 555 186 l 555 249 q 550 382 555 357 q 555 538 555 450 l 555 711 q 544 734 555 718 l 528 734 z "},"R":{"ha":888,"x_min":0,"x_max":863,"o":"m 306 973 q 777 868 672 973 q 854 667 854 783 q 735 505 854 523 q 717 495 728 505 q 763 473 718 490 q 863 111 863 443 q 859 35 859 46 q 772 3 836 3 q 612 0 653 0 q 484 20 484 0 q 475 76 479 30 q 479 307 479 254 q 443 404 479 398 q 416 372 423 404 q 420 29 420 112 q 389 7 420 16 q 96 9 199 9 l 64 9 q 0 41 0 13 q 27 696 17 197 q 23 919 23 769 l 23 951 q 137 973 23 973 l 306 973 m 429 728 l 425 711 l 425 633 l 429 620 l 443 620 q 461 677 461 650 q 443 728 461 701 l 429 728 z "},"S":{"ha":791,"x_min":0,"x_max":768,"o":"m 404 991 q 676 906 578 991 q 712 671 712 906 q 652 661 712 661 l 556 661 q 385 688 385 661 l 368 758 l 360 758 q 348 739 348 756 l 348 729 q 500 600 348 667 q 724 431 706 486 q 768 248 768 353 q 480 1 768 85 q 340 -14 410 -14 q 56 91 126 -14 q 0 321 0 191 q 60 368 0 368 l 116 368 q 348 351 348 368 l 348 348 q 340 290 348 345 q 380 205 352 212 l 396 205 q 428 263 428 223 q 156 491 428 357 q 12 724 12 578 l 12 770 q 404 991 12 991 z "},"T":{"ha":916,"x_min":0,"x_max":892,"o":"m 788 979 q 888 945 888 979 q 892 924 888 937 q 888 853 888 884 q 892 778 888 830 q 694 758 892 758 q 654 741 654 752 q 659 697 654 726 l 644 469 q 680 51 680 79 l 680 46 q 570 5 680 5 q 347 0 383 0 q 198 39 198 0 q 189 138 189 104 q 208 720 189 299 q 79 739 208 739 q 5 753 20 739 q 10 819 10 798 l 10 863 q 0 945 10 895 q 154 972 0 972 q 788 979 352 977 z "},"U":{"ha":982,"x_min":0,"x_max":964,"o":"m 831 973 l 847 973 q 939 916 939 973 q 964 667 964 764 q 924 184 964 184 q 709 26 844 61 q 485 0 630 0 q 77 117 176 0 q 0 340 0 208 l 41 951 q 61 956 54 956 q 347 966 309 966 q 439 901 439 966 q 444 853 444 875 q 434 273 434 448 q 465 206 434 206 q 505 547 505 206 q 500 748 505 622 q 520 949 520 926 q 546 964 528 959 l 562 964 l 831 973 z "},"V":{"ha":987,"x_min":0,"x_max":972,"o":"m 287 983 q 408 964 408 983 q 477 495 455 554 l 486 495 q 551 909 500 537 q 597 964 562 964 q 741 959 710 959 q 945 961 924 961 q 972 949 964 958 q 829 165 903 430 q 755 17 786 17 q 667 0 738 0 q 180 30 180 18 q 88 530 155 30 q 0 961 0 920 q 203 983 0 983 l 287 983 z "},"W":{"ha":1377,"x_min":0,"x_max":1358,"o":"m 35 979 l 103 979 q 357 975 331 975 l 361 975 q 408 796 389 975 l 408 769 q 404 616 408 718 l 399 611 q 408 581 404 608 l 417 581 q 473 944 434 646 q 541 975 473 972 q 825 979 600 975 q 872 882 862 979 q 924 646 911 646 l 928 646 q 975 919 941 661 q 1048 957 975 957 q 1143 959 1067 959 l 1177 959 q 1358 932 1358 959 l 1358 929 q 1199 170 1358 814 l 1173 18 q 1147 7 1160 7 q 1010 12 1044 12 q 773 10 973 12 q 696 191 722 71 q 679 220 690 220 q 585 28 662 210 q 417 3 585 3 q 258 0 328 0 q 163 73 163 0 l 52 624 q 0 954 52 685 l 0 967 q 35 979 11 979 z "},"X":{"ha":916,"x_min":0,"x_max":903,"o":"m 342 981 q 424 821 389 981 q 442 781 427 821 l 460 781 q 538 969 500 969 l 579 969 q 825 971 667 969 q 866 949 866 966 l 866 944 q 730 556 866 879 q 871 104 825 228 q 903 20 903 52 q 825 0 890 0 l 784 0 q 534 27 534 0 q 469 222 484 197 l 465 222 q 419 52 450 222 q 337 7 401 7 q 205 5 305 7 q 0 30 0 5 l 0 39 q 141 534 0 125 l 141 541 l 23 951 q 196 974 23 974 q 342 981 281 981 z "},"Y":{"ha":836,"x_min":0,"x_max":821,"o":"m 511 973 q 808 968 677 968 l 821 958 l 821 948 q 716 673 821 937 l 578 349 q 574 304 574 332 l 574 89 q 578 30 574 64 q 452 0 578 0 l 306 0 q 243 22 243 0 l 239 22 l 243 47 q 239 161 243 92 q 243 332 243 264 q 159 520 243 345 q 0 931 92 659 l 0 936 q 38 954 5 954 l 71 954 q 322 936 322 954 q 389 723 339 900 l 397 723 q 448 882 411 723 q 511 973 471 973 z "},"Z":{"ha":783,"x_min":0,"x_max":760,"o":"m 263 975 q 531 970 369 970 q 711 972 555 970 q 751 885 751 972 q 682 588 751 687 l 492 241 l 492 236 q 512 231 512 234 l 536 234 l 566 234 q 736 203 736 234 q 760 28 736 197 q 731 10 760 16 q 492 15 589 15 l 87 0 l 83 0 q 0 30 0 0 l 0 171 q 117 417 0 257 q 278 732 171 503 q 112 749 278 749 q 49 777 49 758 l 49 887 q 44 962 49 912 q 263 975 44 970 z "},"[":{"ha":1280,"x_min":61,"x_max":1226,"o":"m 771 1139 q 891 1124 810 1142 q 987 968 979 1051 l 989 947 q 987 913 991 925 q 964 831 962 846 q 970 816 964 823 q 964 800 970 810 q 949 767 964 786 q 943 707 947 720 q 885 519 884 580 l 885 517 l 886 517 q 1019 427 1007 426 q 1101 358 1033 429 q 1166 204 1161 255 l 1166 203 q 1044 135 1131 170 q 890 92 985 109 q 782 70 792 71 q 705 71 772 69 q 664 64 668 64 l 654 63 q 639 66 647 62 q 617 58 624 58 q 549 67 610 57 q 507 57 534 60 q 459 56 488 56 q 357 92 419 57 q 300 105 301 94 l 289 102 q 194 128 250 99 q 102 201 104 174 l 100 212 q 118 245 100 220 q 138 346 136 257 q 155 405 135 380 q 178 459 167 448 q 268 538 241 510 q 391 599 391 585 q 450 625 401 621 q 491 662 484 628 q 535 711 535 707 q 563 768 558 764 q 547 800 549 781 l 547 803 l 551 847 l 550 852 q 541 887 550 857 q 575 934 545 931 l 583 935 q 599 932 591 936 q 610 997 597 951 q 762 1138 654 1128 l 771 1139 m 950 980 q 939 1027 949 998 q 795 1118 899 1127 q 666 1059 725 1111 q 616 944 629 1017 q 612 872 622 878 q 593 884 606 871 l 589 884 q 574 876 585 884 q 566 883 570 876 q 591 903 565 898 l 594 901 l 594 903 q 578 909 590 910 q 559 890 557 907 q 567 854 567 856 l 568 847 q 570 810 569 832 q 577 795 574 795 l 579 795 q 627 869 608 844 l 629 869 q 637 855 633 869 l 637 854 q 632 830 638 848 q 619 745 619 820 l 620 744 q 640 730 639 738 q 640 705 640 714 l 641 698 l 656 686 q 682 673 682 684 l 684 658 q 681 637 685 645 l 683 637 q 738 702 701 648 q 743 698 743 700 l 743 694 q 741 682 743 693 l 755 683 l 755 684 q 747 701 751 688 q 768 736 745 725 q 789 722 781 737 q 770 711 790 714 l 770 709 q 787 699 771 697 q 816 675 808 701 q 831 677 822 675 q 840 726 845 679 l 837 767 q 861 810 838 808 q 906 827 899 826 l 916 828 q 952 958 959 884 l 950 980 m 755 1097 q 768 1088 764 1097 q 758 1076 769 1078 q 745 1088 745 1075 l 744 1089 q 750 1096 747 1096 l 755 1097 m 725 1092 q 732 1082 732 1090 l 732 1080 q 721 1072 729 1072 l 720 1072 q 711 1083 711 1074 l 710 1084 q 716 1091 713 1091 l 725 1092 m 693 1070 q 700 1060 699 1068 q 688 1043 699 1044 l 684 1043 q 679 1048 682 1042 q 691 1070 677 1069 l 693 1070 m 731 1061 q 739 1051 738 1059 q 728 1041 735 1044 q 718 1049 723 1040 q 730 1061 718 1059 l 731 1061 m 663 1042 q 674 1033 673 1044 q 661 1022 669 1023 q 653 1026 653 1023 l 653 1027 q 663 1042 652 1037 m 706 1045 q 715 1035 714 1041 q 705 1023 716 1024 l 702 1023 q 696 1031 697 1023 l 696 1039 q 705 1045 695 1043 l 706 1045 m 672 1021 q 687 1013 681 1022 l 688 1008 q 673 1001 688 1004 q 667 1012 669 1001 q 672 1021 667 1018 m 734 1023 q 742 1015 738 1022 q 728 997 743 1003 q 718 1002 718 999 l 717 1011 q 734 1023 722 1021 m 657 1001 q 662 997 662 999 l 663 991 q 650 980 658 981 q 642 987 646 981 q 648 1000 643 1000 l 657 1001 m 681 992 q 693 986 690 994 q 681 975 694 979 l 675 979 q 680 992 675 992 l 681 992 m 642 975 q 649 966 648 972 q 637 951 650 954 l 635 951 q 628 956 629 954 l 627 964 q 641 975 632 974 l 642 975 m 701 976 q 712 962 711 971 l 713 956 q 701 947 709 948 q 692 962 693 950 q 699 975 691 970 l 701 976 m 662 964 q 674 953 671 965 q 664 943 674 950 l 659 942 q 654 946 654 944 l 653 956 q 662 964 656 962 m 640 937 q 650 927 648 938 l 650 921 q 639 907 652 908 l 636 907 q 629 914 633 907 q 640 937 627 931 m 722 926 l 731 926 q 798 892 796 918 l 799 890 q 796 887 799 888 l 785 886 q 730 907 742 909 l 728 907 q 701 896 705 896 q 694 903 698 896 q 722 926 700 924 m 869 908 q 878 898 874 907 q 874 885 878 897 q 892 868 891 876 l 892 865 q 888 860 890 860 l 886 859 q 865 865 882 859 l 864 865 q 842 823 856 824 q 833 827 835 822 l 832 833 q 844 873 831 838 q 824 885 825 879 q 829 894 824 890 l 833 894 q 852 891 838 895 q 867 908 857 907 l 869 908 m 720 895 q 799 854 762 898 q 797 842 800 848 q 818 803 816 827 q 794 757 817 759 q 787 761 787 756 l 787 763 q 793 783 793 781 l 793 785 q 741 760 770 763 l 732 760 q 711 760 722 758 q 680 797 683 769 l 680 798 q 693 810 683 805 q 703 794 701 811 q 735 780 709 777 l 743 781 q 758 787 749 781 l 758 788 q 696 844 699 812 l 696 846 q 722 854 710 852 l 761 857 l 761 859 q 753 861 753 858 q 688 866 689 857 q 718 894 686 884 l 720 895 m 591 865 l 596 863 q 580 820 592 821 q 573 823 577 820 q 589 865 570 857 l 591 865 m 743 840 l 727 837 l 727 836 q 741 819 728 819 l 741 826 q 744 837 740 831 l 743 840 m 782 820 q 771 835 776 836 l 770 835 l 770 829 q 759 810 770 821 q 779 814 779 814 q 782 820 781 814 m 661 790 q 666 781 665 791 l 668 766 q 706 726 704 749 l 706 722 q 703 702 707 710 q 696 703 699 701 q 683 724 690 702 q 648 766 648 758 l 647 770 q 658 790 646 780 l 661 790 m 894 790 l 879 789 l 879 785 l 888 777 q 895 788 891 778 l 894 790 m 920 781 q 917 778 917 781 l 918 770 q 927 774 924 774 l 920 781 m 925 746 q 880 759 899 743 l 877 758 q 904 734 877 754 l 905 730 q 899 723 901 723 l 894 722 q 869 732 873 733 q 864 710 865 732 q 844 666 868 669 l 844 665 q 869 615 869 625 q 925 746 925 702 m 549 690 q 498 620 519 650 q 530 603 516 602 q 550 688 545 675 l 549 690 m 624 679 q 618 686 623 686 l 611 686 q 607 675 606 684 l 608 668 q 612 663 608 667 q 624 679 623 665 m 654 641 q 646 656 651 656 l 645 656 q 637 637 640 655 q 649 633 640 631 l 650 633 q 654 641 653 633 m 772 650 q 760 660 771 661 q 751 648 749 659 q 767 640 751 640 q 772 650 773 644 m 522 575 q 457 606 498 609 q 422 589 422 596 q 425 583 422 586 q 468 524 465 551 l 469 513 q 463 498 467 498 l 456 502 q 406 553 424 545 q 308 526 349 549 l 308 524 q 357 436 353 477 q 351 401 359 416 q 338 414 348 401 q 313 476 319 467 q 269 503 311 493 q 267 490 269 500 q 213 437 259 475 q 280 319 218 378 l 281 310 q 276 297 281 304 q 245 324 262 298 q 186 424 189 387 q 180 368 175 422 l 174 286 q 180 251 174 285 l 180 245 q 176 229 181 235 q 160 248 164 227 l 159 258 q 130 202 128 217 q 168 163 131 191 q 289 123 253 120 l 294 123 q 281 151 293 127 q 203 281 206 252 q 216 304 201 303 q 226 293 221 302 q 254 247 247 269 q 330 113 326 138 q 375 106 349 115 q 484 77 435 73 l 519 80 l 528 83 l 527 84 l 526 87 q 496 114 500 104 q 455 204 492 153 q 417 277 431 264 q 390 300 391 291 l 397 310 q 411 308 409 308 q 464 264 442 297 q 558 102 493 205 q 608 92 562 99 q 609 96 608 93 q 563 305 608 115 q 575 344 561 328 q 589 336 583 345 q 637 99 621 150 q 671 83 639 80 q 704 104 696 85 l 703 122 q 701 266 703 252 l 701 269 l 690 311 q 691 325 689 319 l 693 325 q 730 242 724 309 l 732 104 l 732 100 q 777 96 733 94 l 786 97 q 794 111 791 100 q 819 212 806 210 l 825 212 q 837 194 836 208 q 827 104 838 173 l 828 102 q 950 137 951 122 q 959 189 955 138 q 977 295 962 294 l 984 296 q 989 290 986 296 l 988 280 q 996 215 994 231 q 996 178 998 199 l 998 178 q 1031 217 1029 216 q 1044 202 1043 211 l 1044 198 q 1015 156 1046 184 l 1026 157 q 1131 205 1057 160 q 1127 215 1128 212 q 1072 264 1126 226 l 1071 266 q 1080 271 1071 270 l 1083 272 q 1109 260 1090 273 q 1101 291 1109 265 q 976 428 1065 375 l 975 428 l 981 378 q 979 336 983 355 l 975 336 q 954 380 966 334 q 875 488 951 414 q 871 476 873 476 q 863 404 869 404 q 850 408 859 403 l 826 444 q 804 359 817 360 l 802 359 q 783 399 790 357 l 779 394 q 763 345 769 352 l 762 345 q 745 381 753 348 l 743 381 q 730 336 738 337 l 728 336 l 721 342 q 701 412 708 412 l 699 412 q 686 346 692 353 l 678 350 q 640 401 647 395 l 639 401 q 633 382 638 382 l 631 382 q 623 391 629 382 l 604 453 l 600 450 q 561 366 571 378 q 551 379 556 366 q 552 390 551 384 q 560 441 561 433 l 559 444 l 558 444 q 545 430 549 431 q 536 439 537 433 q 536 458 536 441 l 536 459 l 535 459 l 532 457 q 503 425 513 426 q 498 429 498 427 l 498 435 q 503 450 497 442 q 522 575 511 549 m 585 609 l 579 609 q 567 584 566 599 l 568 578 l 571 578 q 589 600 585 580 q 585 609 585 607 m 784 612 q 739 619 777 612 l 733 618 l 733 616 q 739 612 736 612 q 760 605 747 604 q 817 591 806 591 l 826 593 l 825 595 q 791 613 799 605 l 784 612 m 694 571 q 686 581 693 579 l 684 581 q 672 567 671 580 l 672 564 q 682 557 675 559 q 694 571 694 566 m 768 547 q 762 555 767 554 l 756 555 q 748 540 747 548 l 752 531 l 753 531 q 768 545 769 532 l 768 547 m 820 545 q 812 558 819 557 l 809 558 q 799 551 801 557 l 800 545 q 807 533 803 532 l 808 533 q 820 545 818 534 m 609 535 l 604 534 q 588 492 587 511 l 591 492 q 612 524 610 494 l 612 527 l 609 535 m 734 509 q 726 519 733 517 l 720 519 q 713 502 715 518 q 721 494 713 495 q 734 509 733 494 m 692 503 q 685 513 688 514 q 671 492 672 513 q 673 483 673 484 l 682 484 q 692 503 688 484 m 776 509 l 773 509 q 758 488 760 508 q 762 479 760 488 l 765 479 q 780 500 778 480 q 776 509 777 507 m 738 451 q 726 461 733 462 q 715 444 713 455 q 725 434 715 436 q 738 451 736 435 m 672 445 q 667 454 671 453 l 661 454 q 655 442 654 450 l 656 437 q 661 429 656 429 l 663 429 q 673 442 674 429 l 672 445 m 454 436 q 482 348 467 437 q 503 315 503 319 q 499 304 503 310 q 444 404 450 342 q 448 435 444 435 l 454 436 m 911 382 q 918 377 918 380 l 922 341 q 916 253 925 307 q 889 185 905 186 q 881 201 885 184 q 882 216 881 207 q 897 350 899 331 l 896 367 q 907 382 904 382 l 911 382 m 67 229 q 77 195 72 229 l 78 195 q 84 214 80 214 q 92 144 89 214 q 102 -31 102 40 l 103 -31 q 111 56 111 32 l 111 60 q 114 64 111 64 q 122 48 118 64 l 123 48 q 127 64 123 64 q 146 6 132 64 l 149 6 l 149 9 q 146 95 146 63 q 145 115 145 114 l 149 117 q 153 109 153 117 l 155 109 q 158 115 155 115 q 164 102 162 115 l 165 102 l 165 118 q 169 121 166 121 q 184 -28 178 121 q 192 -114 186 -28 l 189 -116 q 186 -108 186 -112 l 184 -108 q 181 -114 184 -114 q 178 -111 181 -111 q 174 -119 177 -119 q 165 -109 168 -109 q 153 -81 158 -109 q 144 -66 146 -81 l 140 -67 q 130 -35 136 -67 l 128 -35 l 128 -38 q 127 -132 128 -51 q 120 -150 125 -150 q 114 -127 114 -150 l 113 -127 q 111 -144 113 -133 l 108 -144 q 103 -132 103 -143 l 102 -132 q 97 -149 102 -149 l 96 -149 q 91 -138 92 -149 l 89 -138 q 84 -150 89 -150 q 69 -50 74 -143 q 64 156 64 43 q 61 205 61 197 l 61 210 q 67 229 61 229 m 1202 212 l 1207 212 q 1212 191 1212 195 l 1213 191 q 1217 201 1213 201 q 1226 102 1226 158 l 1223 101 q 1219 104 1223 104 q 1213 78 1216 101 l 1212 78 q 1206 111 1208 78 l 1204 111 q 1201 98 1204 98 q 1192 159 1198 106 l 1190 159 q 1188 125 1188 136 l 1188 120 l 1201 62 q 1221 -19 1207 62 l 1221 -20 q 1217 -89 1219 -67 l 1212 -89 l 1212 -67 l 1211 -67 q 1193 -128 1202 -102 l 1188 -128 q 1187 -109 1187 -117 q 1175 -133 1182 -112 l 1173 -133 l 1171 -130 l 1171 -104 l 1170 -104 q 1164 -120 1168 -120 q 1160 -87 1160 -112 l 1160 -86 q 1157 -83 1160 -83 q 1159 -28 1159 -46 l 1159 -20 q 1157 12 1159 -8 q 1164 23 1160 23 q 1165 22 1164 22 q 1168 26 1165 26 q 1171 6 1171 21 q 1177 18 1173 6 l 1179 18 q 1182 4 1182 13 q 1181 -39 1182 -12 q 1184 -56 1184 -53 l 1185 -56 q 1190 -30 1185 -30 q 1195 -35 1190 -32 q 1196 -22 1195 -24 q 1168 66 1190 2 l 1168 73 q 1173 76 1173 75 q 1154 160 1154 149 q 1157 163 1155 163 l 1162 160 q 1170 185 1164 185 q 1171 184 1170 184 q 1179 199 1171 197 l 1181 207 l 1185 207 q 1187 201 1185 206 l 1188 201 l 1188 205 l 1196 204 q 1202 212 1202 209 m 1128 132 q 1140 121 1140 130 q 1146 118 1146 121 l 1146 117 l 1145 113 q 1156 109 1156 113 q 1099 76 1145 98 l 1101 58 q 1099 42 1099 44 q 1122 48 1105 42 q 1133 34 1123 40 l 1133 33 l 1129 28 q 1141 24 1141 28 q 1098 -2 1114 1 l 1098 -14 q 1088 -52 1093 -25 l 1092 -58 q 1090 -75 1090 -68 l 1134 -61 l 1135 -61 q 1139 -64 1139 -62 l 1134 -72 l 1134 -73 l 1137 -72 l 1140 -72 q 1143 -75 1143 -73 l 1134 -89 l 1135 -89 l 1145 -87 l 1146 -91 l 1146 -92 q 1076 -132 1146 -94 q 1059 -96 1059 -132 q 1062 -73 1062 -79 q 1059 -58 1059 -73 l 1055 -61 l 1053 -58 l 1053 -56 q 1063 43 1063 -1 q 1061 58 1061 43 l 1057 56 q 1053 62 1055 56 q 1076 113 1059 113 q 1128 132 1114 132 m 264 82 q 269 58 269 82 l 269 54 l 276 56 q 279 45 279 52 q 284 48 280 45 l 286 48 q 298 -35 293 48 q 283 -122 294 -96 l 270 -134 l 269 -134 q 262 -125 262 -132 l 250 -144 q 243 -128 245 -144 q 239 -132 239 -132 l 237 -132 q 236 -130 236 -132 l 233 -132 l 228 -132 q 203 -25 214 -132 q 211 4 203 1 l 214 3 q 240 66 221 51 l 245 64 q 258 73 258 71 q 264 82 260 82 m 951 73 l 953 70 l 950 59 l 955 59 l 962 65 q 977 42 965 65 q 973 28 973 32 q 981 23 981 28 q 958 -16 972 5 l 958 -19 q 989 -104 989 -74 l 985 -104 q 983 -98 983 -104 l 979 -98 l 979 -111 q 977 -114 979 -114 q 972 -103 972 -113 l 968 -103 q 966 -109 968 -109 q 956 -71 961 -109 q 935 -41 935 -45 l 932 -41 l 932 -120 q 930 -123 932 -123 q 928 -119 928 -121 l 925 -120 q 922 -116 922 -120 q 914 -125 916 -125 q 911 -122 914 -122 q 908 -125 911 -125 l 905 -125 l 900 -64 q 905 23 902 -10 q 889 33 889 29 l 889 34 l 892 39 q 888 43 890 39 l 888 47 q 903 51 888 50 q 951 73 928 60 m 445 59 q 476 14 468 59 l 476 -3 q 465 -61 469 -56 q 454 -80 461 -80 q 406 -142 438 -121 q 399 -149 406 -144 l 398 -149 q 393 -139 393 -147 l 393 -132 q 385 -113 385 -132 l 385 -109 l 391 -103 l 391 -80 q 385 -77 385 -80 l 385 -73 q 391 -39 387 -39 q 393 -50 393 -41 l 395 -50 q 398 -20 398 -38 l 398 -3 l 399 12 l 396 11 l 395 11 q 391 17 391 11 l 384 16 l 382 18 q 412 54 397 54 q 445 59 427 59 m 734 56 l 736 53 q 726 42 736 52 l 727 42 l 736 43 l 738 40 q 734 37 734 40 l 736 37 l 744 39 l 745 35 l 707 7 q 702 -138 703 -37 l 699 -139 q 697 -133 697 -136 l 696 -133 l 692 -134 q 690 -122 690 -132 l 688 -122 q 685 -140 685 -138 l 680 -140 l 679 -133 l 679 -116 q 680 -78 679 -90 q 679 -47 679 -64 q 682 -7 679 -28 l 680 -7 q 652 -16 675 -10 q 650 -14 652 -14 l 650 -39 q 648 -119 648 -111 l 644 -120 q 638 -104 640 -120 l 636 -104 q 616 -139 629 -139 q 612 -133 614 -133 l 602 -147 q 594 -132 598 -147 l 589 -134 q 578 -58 582 -134 q 581 -38 578 -45 q 578 -8 578 -22 l 578 20 q 588 50 585 50 l 589 50 q 593 47 593 49 l 593 37 q 597 26 597 37 l 604 33 l 607 33 q 605 -2 607 26 q 607 -8 605 -5 q 605 -85 605 -8 l 610 -87 q 613 -85 610 -85 l 616 -86 q 619 -49 619 -64 q 618 17 619 -37 q 619 50 619 37 q 624 53 620 50 q 625 48 625 50 l 627 48 q 629 54 629 54 l 632 54 q 636 42 636 54 l 638 42 q 641 53 638 53 q 649 12 646 47 l 650 12 q 659 16 656 16 l 656 18 q 734 56 684 35 m 808 56 l 808 53 q 799 42 799 43 l 806 43 q 810 40 810 43 l 808 37 l 810 37 q 861 56 842 56 l 864 56 q 870 48 868 48 q 881 40 876 41 l 881 39 q 838 14 880 33 l 839 -2 l 839 -14 l 854 -9 q 863 -20 854 -12 l 863 -22 l 861 -25 q 870 -28 870 -25 q 836 -49 844 -49 l 836 -62 q 830 -85 830 -73 l 831 -98 q 830 -104 830 -101 l 831 -104 q 865 -94 834 -104 q 867 -98 867 -97 l 867 -103 q 872 -106 872 -103 l 865 -114 l 865 -116 q 875 -119 875 -116 q 819 -150 873 -121 q 806 -123 806 -150 q 808 -104 806 -121 q 805 -102 805 -104 l 806 -92 l 803 -94 l 800 -94 q 810 -13 810 -47 q 805 -3 808 -13 q 802 0 802 -3 l 802 1 q 805 24 802 10 q 779 -2 779 13 q 775 -138 775 -66 l 772 -139 q 769 -132 769 -135 l 764 -134 q 763 -123 763 -132 q 756 -140 760 -123 l 752 -140 q 750 -120 752 -125 q 752 -69 752 -92 l 752 -35 q 755 -7 752 -14 l 753 -7 q 726 -16 751 -8 l 724 -13 l 730 -5 q 719 -2 719 -5 q 730 6 719 2 l 730 7 l 728 7 l 719 6 l 718 9 q 734 23 727 12 q 808 56 804 56 m 351 54 q 354 45 354 50 l 354 29 l 357 31 l 359 31 q 363 23 363 31 l 367 24 l 368 24 q 378 -42 374 24 q 356 -136 378 -117 l 354 -136 q 349 -128 351 -136 q 338 -144 340 -144 q 336 -132 336 -139 l 332 -133 l 331 -133 q 329 -132 329 -133 l 326 -133 l 323 -133 q 302 -33 309 -133 q 311 -13 302 -16 q 332 40 318 30 l 334 40 l 337 39 q 351 54 345 45 m 535 54 l 540 54 q 563 24 560 54 q 565 0 565 16 l 565 -5 q 562 -8 565 -8 l 558 -7 q 554 -12 558 -9 q 546 -2 551 -12 q 541 -3 543 -3 q 536 18 538 0 q 532 24 534 18 q 534 29 534 28 l 534 31 l 532 31 q 512 -56 513 -14 l 512 -64 q 524 -103 512 -98 l 529 -103 q 547 -58 533 -103 l 551 -56 l 558 -56 q 563 -67 563 -58 l 565 -67 q 570 -60 566 -60 q 574 -78 573 -60 q 549 -127 559 -127 q 532 -139 536 -127 l 529 -140 l 526 -140 l 519 -134 l 516 -136 q 481 -75 507 -136 l 481 -72 q 488 -28 481 -28 l 487 -13 q 529 53 487 25 q 535 54 532 54 m 931 35 q 932 29 931 35 q 930 7 930 26 l 932 7 l 932 -2 q 939 -5 935 -2 l 941 -5 l 950 29 q 937 24 942 24 q 935 34 935 30 l 936 42 q 931 35 933 42 m 431 26 l 429 18 l 429 16 q 420 -77 429 2 l 420 -78 l 421 -78 q 432 -60 428 -60 l 435 -61 q 445 -26 435 -54 l 445 -20 q 443 -16 445 -16 l 445 -8 l 445 23 l 443 23 q 437 14 443 17 q 432 26 433 14 l 431 26 m 245 18 q 239 -44 240 -4 q 240 -86 240 -63 l 240 -87 l 242 -87 q 248 -71 245 -71 l 252 -71 l 253 -77 l 256 -75 l 258 -75 l 260 -77 l 262 -61 l 262 -33 q 264 -12 262 -24 q 258 11 260 11 q 253 1 258 3 q 247 18 249 1 l 245 18 m 649 6 l 649 1 q 656 7 656 5 l 654 7 q 649 6 650 6 m 336 -2 q 331 -58 332 -23 q 332 -94 332 -75 l 334 -94 q 340 -78 335 -78 q 342 -85 342 -81 l 345 -83 l 348 -85 l 349 -73 l 349 -26 l 348 -8 l 347 -8 q 342 -16 345 -16 q 337 -2 338 -16 l 336 -2 m 649 -5 l 649 -13 q 659 -7 655 -7 l 659 -5 l 649 -5 m 1023 -91 q 1028 -100 1025 -91 q 1032 -98 1031 -98 q 1034 -103 1034 -102 q 1032 -108 1032 -106 q 1044 -103 1040 -103 l 1045 -106 l 1045 -109 q 1025 -145 1043 -123 q 1021 -140 1021 -145 l 1015 -145 q 1014 -138 1014 -142 l 1006 -142 q 1003 -138 1003 -142 q 1004 -133 1004 -134 l 1000 -136 l 995 -136 q 1019 -96 1008 -96 q 1023 -91 1019 -93 m 758 -163 l 1206 -163 q 1210 -166 1210 -163 l 1210 -258 q 1206 -262 1210 -262 l 758 -262 q 755 -258 755 -262 l 755 -166 q 758 -163 755 -163 m 389 -164 l 413 -164 q 416 -168 416 -165 l 416 -182 q 413 -186 416 -186 l 398 -186 l 398 -201 l 409 -201 q 412 -203 412 -201 l 412 -217 q 409 -220 412 -220 l 398 -220 l 398 -251 q 395 -255 398 -255 l 389 -255 q 386 -251 386 -255 l 386 -217 l 382 -212 l 382 -209 q 386 -203 386 -205 l 386 -168 q 389 -164 387 -164 m 83 -166 l 99 -166 q 107 -189 107 -169 l 107 -193 q 104 -197 107 -197 l 98 -197 q 95 -186 95 -197 l 87 -186 l 87 -197 q 102 -202 87 -201 q 110 -230 105 -208 q 99 -255 104 -253 l 83 -255 q 75 -237 75 -251 l 75 -227 q 78 -224 75 -224 l 84 -224 l 90 -235 l 92 -235 q 95 -231 95 -235 l 95 -220 l 83 -220 q 72 -191 78 -220 q 83 -166 78 -166 m 123 -166 l 144 -166 q 151 -178 151 -169 l 151 -213 q 140 -226 151 -226 l 132 -226 l 132 -251 q 128 -255 132 -255 l 123 -255 q 121 -251 121 -255 l 121 -218 l 117 -213 l 117 -209 l 121 -203 l 121 -170 q 123 -166 121 -166 m 164 -166 l 190 -166 q 193 -170 193 -167 l 193 -199 l 197 -212 q 193 -222 193 -217 l 193 -251 q 190 -255 193 -255 l 184 -255 q 182 -251 182 -255 l 182 -220 l 172 -220 l 172 -251 q 169 -255 172 -255 l 164 -255 q 161 -251 161 -255 l 161 -222 l 159 -209 q 161 -199 161 -203 l 161 -170 q 164 -166 161 -166 m 210 -166 l 216 -166 q 229 -203 220 -166 l 230 -203 l 230 -170 q 233 -166 231 -166 l 239 -166 q 242 -170 242 -167 l 242 -201 q 245 -212 242 -205 q 242 -222 242 -217 l 242 -251 q 239 -255 242 -255 l 233 -255 q 219 -213 229 -255 l 218 -213 l 218 -251 q 214 -255 218 -255 l 210 -255 q 208 -251 208 -255 l 208 -224 q 203 -212 208 -218 q 208 -199 208 -205 l 208 -170 q 210 -166 208 -166 m 258 -166 l 263 -166 q 266 -170 266 -167 l 266 -201 l 269 -213 q 266 -217 266 -214 l 266 -251 q 263 -255 266 -255 l 258 -255 q 254 -251 254 -255 l 254 -217 l 251 -212 l 251 -209 l 254 -203 l 254 -170 q 258 -166 255 -166 m 286 -166 l 304 -166 q 310 -178 310 -169 l 310 -193 q 307 -197 310 -197 l 303 -197 l 296 -186 l 294 -186 q 290 -189 290 -186 l 290 -197 q 307 -202 290 -201 q 313 -226 311 -226 l 313 -231 q 309 -251 310 -235 q 300 -255 304 -255 l 290 -255 q 280 -242 280 -255 l 280 -227 q 283 -224 281 -224 l 288 -224 l 294 -235 l 298 -235 l 300 -226 q 298 -220 298 -222 l 290 -220 q 279 -195 279 -220 q 277 -189 277 -195 q 286 -166 282 -166 m 327 -166 l 333 -166 q 336 -170 336 -167 l 336 -201 l 345 -201 l 345 -170 q 349 -166 346 -166 l 353 -166 q 356 -170 356 -167 l 356 -197 q 359 -212 356 -198 l 356 -224 l 356 -251 q 353 -255 356 -255 l 349 -255 q 345 -251 345 -255 l 345 -220 l 336 -220 l 336 -251 q 333 -255 336 -255 l 327 -255 q 324 -251 324 -255 l 324 -217 l 321 -212 l 321 -209 q 324 -203 324 -205 l 324 -170 q 327 -166 325 -166 m 433 -166 l 452 -166 q 457 -178 457 -169 l 457 -203 l 460 -209 l 460 -213 l 457 -218 l 457 -240 q 450 -255 457 -250 l 437 -255 q 427 -242 427 -255 l 427 -224 q 422 -212 427 -218 q 427 -199 427 -205 l 427 -178 q 433 -166 427 -169 m 474 -166 l 480 -166 q 494 -208 484 -166 l 496 -208 l 496 -170 q 498 -166 496 -166 l 503 -166 q 506 -170 506 -167 l 506 -201 q 509 -215 506 -202 q 506 -218 506 -216 l 506 -251 q 503 -255 506 -255 l 497 -255 q 483 -212 493 -255 l 481 -212 l 481 -251 q 479 -255 481 -255 l 474 -255 q 471 -251 471 -255 l 471 -218 l 468 -213 l 468 -209 q 471 -203 471 -205 l 471 -170 q 474 -166 472 -166 m 518 -166 l 545 -166 q 549 -170 549 -167 l 549 -182 q 545 -186 549 -186 l 538 -186 l 538 -203 l 541 -209 l 541 -213 l 538 -218 l 538 -251 q 534 -255 538 -255 l 530 -255 q 528 -251 528 -255 l 528 -224 q 523 -212 528 -218 l 528 -202 l 528 -186 l 518 -186 q 515 -182 515 -186 l 515 -170 q 518 -166 515 -166 m 583 -166 q 589 -181 587 -166 l 589 -193 q 587 -197 589 -197 l 580 -197 q 578 -186 578 -197 l 570 -186 l 570 -197 q 585 -202 570 -201 q 593 -230 587 -205 q 582 -255 587 -255 l 565 -255 q 557 -226 558 -255 l 560 -224 l 567 -224 l 573 -235 l 574 -235 q 578 -231 578 -235 l 578 -220 l 565 -220 q 556 -193 560 -220 q 554 -191 554 -193 q 564 -166 560 -172 l 583 -166 m 625 -166 l 629 -166 q 632 -170 632 -167 l 632 -203 q 635 -212 635 -208 q 632 -222 632 -217 l 632 -235 l 646 -235 q 649 -238 649 -235 l 649 -251 q 646 -255 649 -255 l 625 -255 q 621 -251 621 -255 l 621 -224 q 618 -209 621 -222 l 618 -208 l 621 -202 l 621 -170 q 625 -166 622 -166 m 663 -166 l 688 -166 q 691 -170 691 -167 l 691 -199 l 694 -212 q 691 -222 691 -217 l 691 -251 q 688 -255 691 -255 l 684 -255 q 680 -251 680 -255 l 680 -220 l 670 -220 l 670 -251 q 667 -255 670 -255 l 663 -255 q 659 -251 659 -255 l 659 -222 l 656 -209 q 659 -199 659 -203 l 659 -170 q 663 -166 660 -166 m 708 -166 l 730 -166 q 736 -181 734 -166 l 736 -195 q 735 -209 736 -202 q 736 -224 736 -216 l 736 -240 q 729 -255 736 -250 l 708 -255 q 705 -251 705 -255 l 705 -217 l 702 -212 l 702 -209 q 705 -203 705 -205 l 705 -170 q 708 -166 705 -166 m 132 -186 l 132 -208 l 137 -208 q 140 -203 140 -208 l 140 -189 q 137 -186 140 -186 l 132 -186 m 172 -186 l 172 -201 l 182 -201 l 182 -186 l 172 -186 m 437 -189 l 437 -231 q 441 -235 438 -235 l 446 -235 l 447 -226 l 447 -195 l 446 -186 l 441 -186 q 437 -189 437 -186 m 670 -186 l 670 -197 q 673 -201 671 -201 l 678 -201 q 680 -197 680 -201 l 680 -186 l 670 -186 m 717 -186 l 717 -199 l 725 -199 l 725 -186 l 717 -186 m 791 -182 l 791 -183 l 795 -189 l 795 -235 l 791 -240 l 791 -243 l 808 -243 l 808 -240 l 805 -235 l 805 -205 l 806 -205 q 823 -225 808 -205 l 825 -225 q 838 -205 825 -221 l 840 -205 l 840 -235 l 837 -240 l 837 -243 l 861 -243 q 864 -240 864 -243 q 859 -235 862 -240 l 859 -189 q 864 -186 859 -186 l 864 -182 l 842 -182 q 829 -200 842 -186 l 827 -200 l 811 -182 l 791 -182 m 873 -182 l 873 -186 q 878 -189 878 -186 l 878 -235 q 873 -237 878 -237 l 873 -243 l 892 -243 l 892 -237 q 887 -235 887 -237 l 887 -205 l 888 -205 l 907 -225 q 922 -205 918 -208 l 924 -205 l 924 -235 q 919 -237 924 -237 l 919 -243 l 947 -243 l 947 -240 l 943 -235 l 943 -189 l 947 -183 l 947 -182 l 926 -182 l 911 -200 l 909 -200 l 895 -182 l 873 -182 m 955 -182 l 955 -186 q 976 -218 962 -186 q 955 -237 960 -237 l 955 -243 l 975 -243 l 974 -235 l 983 -225 q 989 -236 989 -235 q 987 -243 987 -239 l 1015 -243 q 1018 -240 1018 -243 q 996 -211 1009 -235 l 996 -207 q 1018 -186 1011 -186 l 1018 -182 l 998 -182 l 998 -183 q 1000 -189 1000 -187 l 990 -200 q 984 -186 984 -193 l 985 -186 l 985 -182 l 955 -182 m 1022 -182 l 1022 -186 q 1044 -218 1029 -186 q 1022 -237 1027 -237 l 1022 -243 l 1042 -243 l 1040 -235 l 1049 -225 q 1055 -236 1055 -235 q 1054 -243 1054 -239 l 1081 -243 q 1084 -240 1084 -243 q 1063 -211 1076 -235 l 1063 -207 q 1084 -186 1078 -186 l 1084 -182 l 1065 -182 l 1065 -183 q 1066 -189 1066 -187 l 1057 -200 q 1050 -186 1050 -193 l 1052 -186 l 1052 -182 l 1022 -182 m 1092 -182 l 1092 -186 q 1097 -189 1097 -186 l 1097 -235 l 1092 -241 l 1095 -243 l 1120 -243 l 1120 -240 l 1116 -235 l 1116 -189 l 1120 -183 l 1120 -182 l 1092 -182 m 1130 -182 l 1130 -186 q 1135 -189 1135 -186 l 1135 -235 q 1130 -237 1135 -237 l 1130 -243 l 1157 -243 l 1157 -240 l 1154 -235 l 1154 -189 q 1157 -183 1157 -184 l 1157 -182 l 1130 -182 m 717 -220 l 717 -235 l 722 -235 q 725 -231 725 -235 l 725 -220 l 717 -220 m 1170 -182 l 1170 -186 q 1174 -189 1174 -186 l 1174 -235 q 1170 -237 1174 -237 l 1170 -243 l 1197 -243 l 1197 -240 l 1194 -235 l 1194 -189 q 1197 -183 1197 -184 l 1197 -182 l 1170 -182 z "},"\\":{"ha":573,"x_min":0,"x_max":556,"o":"m 150 977 q 199 975 174 977 q 280 848 251 975 q 445 374 395 554 q 556 44 556 58 l 556 26 q 338 0 556 0 q 322 3 336 0 q 218 219 276 3 q 0 965 42 844 q 84 977 0 977 l 150 977 z "},"]":{"ha":1280,"x_min":61,"x_max":1226,"o":"m 443 1127 l 452 1127 q 616 1001 560 1127 q 633 937 633 957 q 649 941 642 941 l 656 941 q 696 898 688 941 q 690 862 690 867 l 690 857 l 697 814 l 697 810 q 685 778 697 791 q 718 723 689 774 q 766 678 718 720 q 810 646 777 646 q 872 625 859 646 q 1000 575 872 611 q 1097 505 1029 551 q 1124 454 1108 494 q 1146 396 1146 430 q 1176 298 1157 308 q 1196 267 1196 275 l 1196 256 q 1110 174 1196 228 q 1019 140 1057 140 l 1008 142 q 951 123 1008 130 q 853 78 893 82 q 806 75 825 75 q 763 81 778 75 q 696 65 703 65 q 674 71 689 65 q 659 66 666 66 l 649 66 q 607 70 645 66 q 530 62 541 62 q 421 75 521 62 q 264 102 325 82 q 136 159 174 129 l 136 160 q 186 319 136 211 q 262 396 248 396 q 385 497 274 396 l 387 497 l 387 500 q 312 681 382 560 q 300 741 306 693 q 283 772 283 758 q 275 787 275 781 q 279 803 279 795 q 248 882 279 819 q 243 917 243 894 l 243 937 q 325 1102 243 1021 q 443 1127 404 1127 m 279 952 l 279 930 q 328 804 279 856 l 337 804 q 384 792 345 804 q 412 751 408 792 l 412 709 q 426 663 412 663 q 441 661 435 661 q 468 688 447 688 q 484 700 484 688 l 484 701 q 463 711 463 703 q 484 726 470 726 q 507 694 507 718 q 500 676 505 681 l 500 675 l 515 675 q 512 688 512 686 l 512 690 q 516 695 512 692 q 577 636 558 646 l 578 636 q 574 656 574 644 l 574 672 q 599 688 574 682 l 613 700 l 613 707 q 612 732 613 717 q 630 748 612 741 l 630 750 q 610 832 623 823 q 602 856 602 850 l 602 857 q 610 871 605 871 l 612 871 q 666 803 633 849 l 667 803 q 674 819 671 803 q 672 856 672 840 l 672 862 q 677 899 672 865 q 656 917 677 917 q 641 909 645 917 l 641 907 l 644 909 q 671 892 671 906 q 663 884 668 884 q 648 890 652 890 l 644 890 q 625 876 632 876 q 614 948 616 882 q 555 1057 596 1019 q 421 1104 491 1104 q 286 1001 317 1104 q 279 952 279 970 m 463 1086 l 468 1086 q 474 1080 471 1086 l 474 1079 q 462 1066 474 1066 q 451 1077 451 1066 q 463 1086 454 1086 m 493 1085 l 503 1085 q 509 1079 505 1085 l 509 1077 q 500 1065 509 1069 l 499 1065 q 487 1073 491 1065 l 487 1074 q 493 1085 487 1082 m 527 1066 l 529 1066 q 543 1046 543 1066 q 538 1040 541 1040 l 535 1040 q 521 1055 523 1040 q 527 1066 521 1064 m 490 1054 l 492 1054 q 504 1043 504 1053 q 494 1034 500 1034 q 484 1043 488 1036 q 490 1054 484 1051 m 560 1042 q 571 1027 571 1037 l 571 1026 q 563 1021 571 1022 q 549 1030 555 1021 q 560 1042 549 1042 m 516 1040 l 518 1040 q 527 1035 527 1039 l 527 1027 q 523 1018 527 1019 l 519 1018 q 509 1029 509 1018 q 516 1040 509 1035 m 552 1019 q 558 1010 558 1017 q 554 999 557 999 q 538 1006 538 1001 l 538 1010 q 552 1019 544 1019 m 490 1015 q 509 1006 503 1015 l 509 996 q 499 990 509 993 q 484 1007 484 994 q 490 1015 487 1014 m 570 1001 l 578 1001 q 585 988 583 1001 q 578 981 582 981 q 565 990 570 981 l 565 996 q 570 1001 565 998 m 546 990 l 547 990 q 554 977 551 990 l 547 972 q 535 982 535 975 q 546 990 537 990 m 587 976 l 588 976 q 602 966 597 976 l 602 959 q 596 952 602 956 l 594 952 q 581 966 581 954 q 587 976 581 972 m 527 971 l 530 971 q 538 959 538 967 q 530 943 538 947 q 518 951 522 943 l 518 957 q 527 971 518 966 m 568 964 q 577 956 574 961 l 577 946 q 572 941 577 944 l 568 941 q 557 951 557 948 q 568 964 559 964 m 593 939 q 605 917 605 934 q 599 909 602 909 l 596 909 q 583 921 583 909 l 583 928 q 593 939 583 939 m 512 920 q 541 899 534 920 q 535 892 538 892 q 507 901 530 892 l 505 901 q 452 875 493 901 l 441 875 q 438 878 438 875 l 438 879 q 503 920 438 905 l 512 920 m 367 888 l 368 888 q 385 873 378 888 q 404 878 399 878 l 407 878 q 414 870 414 874 q 395 856 414 863 q 410 817 410 823 l 410 810 q 401 806 409 806 q 376 846 387 806 l 374 846 q 354 839 358 839 l 353 839 q 348 844 351 839 l 348 846 q 363 865 348 854 q 359 878 359 876 q 367 888 362 887 m 516 888 l 518 888 q 551 863 551 881 q 487 852 551 854 q 479 850 487 850 l 479 848 l 518 848 q 545 844 530 848 l 545 840 q 488 779 545 808 l 488 778 q 504 773 498 773 l 512 773 q 543 790 538 773 q 551 808 543 808 q 565 797 562 803 l 565 795 q 538 756 565 767 q 516 753 526 753 l 509 753 q 454 773 479 753 l 454 772 q 462 751 454 770 l 462 750 q 456 745 462 745 q 427 789 433 745 q 445 829 427 813 q 441 842 441 835 q 516 888 474 888 m 648 871 l 649 871 q 669 831 669 866 q 663 828 665 828 q 643 868 650 828 l 648 871 m 499 832 l 498 829 q 503 819 503 823 l 503 812 q 515 829 515 812 l 515 831 l 499 832 m 462 809 q 465 803 463 803 q 485 801 466 803 q 473 819 473 810 l 473 825 l 471 825 q 462 809 466 825 m 585 790 l 588 790 q 601 772 601 781 l 601 767 q 570 722 601 760 q 558 700 564 700 q 551 699 556 699 q 546 719 546 706 l 546 722 q 581 766 546 745 l 581 781 q 585 790 581 790 m 353 768 l 353 767 q 360 756 357 757 l 368 766 l 368 768 l 353 768 m 328 758 l 321 750 q 331 747 324 750 l 331 754 q 328 758 331 758 m 326 722 q 393 597 330 678 q 414 648 393 606 l 414 650 q 390 692 390 650 q 382 714 387 714 q 359 701 379 714 l 354 701 q 348 707 352 701 l 348 712 q 373 739 373 734 l 370 739 q 326 722 352 722 m 705 701 l 705 699 q 733 616 711 687 q 763 636 747 616 q 705 701 739 664 m 632 683 q 646 669 634 669 q 649 673 649 673 l 649 681 q 644 690 649 689 l 636 690 q 632 683 633 690 m 605 642 q 610 634 607 634 l 612 634 q 623 641 620 634 q 613 658 618 658 l 612 658 q 605 642 607 658 m 487 641 q 493 631 487 634 q 509 641 509 633 q 498 652 509 652 q 487 641 487 652 m 743 589 q 774 466 756 564 q 780 452 780 459 l 780 446 q 775 441 780 444 q 744 471 766 441 l 741 472 l 739 472 l 739 471 q 741 452 741 454 q 733 443 741 446 q 719 455 730 443 l 718 455 l 718 452 q 730 402 718 444 q 732 391 732 396 q 724 377 728 377 q 677 456 712 388 l 672 460 l 660 396 q 652 387 654 387 l 650 387 q 643 405 646 387 l 641 405 q 608 351 635 398 l 601 346 q 582 410 594 353 l 581 410 q 566 338 573 410 l 560 332 l 558 332 q 541 376 550 332 l 538 376 q 526 338 534 341 l 524 338 q 504 385 517 344 l 499 389 q 484 347 496 347 l 482 347 q 452 430 469 347 l 432 393 q 420 387 423 387 q 404 458 414 387 q 399 469 402 458 q 331 355 331 389 q 313 309 323 309 l 311 309 q 304 351 304 327 l 306 401 l 304 401 q 192 252 220 340 q 187 221 187 227 q 212 235 205 235 l 216 235 q 224 231 224 234 l 224 229 q 174 174 174 185 q 170 165 174 172 q 279 126 248 126 l 290 126 q 258 165 258 152 l 258 170 q 269 185 258 178 q 306 149 272 185 l 307 149 q 304 187 304 171 q 306 252 304 202 l 304 262 q 309 268 307 268 l 315 268 q 343 163 330 268 q 357 113 352 113 q 482 90 357 98 l 482 92 q 465 180 465 159 q 474 199 465 194 l 481 199 q 515 101 494 199 q 524 89 519 91 l 534 89 q 577 96 577 90 l 577 101 l 566 238 q 596 324 566 304 l 597 324 q 601 310 601 319 l 593 268 l 593 264 q 605 121 593 251 l 605 102 q 640 85 614 85 q 672 104 672 85 q 699 345 684 157 q 711 354 703 354 q 727 316 727 340 q 701 104 701 123 q 702 100 702 101 q 750 115 747 111 q 830 285 806 223 q 878 334 848 319 q 892 336 880 334 l 900 327 q 875 302 900 318 q 844 226 862 288 q 811 132 811 172 q 785 102 808 123 l 783 100 l 783 98 l 791 96 l 827 96 q 932 136 876 96 q 977 146 958 146 q 1040 287 979 172 q 1063 335 1045 310 q 1073 347 1068 345 q 1087 326 1087 347 q 1021 189 1087 296 q 1013 160 1013 163 l 1017 160 q 1134 212 1053 160 q 1168 254 1168 242 q 1134 307 1168 269 l 1134 296 q 1120 276 1131 276 q 1114 292 1114 282 l 1114 298 q 1117 334 1117 332 l 1103 414 q 1092 469 1103 469 q 1042 365 1092 433 q 1014 335 1027 336 q 1008 347 1008 342 l 1008 357 q 1063 480 1063 420 q 1004 528 1014 514 q 1001 541 1001 538 q 961 509 961 526 q 941 446 955 500 q 930 432 932 432 q 920 466 920 445 q 961 558 920 507 l 961 559 q 861 578 918 578 q 816 522 844 568 l 810 517 q 802 532 805 517 l 802 543 q 839 606 802 570 q 841 612 841 609 q 805 625 841 619 q 743 589 764 625 m 677 617 q 674 608 677 614 q 694 587 680 587 l 697 587 l 697 594 q 683 617 697 608 l 677 617 m 479 602 l 471 602 q 440 581 465 593 l 438 578 l 448 578 q 504 597 459 578 q 524 606 517 597 q 529 611 526 606 l 529 612 l 523 612 q 479 602 486 602 m 572 569 q 585 556 572 565 q 594 564 591 559 l 594 568 q 582 580 594 580 l 578 580 q 572 569 572 577 m 500 538 l 500 536 q 516 524 500 524 l 518 524 l 521 533 q 512 547 521 541 l 505 547 q 500 538 500 545 m 450 532 q 462 521 452 521 l 463 521 q 469 533 467 521 l 469 539 q 458 545 467 545 l 456 545 q 450 532 450 543 m 660 541 l 659 533 l 659 530 q 682 500 663 500 l 685 500 q 665 541 685 519 l 660 541 m 538 503 q 552 490 541 490 q 560 498 560 492 q 551 514 555 514 l 545 514 q 538 503 538 512 m 581 502 q 593 483 585 483 l 601 483 q 602 492 601 484 q 587 513 600 513 q 581 502 583 513 m 496 500 q 493 491 496 498 q 510 471 496 471 l 513 471 q 516 480 514 480 q 499 500 512 500 l 496 500 m 540 446 q 554 430 543 430 q 563 441 563 433 q 551 456 563 452 q 540 446 543 456 m 605 446 l 605 443 q 616 430 605 430 l 618 430 q 623 439 623 432 l 623 444 q 616 455 623 452 l 610 455 q 605 446 605 454 m 823 456 l 830 456 q 836 425 834 456 q 791 321 836 363 q 786 332 786 327 q 803 366 786 336 q 823 456 810 456 m 373 361 l 378 361 q 390 347 380 361 l 390 330 q 418 198 390 311 q 420 184 420 189 q 414 167 418 167 q 380 232 398 167 q 367 319 367 285 l 367 355 q 373 361 367 357 m 67 229 q 77 195 72 229 l 78 195 q 84 214 80 214 q 92 144 89 214 q 102 -31 102 40 l 103 -31 q 111 56 111 32 l 111 60 q 114 64 111 64 q 122 48 118 64 l 123 48 q 127 64 123 64 q 146 6 132 64 l 149 6 l 149 9 q 146 95 146 63 q 145 115 145 114 l 149 117 q 153 109 153 117 l 155 109 q 158 115 155 115 q 164 102 162 115 l 165 102 l 165 118 q 169 121 166 121 q 184 -28 178 121 q 192 -114 186 -28 l 189 -116 q 186 -108 186 -112 l 184 -108 q 181 -114 184 -114 q 178 -111 181 -111 q 174 -119 177 -119 q 165 -109 168 -109 q 153 -81 158 -109 q 144 -66 146 -81 l 140 -67 q 130 -35 136 -67 l 128 -35 l 128 -38 q 127 -132 128 -51 q 120 -150 125 -150 q 114 -127 114 -150 l 113 -127 q 111 -144 113 -133 l 108 -144 q 103 -132 103 -143 l 102 -132 q 97 -149 102 -149 l 96 -149 q 91 -138 92 -149 l 89 -138 q 84 -150 89 -150 q 69 -50 74 -143 q 64 156 64 43 q 61 205 61 197 l 61 210 q 67 229 61 229 m 1202 212 l 1207 212 q 1212 191 1212 195 l 1213 191 q 1217 201 1213 201 q 1226 102 1226 158 l 1223 101 q 1219 104 1223 104 q 1213 78 1216 101 l 1212 78 q 1206 111 1208 78 l 1204 111 q 1201 98 1204 98 q 1192 159 1198 106 l 1190 159 q 1188 125 1188 136 l 1188 120 l 1201 62 q 1221 -19 1207 62 l 1221 -20 q 1217 -89 1219 -67 l 1212 -89 l 1212 -67 l 1211 -67 q 1193 -128 1202 -102 l 1188 -128 q 1187 -109 1187 -117 q 1175 -133 1182 -112 l 1173 -133 l 1171 -130 l 1171 -104 l 1170 -104 q 1164 -120 1168 -120 q 1160 -87 1160 -112 l 1160 -86 q 1157 -83 1160 -83 q 1159 -28 1159 -46 l 1159 -20 q 1157 12 1159 -8 q 1164 23 1160 23 q 1165 22 1164 22 q 1168 26 1165 26 q 1171 6 1171 21 q 1177 18 1173 6 l 1179 18 q 1182 4 1182 13 q 1181 -39 1182 -12 q 1184 -56 1184 -53 l 1185 -56 q 1190 -30 1185 -30 q 1195 -35 1190 -32 q 1196 -22 1195 -24 q 1168 66 1190 2 l 1168 73 q 1173 76 1173 75 q 1154 160 1154 149 q 1157 163 1155 163 l 1162 160 q 1170 185 1164 185 q 1171 184 1170 184 q 1179 199 1171 197 l 1181 207 l 1185 207 q 1187 201 1185 206 l 1188 201 l 1188 205 l 1196 204 q 1202 212 1202 209 m 1128 132 q 1140 121 1140 130 q 1146 118 1146 121 l 1146 117 l 1145 113 q 1156 109 1156 113 q 1099 76 1145 98 l 1101 58 q 1099 42 1099 44 q 1122 48 1105 42 q 1133 34 1123 40 l 1133 33 l 1129 28 q 1141 24 1141 28 q 1098 -2 1114 1 l 1098 -14 q 1088 -52 1093 -25 l 1092 -58 q 1090 -75 1090 -68 l 1134 -61 l 1135 -61 q 1139 -64 1139 -62 l 1134 -72 l 1134 -73 l 1137 -72 l 1140 -72 q 1143 -75 1143 -73 l 1134 -89 l 1135 -89 l 1145 -87 l 1146 -91 l 1146 -92 q 1076 -132 1146 -94 q 1059 -96 1059 -132 q 1062 -73 1062 -79 q 1059 -58 1059 -73 l 1055 -61 l 1053 -58 l 1053 -56 q 1063 43 1063 -1 q 1061 58 1061 43 l 1057 56 q 1053 62 1055 56 q 1076 113 1059 113 q 1128 132 1114 132 m 264 82 q 269 58 269 82 l 269 54 l 276 56 q 279 45 279 52 q 284 48 280 45 l 286 48 q 298 -35 293 48 q 283 -122 294 -96 l 270 -134 l 269 -134 q 262 -125 262 -132 l 250 -144 q 243 -128 245 -144 q 239 -132 239 -132 l 237 -132 q 236 -130 236 -132 l 233 -132 l 228 -132 q 203 -25 214 -132 q 211 4 203 1 l 214 3 q 240 66 221 51 l 245 64 q 258 73 258 71 q 264 82 260 82 m 951 73 l 953 70 l 950 59 l 955 59 l 962 65 q 977 42 965 65 q 973 28 973 32 q 981 23 981 28 q 958 -16 972 5 l 958 -19 q 989 -104 989 -74 l 985 -104 q 983 -98 983 -104 l 979 -98 l 979 -111 q 977 -114 979 -114 q 972 -103 972 -113 l 968 -103 q 966 -109 968 -109 q 956 -71 961 -109 q 935 -41 935 -45 l 932 -41 l 932 -120 q 930 -123 932 -123 q 928 -119 928 -121 l 925 -120 q 922 -116 922 -120 q 914 -125 916 -125 q 911 -122 914 -122 q 908 -125 911 -125 l 905 -125 l 900 -64 q 905 23 902 -10 q 889 33 889 29 l 889 34 l 892 39 q 888 43 890 39 l 888 47 q 903 51 888 50 q 951 73 928 60 m 445 59 q 476 14 468 59 l 476 -3 q 465 -61 469 -56 q 454 -80 461 -80 q 406 -142 438 -121 q 399 -149 406 -144 l 398 -149 q 393 -139 393 -147 l 393 -132 q 385 -113 385 -132 l 385 -109 l 391 -103 l 391 -80 q 385 -77 385 -80 l 385 -73 q 391 -39 387 -39 q 393 -50 393 -41 l 395 -50 q 398 -20 398 -38 l 398 -3 l 399 12 l 396 11 l 395 11 q 391 17 391 11 l 384 16 l 382 18 q 412 54 397 54 q 445 59 427 59 m 734 56 l 736 53 q 726 42 736 52 l 727 42 l 736 43 l 738 40 q 734 37 734 40 l 736 37 l 744 39 l 745 35 l 707 7 q 702 -138 703 -37 l 699 -139 q 697 -133 697 -136 l 696 -133 l 692 -134 q 690 -122 690 -132 l 688 -122 q 685 -140 685 -138 l 680 -140 l 679 -133 l 679 -116 q 680 -78 679 -90 q 679 -47 679 -64 q 682 -7 679 -28 l 680 -7 q 652 -16 675 -10 q 650 -14 652 -14 l 650 -39 q 648 -119 648 -111 l 644 -120 q 638 -104 640 -120 l 636 -104 q 616 -139 629 -139 q 612 -133 614 -133 l 602 -147 q 594 -132 598 -147 l 589 -134 q 578 -58 582 -134 q 581 -38 578 -45 q 578 -8 578 -22 l 578 20 q 588 50 585 50 l 589 50 q 593 47 593 49 l 593 37 q 597 26 597 37 l 604 33 l 607 33 q 605 -2 607 26 q 607 -8 605 -5 q 605 -85 605 -8 l 610 -87 q 613 -85 610 -85 l 616 -86 q 619 -49 619 -64 q 618 17 619 -37 q 619 50 619 37 q 624 53 620 50 q 625 48 625 50 l 627 48 q 629 54 629 54 l 632 54 q 636 42 636 54 l 638 42 q 641 53 638 53 q 649 12 646 47 l 650 12 q 659 16 656 16 l 656 18 q 734 56 684 35 m 808 56 l 808 53 q 799 42 799 43 l 806 43 q 810 40 810 43 l 808 37 l 810 37 q 861 56 842 56 l 864 56 q 870 48 868 48 q 881 40 876 41 l 881 39 q 838 14 880 33 l 839 -2 l 839 -14 l 854 -9 q 863 -20 854 -12 l 863 -22 l 861 -25 q 870 -28 870 -25 q 836 -49 844 -49 l 836 -62 q 830 -85 830 -73 l 831 -98 q 830 -104 830 -101 l 831 -104 q 865 -94 834 -104 q 867 -98 867 -97 l 867 -103 q 872 -106 872 -103 l 865 -114 l 865 -116 q 875 -119 875 -116 q 819 -150 873 -121 q 806 -123 806 -150 q 808 -104 806 -121 q 805 -102 805 -104 l 806 -92 l 803 -94 l 800 -94 q 810 -13 810 -47 q 805 -3 808 -13 q 802 0 802 -3 l 802 1 q 805 24 802 10 q 779 -2 779 13 q 775 -138 775 -66 l 772 -139 q 769 -132 769 -135 l 764 -134 q 763 -123 763 -132 q 756 -140 760 -123 l 752 -140 q 750 -120 752 -125 q 752 -69 752 -92 l 752 -35 q 755 -7 752 -14 l 753 -7 q 726 -16 751 -8 l 724 -13 l 730 -5 q 719 -2 719 -5 q 730 6 719 2 l 730 7 l 728 7 l 719 6 l 718 9 q 734 23 727 12 q 808 56 804 56 m 351 54 q 354 45 354 50 l 354 29 l 357 31 l 359 31 q 363 23 363 31 l 367 24 l 368 24 q 378 -42 374 24 q 356 -136 378 -117 l 354 -136 q 349 -128 351 -136 q 338 -144 340 -144 q 336 -132 336 -139 l 332 -133 l 331 -133 q 329 -132 329 -133 l 326 -133 l 323 -133 q 302 -33 309 -133 q 311 -13 302 -16 q 332 40 318 30 l 334 40 l 337 39 q 351 54 345 45 m 535 54 l 540 54 q 563 24 560 54 q 565 0 565 16 l 565 -5 q 562 -8 565 -8 l 558 -7 q 554 -12 558 -9 q 546 -2 551 -12 q 541 -3 543 -3 q 536 18 538 0 q 532 24 534 18 q 534 29 534 28 l 534 31 l 532 31 q 512 -56 513 -14 l 512 -64 q 524 -103 512 -98 l 529 -103 q 547 -58 533 -103 l 551 -56 l 558 -56 q 563 -67 563 -58 l 565 -67 q 570 -60 566 -60 q 574 -78 573 -60 q 549 -127 559 -127 q 532 -139 536 -127 l 529 -140 l 526 -140 l 519 -134 l 516 -136 q 481 -75 507 -136 l 481 -72 q 488 -28 481 -28 l 487 -13 q 529 53 487 25 q 535 54 532 54 m 931 35 q 932 29 931 35 q 930 7 930 26 l 932 7 l 932 -2 q 939 -5 935 -2 l 941 -5 l 950 29 q 937 24 942 24 q 935 34 935 30 l 936 42 q 931 35 933 42 m 431 26 l 429 18 l 429 16 q 420 -77 429 2 l 420 -78 l 421 -78 q 432 -60 428 -60 l 435 -61 q 445 -26 435 -54 l 445 -20 q 443 -16 445 -16 l 445 -8 l 445 23 l 443 23 q 437 14 443 17 q 432 26 433 14 l 431 26 m 245 18 q 239 -44 240 -4 q 240 -86 240 -63 l 240 -87 l 242 -87 q 248 -71 245 -71 l 252 -71 l 253 -77 l 256 -75 l 258 -75 l 260 -77 l 262 -61 l 262 -33 q 264 -12 262 -24 q 258 11 260 11 q 253 1 258 3 q 247 18 249 1 l 245 18 m 649 6 l 649 1 q 656 7 656 5 l 654 7 q 649 6 650 6 m 336 -2 q 331 -58 332 -23 q 332 -94 332 -75 l 334 -94 q 340 -78 335 -78 q 342 -85 342 -81 l 345 -83 l 348 -85 l 349 -73 l 349 -26 l 348 -8 l 347 -8 q 342 -16 345 -16 q 337 -2 338 -16 l 336 -2 m 649 -5 l 649 -13 q 659 -7 655 -7 l 659 -5 l 649 -5 m 1023 -91 q 1028 -100 1025 -91 q 1032 -98 1031 -98 q 1034 -103 1034 -102 q 1032 -108 1032 -106 q 1044 -103 1040 -103 l 1045 -106 l 1045 -109 q 1025 -145 1043 -123 q 1021 -140 1021 -145 l 1015 -145 q 1014 -138 1014 -142 l 1006 -142 q 1003 -138 1003 -142 q 1004 -133 1004 -134 l 1000 -136 l 995 -136 q 1019 -96 1008 -96 q 1023 -91 1019 -93 m 758 -163 l 1206 -163 q 1210 -166 1210 -163 l 1210 -258 q 1206 -262 1210 -262 l 758 -262 q 755 -258 755 -262 l 755 -166 q 758 -163 755 -163 m 389 -164 l 413 -164 q 416 -168 416 -165 l 416 -182 q 413 -186 416 -186 l 398 -186 l 398 -201 l 409 -201 q 412 -203 412 -201 l 412 -217 q 409 -220 412 -220 l 398 -220 l 398 -251 q 395 -255 398 -255 l 389 -255 q 386 -251 386 -255 l 386 -217 l 382 -212 l 382 -209 q 386 -203 386 -205 l 386 -168 q 389 -164 387 -164 m 83 -166 l 99 -166 q 107 -189 107 -169 l 107 -193 q 104 -197 107 -197 l 98 -197 q 95 -186 95 -197 l 87 -186 l 87 -197 q 102 -202 87 -201 q 110 -230 105 -208 q 99 -255 104 -253 l 83 -255 q 75 -237 75 -251 l 75 -227 q 78 -224 75 -224 l 84 -224 l 90 -235 l 92 -235 q 95 -231 95 -235 l 95 -220 l 83 -220 q 72 -191 78 -220 q 83 -166 78 -166 m 123 -166 l 144 -166 q 151 -178 151 -169 l 151 -213 q 140 -226 151 -226 l 132 -226 l 132 -251 q 128 -255 132 -255 l 123 -255 q 121 -251 121 -255 l 121 -218 l 117 -213 l 117 -209 l 121 -203 l 121 -170 q 123 -166 121 -166 m 164 -166 l 190 -166 q 193 -170 193 -167 l 193 -199 l 197 -212 q 193 -222 193 -217 l 193 -251 q 190 -255 193 -255 l 184 -255 q 182 -251 182 -255 l 182 -220 l 172 -220 l 172 -251 q 169 -255 172 -255 l 164 -255 q 161 -251 161 -255 l 161 -222 l 159 -209 q 161 -199 161 -203 l 161 -170 q 164 -166 161 -166 m 210 -166 l 216 -166 q 229 -203 220 -166 l 230 -203 l 230 -170 q 233 -166 231 -166 l 239 -166 q 242 -170 242 -167 l 242 -201 q 245 -212 242 -205 q 242 -222 242 -217 l 242 -251 q 239 -255 242 -255 l 233 -255 q 219 -213 229 -255 l 218 -213 l 218 -251 q 214 -255 218 -255 l 210 -255 q 208 -251 208 -255 l 208 -224 q 203 -212 208 -218 q 208 -199 208 -205 l 208 -170 q 210 -166 208 -166 m 258 -166 l 263 -166 q 266 -170 266 -167 l 266 -201 l 269 -213 q 266 -217 266 -214 l 266 -251 q 263 -255 266 -255 l 258 -255 q 254 -251 254 -255 l 254 -217 l 251 -212 l 251 -209 l 254 -203 l 254 -170 q 258 -166 255 -166 m 286 -166 l 304 -166 q 310 -178 310 -169 l 310 -193 q 307 -197 310 -197 l 303 -197 l 296 -186 l 294 -186 q 290 -189 290 -186 l 290 -197 q 307 -202 290 -201 q 313 -226 311 -226 l 313 -231 q 309 -251 310 -235 q 300 -255 304 -255 l 290 -255 q 280 -242 280 -255 l 280 -227 q 283 -224 281 -224 l 288 -224 l 294 -235 l 298 -235 l 300 -226 q 298 -220 298 -222 l 290 -220 q 279 -195 279 -220 q 277 -189 277 -195 q 286 -166 282 -166 m 327 -166 l 333 -166 q 336 -170 336 -167 l 336 -201 l 345 -201 l 345 -170 q 349 -166 346 -166 l 353 -166 q 356 -170 356 -167 l 356 -197 q 359 -212 356 -198 l 356 -224 l 356 -251 q 353 -255 356 -255 l 349 -255 q 345 -251 345 -255 l 345 -220 l 336 -220 l 336 -251 q 333 -255 336 -255 l 327 -255 q 324 -251 324 -255 l 324 -217 l 321 -212 l 321 -209 q 324 -203 324 -205 l 324 -170 q 327 -166 325 -166 m 433 -166 l 452 -166 q 457 -178 457 -169 l 457 -203 l 460 -209 l 460 -213 l 457 -218 l 457 -240 q 450 -255 457 -250 l 437 -255 q 427 -242 427 -255 l 427 -224 q 422 -212 427 -218 q 427 -199 427 -205 l 427 -178 q 433 -166 427 -169 m 474 -166 l 480 -166 q 494 -208 484 -166 l 496 -208 l 496 -170 q 498 -166 496 -166 l 503 -166 q 506 -170 506 -167 l 506 -201 q 509 -215 506 -202 q 506 -218 506 -216 l 506 -251 q 503 -255 506 -255 l 497 -255 q 483 -212 493 -255 l 481 -212 l 481 -251 q 479 -255 481 -255 l 474 -255 q 471 -251 471 -255 l 471 -218 l 468 -213 l 468 -209 q 471 -203 471 -205 l 471 -170 q 474 -166 472 -166 m 518 -166 l 545 -166 q 549 -170 549 -167 l 549 -182 q 545 -186 549 -186 l 538 -186 l 538 -203 l 541 -209 l 541 -213 l 538 -218 l 538 -251 q 534 -255 538 -255 l 530 -255 q 528 -251 528 -255 l 528 -224 q 523 -212 528 -218 l 528 -202 l 528 -186 l 518 -186 q 515 -182 515 -186 l 515 -170 q 518 -166 515 -166 m 583 -166 q 589 -181 587 -166 l 589 -193 q 587 -197 589 -197 l 580 -197 q 578 -186 578 -197 l 570 -186 l 570 -197 q 585 -202 570 -201 q 593 -230 587 -205 q 582 -255 587 -255 l 565 -255 q 557 -226 558 -255 l 560 -224 l 567 -224 l 573 -235 l 574 -235 q 578 -231 578 -235 l 578 -220 l 565 -220 q 556 -193 560 -220 q 554 -191 554 -193 q 564 -166 560 -172 l 583 -166 m 625 -166 l 629 -166 q 632 -170 632 -167 l 632 -203 q 635 -212 635 -208 q 632 -222 632 -217 l 632 -235 l 646 -235 q 649 -238 649 -235 l 649 -251 q 646 -255 649 -255 l 625 -255 q 621 -251 621 -255 l 621 -224 q 618 -209 621 -222 l 618 -208 l 621 -202 l 621 -170 q 625 -166 622 -166 m 663 -166 l 688 -166 q 691 -170 691 -167 l 691 -199 l 694 -212 q 691 -222 691 -217 l 691 -251 q 688 -255 691 -255 l 684 -255 q 680 -251 680 -255 l 680 -220 l 670 -220 l 670 -251 q 667 -255 670 -255 l 663 -255 q 659 -251 659 -255 l 659 -222 l 656 -209 q 659 -199 659 -203 l 659 -170 q 663 -166 660 -166 m 708 -166 l 730 -166 q 736 -181 734 -166 l 736 -195 q 735 -209 736 -202 q 736 -224 736 -216 l 736 -240 q 729 -255 736 -250 l 708 -255 q 705 -251 705 -255 l 705 -217 l 702 -212 l 702 -209 q 705 -203 705 -205 l 705 -170 q 708 -166 705 -166 m 132 -186 l 132 -208 l 137 -208 q 140 -203 140 -208 l 140 -189 q 137 -186 140 -186 l 132 -186 m 172 -186 l 172 -201 l 182 -201 l 182 -186 l 172 -186 m 437 -189 l 437 -231 q 441 -235 438 -235 l 446 -235 l 447 -226 l 447 -195 l 446 -186 l 441 -186 q 437 -189 437 -186 m 670 -186 l 670 -197 q 673 -201 671 -201 l 678 -201 q 680 -197 680 -201 l 680 -186 l 670 -186 m 717 -186 l 717 -199 l 725 -199 l 725 -186 l 717 -186 m 791 -182 l 791 -183 l 795 -189 l 795 -235 l 791 -240 l 791 -243 l 808 -243 l 808 -240 l 805 -235 l 805 -205 l 806 -205 q 823 -225 808 -205 l 825 -225 q 838 -205 825 -221 l 840 -205 l 840 -235 l 837 -240 l 837 -243 l 861 -243 q 864 -240 864 -243 q 859 -235 862 -240 l 859 -189 q 864 -186 859 -186 l 864 -182 l 842 -182 q 829 -200 842 -186 l 827 -200 l 811 -182 l 791 -182 m 873 -182 l 873 -186 q 878 -189 878 -186 l 878 -235 q 873 -237 878 -237 l 873 -243 l 892 -243 l 892 -237 q 887 -235 887 -237 l 887 -205 l 888 -205 l 907 -225 q 922 -205 918 -208 l 924 -205 l 924 -235 q 919 -237 924 -237 l 919 -243 l 947 -243 l 947 -240 l 943 -235 l 943 -189 l 947 -183 l 947 -182 l 926 -182 l 911 -200 l 909 -200 l 895 -182 l 873 -182 m 955 -182 l 955 -186 q 976 -218 962 -186 q 955 -237 960 -237 l 955 -243 l 975 -243 l 974 -235 l 983 -225 q 989 -236 989 -235 q 987 -243 987 -239 l 1015 -243 q 1018 -240 1018 -243 q 996 -211 1009 -235 l 996 -207 q 1018 -186 1011 -186 l 1018 -182 l 998 -182 l 998 -183 q 1000 -189 1000 -187 l 990 -200 q 984 -186 984 -193 l 985 -186 l 985 -182 l 955 -182 m 1022 -182 l 1022 -186 q 1044 -218 1029 -186 q 1022 -237 1027 -237 l 1022 -243 l 1042 -243 l 1040 -235 l 1049 -225 q 1055 -236 1055 -235 q 1054 -243 1054 -239 l 1081 -243 q 1084 -240 1084 -243 q 1063 -211 1076 -235 l 1063 -207 q 1084 -186 1078 -186 l 1084 -182 l 1065 -182 l 1065 -183 q 1066 -189 1066 -187 l 1057 -200 q 1050 -186 1050 -193 l 1052 -186 l 1052 -182 l 1022 -182 m 1092 -182 l 1092 -186 q 1097 -189 1097 -186 l 1097 -235 l 1092 -241 l 1095 -243 l 1120 -243 l 1120 -240 l 1116 -235 l 1116 -189 l 1120 -183 l 1120 -182 l 1092 -182 m 1130 -182 l 1130 -186 q 1135 -189 1135 -186 l 1135 -235 q 1130 -237 1135 -237 l 1130 -243 l 1157 -243 l 1157 -240 l 1154 -235 l 1154 -189 q 1157 -183 1157 -184 l 1157 -182 l 1130 -182 m 717 -220 l 717 -235 l 722 -235 q 725 -231 725 -235 l 725 -220 l 717 -220 m 1170 -182 l 1170 -186 q 1174 -189 1174 -186 l 1174 -235 q 1170 -237 1174 -237 l 1170 -243 l 1197 -243 l 1197 -240 l 1194 -235 l 1194 -189 q 1197 -183 1197 -184 l 1197 -182 l 1170 -182 z "},"^":{"ha":688,"x_min":0,"x_max":0,"o":""},"_":{"ha":694,"x_min":0,"x_max":0,"o":""},"`":{"ha":694,"x_min":0,"x_max":0,"o":""},"a":{"ha":1044,"x_min":0,"x_max":1029,"o":"m 224 972 q 365 967 282 967 q 709 969 488 967 q 834 911 834 969 q 959 449 884 671 q 1029 37 1029 125 q 974 3 1029 3 q 604 5 871 3 q 574 68 574 5 l 574 149 q 524 176 574 176 q 475 107 475 176 q 435 5 475 5 q 404 3 408 3 q 150 0 199 0 q 0 29 0 0 l 0 46 q 184 867 0 75 q 224 972 194 972 m 459 395 q 530 376 459 385 q 554 388 543 376 q 530 584 530 492 l 524 596 l 519 596 q 459 395 499 596 z "},"b":{"ha":901,"x_min":0,"x_max":877,"o":"m 171 973 l 432 961 l 454 961 q 656 970 486 961 q 841 813 841 970 q 832 591 832 624 q 769 530 832 571 q 836 493 769 526 q 877 399 877 453 l 877 347 q 814 24 858 24 q 562 5 814 5 q 274 0 319 0 q 41 7 81 7 l 18 7 q 5 22 5 10 q 0 180 5 96 q 14 436 14 404 q 5 614 14 498 q 41 963 9 963 q 171 973 60 973 m 422 749 l 422 709 q 441 643 422 643 l 450 643 q 463 702 463 674 l 463 749 q 450 768 463 767 l 436 768 q 422 749 422 767 m 418 362 l 418 303 q 441 224 418 224 q 477 308 468 229 q 436 377 477 357 q 418 362 418 374 z "},"c":{"ha":916,"x_min":0,"x_max":887,"o":"m 466 973 q 774 922 720 973 q 878 717 878 840 q 873 585 873 649 l 873 557 q 846 538 873 543 q 530 534 600 536 q 511 541 511 537 l 511 545 q 457 766 511 729 l 452 766 q 430 726 436 766 q 435 618 435 661 q 425 275 435 507 q 439 200 430 208 l 466 200 q 493 412 478 222 q 584 435 518 435 q 674 437 625 437 q 887 378 887 437 l 887 329 q 783 73 887 174 q 412 0 678 0 q 41 148 119 0 q 32 218 32 184 l 32 244 q 0 555 32 313 l 0 602 q 122 903 0 804 q 466 973 244 973 z "},"d":{"ha":1004,"x_min":0,"x_max":982,"o":"m 491 977 l 541 977 q 928 880 734 977 q 977 731 977 859 q 982 610 982 691 q 967 327 982 496 q 972 261 972 298 l 972 196 q 789 20 972 58 q 665 5 726 5 l 640 5 q 407 13 611 5 l 357 13 q 50 0 281 13 q 10 20 24 0 q 5 221 5 148 l 5 465 q 0 716 5 563 q 15 932 15 842 l 15 962 l 30 972 l 99 970 q 491 977 456 977 m 456 771 q 431 281 441 771 q 446 193 431 216 l 466 193 q 506 361 506 196 l 506 399 q 496 573 506 469 q 501 721 501 678 q 466 771 501 760 l 456 771 z "},"e":{"ha":795,"x_min":0,"x_max":774,"o":"m 681 972 q 732 909 732 972 l 732 813 q 702 743 732 743 l 696 743 q 536 746 561 746 q 495 714 495 746 l 495 695 q 490 645 495 676 q 511 633 490 642 q 598 635 571 635 l 645 635 q 707 599 707 635 q 722 435 722 468 l 722 418 q 686 401 722 401 q 536 406 561 406 q 490 347 490 406 q 475 255 475 281 l 490 250 l 707 250 q 768 197 768 250 l 768 178 q 774 79 768 132 q 691 9 774 9 q 248 0 560 0 q 5 31 5 0 q 0 50 0 41 l 0 387 q 20 953 0 460 q 155 972 47 972 l 681 972 z "},"f":{"ha":732,"x_min":0,"x_max":715,"o":"m 48 983 q 715 968 715 978 l 715 966 q 706 777 715 899 q 576 759 682 759 q 452 743 452 759 l 452 649 q 509 621 452 621 q 648 623 614 623 q 672 541 672 623 l 672 534 q 667 409 672 488 q 600 393 667 393 l 485 393 q 437 368 437 393 l 437 347 q 432 299 437 313 q 456 28 437 178 q 317 5 456 5 l 67 0 q 19 20 19 5 q 24 49 19 35 q 0 945 14 696 l 0 960 q 48 983 0 981 z "},"g":{"ha":984,"x_min":0,"x_max":955,"o":"m 463 972 l 523 972 q 915 817 801 972 q 955 604 955 680 q 834 585 955 585 q 517 601 517 585 l 517 634 q 482 760 514 760 l 477 760 q 442 638 442 760 l 442 554 q 463 535 442 536 q 503 540 481 540 l 799 540 q 930 507 930 540 q 955 151 955 201 q 899 26 955 26 q 648 21 871 24 q 603 52 627 21 l 588 52 q 392 0 484 0 l 347 0 q 75 73 211 0 q 0 228 0 124 l 0 233 q 10 498 0 318 q 0 697 10 524 q 311 958 0 895 q 463 972 391 972 m 457 387 l 448 378 q 452 270 452 313 l 452 220 q 473 190 456 190 l 482 190 q 533 277 524 190 l 533 357 q 482 382 533 376 l 457 387 z "},"h":{"ha":1002,"x_min":0,"x_max":977,"o":"m 71 972 l 203 972 q 463 960 463 972 q 473 932 468 956 q 458 668 458 726 l 453 668 q 498 622 459 622 q 545 651 545 626 q 539 879 539 826 q 534 923 539 889 q 539 957 539 930 l 559 964 l 865 964 q 977 940 977 964 q 966 73 977 807 q 921 7 966 7 q 671 5 709 5 q 539 35 539 5 q 534 66 534 46 l 534 130 q 549 367 534 262 q 509 394 549 393 l 498 394 q 473 250 473 394 q 433 7 446 23 l 407 0 q 16 32 16 0 q 0 257 5 138 q 31 952 16 718 q 71 972 35 972 z "},"i":{"ha":470,"x_min":0,"x_max":439,"o":"m 104 972 l 118 972 q 307 969 219 972 q 410 972 337 972 q 439 897 435 972 q 434 639 439 769 q 439 519 434 626 q 434 360 434 387 q 439 154 439 197 q 410 5 439 5 l 391 5 q 61 0 81 0 q 9 22 9 6 q 0 584 5 503 q 19 962 5 643 q 104 972 33 972 z "},"j":{"ha":556,"x_min":0,"x_max":541,"o":"m 488 968 q 528 916 528 968 q 541 652 541 769 q 536 296 541 499 q 541 152 541 233 q 391 18 541 55 q 22 0 285 0 l 9 12 q 0 184 9 26 q 75 197 0 197 q 136 252 136 197 q 140 269 136 269 q 136 296 136 291 q 140 943 136 408 q 233 965 140 965 q 325 963 290 963 q 488 968 359 963 z "},"k":{"ha":910,"x_min":0,"x_max":887,"o":"m 113 973 l 385 961 q 403 941 403 951 l 403 871 q 398 787 403 838 q 403 778 403 783 l 408 778 q 475 912 424 786 q 552 968 511 968 q 865 944 833 968 l 865 937 q 751 704 865 922 q 706 574 706 590 q 810 291 772 458 q 887 29 810 235 l 887 20 q 838 0 887 3 q 611 7 695 7 l 570 7 q 511 56 524 7 q 430 201 444 201 q 416 181 416 199 l 416 144 q 421 41 416 98 q 394 3 415 3 q 86 0 269 3 q 5 34 5 0 l 5 313 q 0 611 5 438 l 18 895 q 14 929 14 916 q 90 970 14 970 q 113 973 98 973 z "},"l":{"ha":739,"x_min":0,"x_max":722,"o":"m 439 970 q 481 888 481 970 q 486 757 486 782 q 444 250 486 642 q 476 228 444 233 q 565 230 537 230 l 606 230 q 716 208 716 230 q 722 74 722 122 l 722 39 q 690 5 722 5 q 450 7 668 5 q 52 0 384 7 q 5 18 20 0 q 10 205 10 144 q 0 522 0 469 l 0 549 q 21 903 0 671 q 16 945 21 916 q 298 967 16 967 q 439 970 395 970 z "},"m":{"ha":1179,"x_min":0,"x_max":1152,"o":"m 54 972 q 358 969 127 972 q 467 972 440 972 q 567 763 520 972 l 576 760 l 585 760 q 626 955 594 787 q 743 972 626 970 l 1029 960 q 1120 962 1070 962 q 1138 916 1138 953 q 1133 777 1133 800 l 1152 542 q 1147 66 1147 166 q 1152 39 1152 44 q 1020 24 1152 24 q 829 22 864 22 q 798 218 798 22 l 798 335 q 802 422 798 368 q 793 457 797 426 l 785 457 q 712 61 766 392 q 662 5 705 5 q 621 3 645 3 l 494 3 q 449 129 463 3 q 358 430 380 430 l 349 420 q 353 95 353 191 q 349 9 353 73 q 317 0 329 0 q 27 24 27 18 l 22 29 l 22 34 q 32 352 22 113 q 0 860 32 474 q 41 969 0 969 q 54 972 50 972 z "},"n":{"ha":968,"x_min":0,"x_max":943,"o":"m 81 975 l 92 975 q 391 960 391 975 q 512 758 430 912 l 517 758 q 532 777 532 759 l 532 795 q 558 968 532 968 q 589 972 578 972 q 776 968 745 968 q 913 972 789 968 q 933 951 928 964 q 928 827 928 851 q 939 532 928 698 q 933 267 933 379 q 943 18 933 192 q 892 7 922 7 q 568 0 839 7 q 456 168 483 0 q 395 309 412 309 q 380 282 380 309 l 380 230 q 391 18 380 81 q 365 5 391 11 q 41 7 155 7 l 35 7 q 20 22 20 10 q 0 468 0 229 l 0 470 q 31 960 0 593 q 81 975 31 973 z "},"o":{"ha":1050,"x_min":0,"x_max":1029,"o":"m 517 993 l 574 993 q 977 871 841 993 q 1029 547 998 871 l 1029 488 q 920 126 1029 177 q 621 14 811 49 q 460 0 496 0 q 93 136 244 0 q 0 495 0 223 q 98 867 0 712 q 362 979 178 946 q 517 993 433 993 m 481 777 q 460 722 460 752 l 460 559 q 496 202 479 202 q 522 191 517 191 l 538 191 q 553 197 542 191 q 528 412 532 314 l 548 654 l 548 684 q 501 777 548 755 l 481 777 z "},"p":{"ha":791,"x_min":0,"x_max":770,"o":"m 245 972 q 659 911 592 972 q 770 678 770 842 l 770 654 q 703 420 770 445 q 561 372 680 394 q 422 355 422 362 q 418 345 422 353 q 427 221 422 246 l 418 20 q 374 0 406 0 q 18 5 43 5 q 5 22 5 14 q 9 58 5 52 q 5 131 5 107 q 9 318 5 272 q 0 945 5 495 q 218 972 0 972 l 245 972 m 418 746 l 414 734 l 414 600 l 418 588 l 431 588 q 467 663 467 606 l 467 678 q 431 746 467 728 l 418 746 z "},"q":{"ha":1095,"x_min":-2,"x_max":1068,"o":"m 633 985 q 969 878 782 985 q 1063 638 1063 835 q 1068 528 1063 609 q 1019 136 1054 136 q 848 45 983 85 q 804 33 828 45 l 804 20 q 1019 5 831 10 q 1063 -35 1063 -3 l 1063 -98 q 953 -153 1063 -153 q 831 -156 889 -156 l 715 -156 q 494 -123 526 -156 q 439 -23 471 -123 q 313 -10 439 -12 q 86 71 155 14 q 9 382 37 91 q -2 485 -2 427 q 70 832 24 832 q 633 985 220 985 m 528 734 q 506 636 511 713 q 517 264 517 430 l 517 224 q 544 178 517 184 q 555 193 555 186 l 555 249 q 550 382 555 357 q 555 538 555 450 l 555 711 q 544 734 555 718 l 528 734 z "},"r":{"ha":888,"x_min":0,"x_max":863,"o":"m 306 973 q 777 868 672 973 q 854 667 854 783 q 735 505 854 523 q 717 495 728 505 q 763 473 718 490 q 863 111 863 443 q 859 35 859 46 q 772 3 836 3 q 612 0 653 0 q 484 20 484 0 q 475 76 479 30 q 479 307 479 254 q 443 404 479 398 q 416 372 423 404 q 420 29 420 112 q 389 7 420 16 q 96 9 199 9 l 64 9 q 0 41 0 13 q 27 696 17 197 q 23 919 23 769 l 23 951 q 137 973 23 973 l 306 973 m 429 728 l 425 711 l 425 633 l 429 620 l 443 620 q 461 677 461 650 q 443 728 461 701 l 429 728 z "},"s":{"ha":791,"x_min":0,"x_max":768,"o":"m 404 991 q 676 906 578 991 q 712 671 712 906 q 652 661 712 661 l 556 661 q 385 688 385 661 l 368 758 l 360 758 q 348 739 348 756 l 348 729 q 500 600 348 667 q 724 431 706 486 q 768 248 768 353 q 480 1 768 85 q 340 -14 410 -14 q 56 91 126 -14 q 0 321 0 191 q 60 368 0 368 l 116 368 q 348 351 348 368 l 348 348 q 340 290 348 345 q 380 205 352 212 l 396 205 q 428 263 428 223 q 156 491 428 357 q 12 724 12 578 l 12 770 q 404 991 12 991 z "},"t":{"ha":916,"x_min":0,"x_max":892,"o":"m 788 979 q 888 945 888 979 q 892 924 888 937 q 888 853 888 884 q 892 778 888 830 q 694 758 892 758 q 654 741 654 752 q 659 697 654 726 l 644 469 q 680 51 680 79 l 680 46 q 570 5 680 5 q 347 0 383 0 q 198 39 198 0 q 189 138 189 104 q 208 720 189 299 q 79 739 208 739 q 5 753 20 739 q 10 819 10 798 l 10 863 q 0 945 10 895 q 154 972 0 972 q 788 979 352 977 z "},"u":{"ha":982,"x_min":0,"x_max":964,"o":"m 831 973 l 847 973 q 939 916 939 973 q 964 667 964 764 q 924 184 964 184 q 709 26 844 61 q 485 0 630 0 q 77 117 176 0 q 0 340 0 208 l 41 951 q 61 956 54 956 q 347 966 309 966 q 439 901 439 966 q 444 853 444 875 q 434 273 434 448 q 465 206 434 206 q 505 547 505 206 q 500 748 505 622 q 520 949 520 926 q 546 964 528 959 l 562 964 l 831 973 z "},"v":{"ha":987,"x_min":0,"x_max":972,"o":"m 287 983 q 408 964 408 983 q 477 495 455 554 l 486 495 q 551 909 500 537 q 597 964 562 964 q 741 959 710 959 q 945 961 924 961 q 972 949 964 958 q 829 165 903 430 q 755 17 786 17 q 667 0 738 0 q 180 30 180 18 q 88 530 155 30 q 0 961 0 920 q 203 983 0 983 l 287 983 z "},"w":{"ha":1377,"x_min":0,"x_max":1358,"o":"m 35 979 l 103 979 q 357 975 331 975 l 361 975 q 408 796 389 975 l 408 769 q 404 616 408 718 l 399 611 q 408 581 404 608 l 417 581 q 473 944 434 646 q 541 975 473 972 q 825 979 600 975 q 872 882 862 979 q 924 646 911 646 l 928 646 q 975 919 941 661 q 1048 957 975 957 q 1143 959 1067 959 l 1177 959 q 1358 932 1358 959 l 1358 929 q 1199 170 1358 814 l 1173 18 q 1147 7 1160 7 q 1010 12 1044 12 q 773 10 973 12 q 696 191 722 71 q 679 220 690 220 q 585 28 662 210 q 417 3 585 3 q 258 0 328 0 q 163 73 163 0 l 52 624 q 0 954 52 685 l 0 967 q 35 979 11 979 z "},"x":{"ha":916,"x_min":0,"x_max":903,"o":"m 342 981 q 424 821 389 981 q 442 781 427 821 l 460 781 q 538 969 500 969 l 579 969 q 825 971 667 969 q 866 949 866 966 l 866 944 q 730 556 866 879 q 871 104 825 228 q 903 20 903 52 q 825 0 890 0 l 784 0 q 534 27 534 0 q 469 222 484 197 l 465 222 q 419 52 450 222 q 337 7 401 7 q 205 5 305 7 q 0 30 0 5 l 0 39 q 141 534 0 125 l 141 541 l 23 951 q 196 974 23 974 q 342 981 281 981 z "},"y":{"ha":836,"x_min":0,"x_max":821,"o":"m 511 973 q 808 968 677 968 l 821 958 l 821 948 q 716 673 821 937 l 578 349 q 574 304 574 332 l 574 89 q 578 30 574 64 q 452 0 578 0 l 306 0 q 243 22 243 0 l 239 22 l 243 47 q 239 161 243 92 q 243 332 243 264 q 159 520 243 345 q 0 931 92 659 l 0 936 q 38 954 5 954 l 71 954 q 322 936 322 954 q 389 723 339 900 l 397 723 q 448 882 411 723 q 511 973 471 973 z "},"z":{"ha":783,"x_min":0,"x_max":760,"o":"m 263 975 q 531 970 369 970 q 711 972 555 970 q 751 885 751 972 q 682 588 751 687 l 492 241 l 492 236 q 512 231 512 234 l 536 234 l 566 234 q 736 203 736 234 q 760 28 736 197 q 731 10 760 16 q 492 15 589 15 l 87 0 l 83 0 q 0 30 0 0 l 0 171 q 117 417 0 257 q 278 732 171 503 q 112 749 278 749 q 49 777 49 758 l 49 887 q 44 962 49 912 q 263 975 44 970 z "},"{":{"ha":1280,"x_min":61,"x_max":1226,"o":"m 771 1139 q 891 1124 810 1142 q 987 968 979 1051 l 989 947 q 987 913 991 925 q 964 831 962 846 q 970 816 964 823 q 964 800 970 810 q 949 767 964 786 q 943 707 947 720 q 885 519 884 580 l 885 517 l 886 517 q 1019 427 1007 426 q 1101 358 1033 429 q 1166 204 1161 255 l 1166 203 q 1044 135 1131 170 q 890 92 985 109 q 782 70 792 71 q 705 71 772 69 q 664 64 668 64 l 654 63 q 639 66 647 62 q 617 58 624 58 q 549 67 610 57 q 507 57 534 60 q 459 56 488 56 q 357 92 419 57 q 300 105 301 94 l 289 102 q 194 128 250 99 q 102 201 104 174 l 100 212 q 118 245 100 220 q 138 346 136 257 q 155 405 135 380 q 178 459 167 448 q 268 538 241 510 q 391 599 391 585 q 450 625 401 621 q 491 662 484 628 q 535 711 535 707 q 563 768 558 764 q 547 800 549 781 l 547 803 l 551 847 l 550 852 q 541 887 550 857 q 575 934 545 931 l 583 935 q 599 932 591 936 q 610 997 597 951 q 762 1138 654 1128 l 771 1139 m 950 980 q 939 1027 949 998 q 795 1118 899 1127 q 666 1059 725 1111 q 616 944 629 1017 q 612 872 622 878 q 593 884 606 871 l 589 884 q 574 876 585 884 q 566 883 570 876 q 591 903 565 898 l 594 901 l 594 903 q 578 909 590 910 q 559 890 557 907 q 567 854 567 856 l 568 847 q 570 810 569 832 q 577 795 574 795 l 579 795 q 627 869 608 844 l 629 869 q 637 855 633 869 l 637 854 q 632 830 638 848 q 619 745 619 820 l 620 744 q 640 730 639 738 q 640 705 640 714 l 641 698 l 656 686 q 682 673 682 684 l 684 658 q 681 637 685 645 l 683 637 q 738 702 701 648 q 743 698 743 700 l 743 694 q 741 682 743 693 l 755 683 l 755 684 q 747 701 751 688 q 768 736 745 725 q 789 722 781 737 q 770 711 790 714 l 770 709 q 787 699 771 697 q 816 675 808 701 q 831 677 822 675 q 840 726 845 679 l 837 767 q 861 810 838 808 q 906 827 899 826 l 916 828 q 952 958 959 884 l 950 980 m 755 1097 q 768 1088 764 1097 q 758 1076 769 1078 q 745 1088 745 1075 l 744 1089 q 750 1096 747 1096 l 755 1097 m 725 1092 q 732 1082 732 1090 l 732 1080 q 721 1072 729 1072 l 720 1072 q 711 1083 711 1074 l 710 1084 q 716 1091 713 1091 l 725 1092 m 693 1070 q 700 1060 699 1068 q 688 1043 699 1044 l 684 1043 q 679 1048 682 1042 q 691 1070 677 1069 l 693 1070 m 731 1061 q 739 1051 738 1059 q 728 1041 735 1044 q 718 1049 723 1040 q 730 1061 718 1059 l 731 1061 m 663 1042 q 674 1033 673 1044 q 661 1022 669 1023 q 653 1026 653 1023 l 653 1027 q 663 1042 652 1037 m 706 1045 q 715 1035 714 1041 q 705 1023 716 1024 l 702 1023 q 696 1031 697 1023 l 696 1039 q 705 1045 695 1043 l 706 1045 m 672 1021 q 687 1013 681 1022 l 688 1008 q 673 1001 688 1004 q 667 1012 669 1001 q 672 1021 667 1018 m 734 1023 q 742 1015 738 1022 q 728 997 743 1003 q 718 1002 718 999 l 717 1011 q 734 1023 722 1021 m 657 1001 q 662 997 662 999 l 663 991 q 650 980 658 981 q 642 987 646 981 q 648 1000 643 1000 l 657 1001 m 681 992 q 693 986 690 994 q 681 975 694 979 l 675 979 q 680 992 675 992 l 681 992 m 642 975 q 649 966 648 972 q 637 951 650 954 l 635 951 q 628 956 629 954 l 627 964 q 641 975 632 974 l 642 975 m 701 976 q 712 962 711 971 l 713 956 q 701 947 709 948 q 692 962 693 950 q 699 975 691 970 l 701 976 m 662 964 q 674 953 671 965 q 664 943 674 950 l 659 942 q 654 946 654 944 l 653 956 q 662 964 656 962 m 640 937 q 650 927 648 938 l 650 921 q 639 907 652 908 l 636 907 q 629 914 633 907 q 640 937 627 931 m 722 926 l 731 926 q 798 892 796 918 l 799 890 q 796 887 799 888 l 785 886 q 730 907 742 909 l 728 907 q 701 896 705 896 q 694 903 698 896 q 722 926 700 924 m 869 908 q 878 898 874 907 q 874 885 878 897 q 892 868 891 876 l 892 865 q 888 860 890 860 l 886 859 q 865 865 882 859 l 864 865 q 842 823 856 824 q 833 827 835 822 l 832 833 q 844 873 831 838 q 824 885 825 879 q 829 894 824 890 l 833 894 q 852 891 838 895 q 867 908 857 907 l 869 908 m 720 895 q 799 854 762 898 q 797 842 800 848 q 818 803 816 827 q 794 757 817 759 q 787 761 787 756 l 787 763 q 793 783 793 781 l 793 785 q 741 760 770 763 l 732 760 q 711 760 722 758 q 680 797 683 769 l 680 798 q 693 810 683 805 q 703 794 701 811 q 735 780 709 777 l 743 781 q 758 787 749 781 l 758 788 q 696 844 699 812 l 696 846 q 722 854 710 852 l 761 857 l 761 859 q 753 861 753 858 q 688 866 689 857 q 718 894 686 884 l 720 895 m 591 865 l 596 863 q 580 820 592 821 q 573 823 577 820 q 589 865 570 857 l 591 865 m 743 840 l 727 837 l 727 836 q 741 819 728 819 l 741 826 q 744 837 740 831 l 743 840 m 782 820 q 771 835 776 836 l 770 835 l 770 829 q 759 810 770 821 q 779 814 779 814 q 782 820 781 814 m 661 790 q 666 781 665 791 l 668 766 q 706 726 704 749 l 706 722 q 703 702 707 710 q 696 703 699 701 q 683 724 690 702 q 648 766 648 758 l 647 770 q 658 790 646 780 l 661 790 m 894 790 l 879 789 l 879 785 l 888 777 q 895 788 891 778 l 894 790 m 920 781 q 917 778 917 781 l 918 770 q 927 774 924 774 l 920 781 m 925 746 q 880 759 899 743 l 877 758 q 904 734 877 754 l 905 730 q 899 723 901 723 l 894 722 q 869 732 873 733 q 864 710 865 732 q 844 666 868 669 l 844 665 q 869 615 869 625 q 925 746 925 702 m 549 690 q 498 620 519 650 q 530 603 516 602 q 550 688 545 675 l 549 690 m 624 679 q 618 686 623 686 l 611 686 q 607 675 606 684 l 608 668 q 612 663 608 667 q 624 679 623 665 m 654 641 q 646 656 651 656 l 645 656 q 637 637 640 655 q 649 633 640 631 l 650 633 q 654 641 653 633 m 772 650 q 760 660 771 661 q 751 648 749 659 q 767 640 751 640 q 772 650 773 644 m 522 575 q 457 606 498 609 q 422 589 422 596 q 425 583 422 586 q 468 524 465 551 l 469 513 q 463 498 467 498 l 456 502 q 406 553 424 545 q 308 526 349 549 l 308 524 q 357 436 353 477 q 351 401 359 416 q 338 414 348 401 q 313 476 319 467 q 269 503 311 493 q 267 490 269 500 q 213 437 259 475 q 280 319 218 378 l 281 310 q 276 297 281 304 q 245 324 262 298 q 186 424 189 387 q 180 368 175 422 l 174 286 q 180 251 174 285 l 180 245 q 176 229 181 235 q 160 248 164 227 l 159 258 q 130 202 128 217 q 168 163 131 191 q 289 123 253 120 l 294 123 q 281 151 293 127 q 203 281 206 252 q 216 304 201 303 q 226 293 221 302 q 254 247 247 269 q 330 113 326 138 q 375 106 349 115 q 484 77 435 73 l 519 80 l 528 83 l 527 84 l 526 87 q 496 114 500 104 q 455 204 492 153 q 417 277 431 264 q 390 300 391 291 l 397 310 q 411 308 409 308 q 464 264 442 297 q 558 102 493 205 q 608 92 562 99 q 609 96 608 93 q 563 305 608 115 q 575 344 561 328 q 589 336 583 345 q 637 99 621 150 q 671 83 639 80 q 704 104 696 85 l 703 122 q 701 266 703 252 l 701 269 l 690 311 q 691 325 689 319 l 693 325 q 730 242 724 309 l 732 104 l 732 100 q 777 96 733 94 l 786 97 q 794 111 791 100 q 819 212 806 210 l 825 212 q 837 194 836 208 q 827 104 838 173 l 828 102 q 950 137 951 122 q 959 189 955 138 q 977 295 962 294 l 984 296 q 989 290 986 296 l 988 280 q 996 215 994 231 q 996 178 998 199 l 998 178 q 1031 217 1029 216 q 1044 202 1043 211 l 1044 198 q 1015 156 1046 184 l 1026 157 q 1131 205 1057 160 q 1127 215 1128 212 q 1072 264 1126 226 l 1071 266 q 1080 271 1071 270 l 1083 272 q 1109 260 1090 273 q 1101 291 1109 265 q 976 428 1065 375 l 975 428 l 981 378 q 979 336 983 355 l 975 336 q 954 380 966 334 q 875 488 951 414 q 871 476 873 476 q 863 404 869 404 q 850 408 859 403 l 826 444 q 804 359 817 360 l 802 359 q 783 399 790 357 l 779 394 q 763 345 769 352 l 762 345 q 745 381 753 348 l 743 381 q 730 336 738 337 l 728 336 l 721 342 q 701 412 708 412 l 699 412 q 686 346 692 353 l 678 350 q 640 401 647 395 l 639 401 q 633 382 638 382 l 631 382 q 623 391 629 382 l 604 453 l 600 450 q 561 366 571 378 q 551 379 556 366 q 552 390 551 384 q 560 441 561 433 l 559 444 l 558 444 q 545 430 549 431 q 536 439 537 433 q 536 458 536 441 l 536 459 l 535 459 l 532 457 q 503 425 513 426 q 498 429 498 427 l 498 435 q 503 450 497 442 q 522 575 511 549 m 585 609 l 579 609 q 567 584 566 599 l 568 578 l 571 578 q 589 600 585 580 q 585 609 585 607 m 784 612 q 739 619 777 612 l 733 618 l 733 616 q 739 612 736 612 q 760 605 747 604 q 817 591 806 591 l 826 593 l 825 595 q 791 613 799 605 l 784 612 m 694 571 q 686 581 693 579 l 684 581 q 672 567 671 580 l 672 564 q 682 557 675 559 q 694 571 694 566 m 768 547 q 762 555 767 554 l 756 555 q 748 540 747 548 l 752 531 l 753 531 q 768 545 769 532 l 768 547 m 820 545 q 812 558 819 557 l 809 558 q 799 551 801 557 l 800 545 q 807 533 803 532 l 808 533 q 820 545 818 534 m 609 535 l 604 534 q 588 492 587 511 l 591 492 q 612 524 610 494 l 612 527 l 609 535 m 734 509 q 726 519 733 517 l 720 519 q 713 502 715 518 q 721 494 713 495 q 734 509 733 494 m 692 503 q 685 513 688 514 q 671 492 672 513 q 673 483 673 484 l 682 484 q 692 503 688 484 m 776 509 l 773 509 q 758 488 760 508 q 762 479 760 488 l 765 479 q 780 500 778 480 q 776 509 777 507 m 738 451 q 726 461 733 462 q 715 444 713 455 q 725 434 715 436 q 738 451 736 435 m 672 445 q 667 454 671 453 l 661 454 q 655 442 654 450 l 656 437 q 661 429 656 429 l 663 429 q 673 442 674 429 l 672 445 m 454 436 q 482 348 467 437 q 503 315 503 319 q 499 304 503 310 q 444 404 450 342 q 448 435 444 435 l 454 436 m 911 382 q 918 377 918 380 l 922 341 q 916 253 925 307 q 889 185 905 186 q 881 201 885 184 q 882 216 881 207 q 897 350 899 331 l 896 367 q 907 382 904 382 l 911 382 m 67 229 q 77 195 72 229 l 78 195 q 84 214 80 214 q 92 144 89 214 q 102 -31 102 40 l 103 -31 q 111 56 111 32 l 111 60 q 114 64 111 64 q 122 48 118 64 l 123 48 q 127 64 123 64 q 146 6 132 64 l 149 6 l 149 9 q 146 95 146 63 q 145 115 145 114 l 149 117 q 153 109 153 117 l 155 109 q 158 115 155 115 q 164 102 162 115 l 165 102 l 165 118 q 169 121 166 121 q 184 -28 178 121 q 192 -114 186 -28 l 189 -116 q 186 -108 186 -112 l 184 -108 q 181 -114 184 -114 q 178 -111 181 -111 q 174 -119 177 -119 q 165 -109 168 -109 q 153 -81 158 -109 q 144 -66 146 -81 l 140 -67 q 130 -35 136 -67 l 128 -35 l 128 -38 q 127 -132 128 -51 q 120 -150 125 -150 q 114 -127 114 -150 l 113 -127 q 111 -144 113 -133 l 108 -144 q 103 -132 103 -143 l 102 -132 q 97 -149 102 -149 l 96 -149 q 91 -138 92 -149 l 89 -138 q 84 -150 89 -150 q 69 -50 74 -143 q 64 156 64 43 q 61 205 61 197 l 61 210 q 67 229 61 229 m 1202 212 l 1207 212 q 1212 191 1212 195 l 1213 191 q 1217 201 1213 201 q 1226 102 1226 158 l 1223 101 q 1219 104 1223 104 q 1213 78 1216 101 l 1212 78 q 1206 111 1208 78 l 1204 111 q 1201 98 1204 98 q 1192 159 1198 106 l 1190 159 q 1188 125 1188 136 l 1188 120 l 1201 62 q 1221 -19 1207 62 l 1221 -20 q 1217 -89 1219 -67 l 1212 -89 l 1212 -67 l 1211 -67 q 1193 -128 1202 -102 l 1188 -128 q 1187 -109 1187 -117 q 1175 -133 1182 -112 l 1173 -133 l 1171 -130 l 1171 -104 l 1170 -104 q 1164 -120 1168 -120 q 1160 -87 1160 -112 l 1160 -86 q 1157 -83 1160 -83 q 1159 -28 1159 -46 l 1159 -20 q 1157 12 1159 -8 q 1164 23 1160 23 q 1165 22 1164 22 q 1168 26 1165 26 q 1171 6 1171 21 q 1177 18 1173 6 l 1179 18 q 1182 4 1182 13 q 1181 -39 1182 -12 q 1184 -56 1184 -53 l 1185 -56 q 1190 -30 1185 -30 q 1195 -35 1190 -32 q 1196 -22 1195 -24 q 1168 66 1190 2 l 1168 73 q 1173 76 1173 75 q 1154 160 1154 149 q 1157 163 1155 163 l 1162 160 q 1170 185 1164 185 q 1171 184 1170 184 q 1179 199 1171 197 l 1181 207 l 1185 207 q 1187 201 1185 206 l 1188 201 l 1188 205 l 1196 204 q 1202 212 1202 209 m 1128 132 q 1140 121 1140 130 q 1146 118 1146 121 l 1146 117 l 1145 113 q 1156 109 1156 113 q 1099 76 1145 98 l 1101 58 q 1099 42 1099 44 q 1122 48 1105 42 q 1133 34 1123 40 l 1133 33 l 1129 28 q 1141 24 1141 28 q 1098 -2 1114 1 l 1098 -14 q 1088 -52 1093 -25 l 1092 -58 q 1090 -75 1090 -68 l 1134 -61 l 1135 -61 q 1139 -64 1139 -62 l 1134 -72 l 1134 -73 l 1137 -72 l 1140 -72 q 1143 -75 1143 -73 l 1134 -89 l 1135 -89 l 1145 -87 l 1146 -91 l 1146 -92 q 1076 -132 1146 -94 q 1059 -96 1059 -132 q 1062 -73 1062 -79 q 1059 -58 1059 -73 l 1055 -61 l 1053 -58 l 1053 -56 q 1063 43 1063 -1 q 1061 58 1061 43 l 1057 56 q 1053 62 1055 56 q 1076 113 1059 113 q 1128 132 1114 132 m 264 82 q 269 58 269 82 l 269 54 l 276 56 q 279 45 279 52 q 284 48 280 45 l 286 48 q 298 -35 293 48 q 283 -122 294 -96 l 270 -134 l 269 -134 q 262 -125 262 -132 l 250 -144 q 243 -128 245 -144 q 239 -132 239 -132 l 237 -132 q 236 -130 236 -132 l 233 -132 l 228 -132 q 203 -25 214 -132 q 211 4 203 1 l 214 3 q 240 66 221 51 l 245 64 q 258 73 258 71 q 264 82 260 82 m 951 73 l 953 70 l 950 59 l 955 59 l 962 65 q 977 42 965 65 q 973 28 973 32 q 981 23 981 28 q 958 -16 972 5 l 958 -19 q 989 -104 989 -74 l 985 -104 q 983 -98 983 -104 l 979 -98 l 979 -111 q 977 -114 979 -114 q 972 -103 972 -113 l 968 -103 q 966 -109 968 -109 q 956 -71 961 -109 q 935 -41 935 -45 l 932 -41 l 932 -120 q 930 -123 932 -123 q 928 -119 928 -121 l 925 -120 q 922 -116 922 -120 q 914 -125 916 -125 q 911 -122 914 -122 q 908 -125 911 -125 l 905 -125 l 900 -64 q 905 23 902 -10 q 889 33 889 29 l 889 34 l 892 39 q 888 43 890 39 l 888 47 q 903 51 888 50 q 951 73 928 60 m 445 59 q 476 14 468 59 l 476 -3 q 465 -61 469 -56 q 454 -80 461 -80 q 406 -142 438 -121 q 399 -149 406 -144 l 398 -149 q 393 -139 393 -147 l 393 -132 q 385 -113 385 -132 l 385 -109 l 391 -103 l 391 -80 q 385 -77 385 -80 l 385 -73 q 391 -39 387 -39 q 393 -50 393 -41 l 395 -50 q 398 -20 398 -38 l 398 -3 l 399 12 l 396 11 l 395 11 q 391 17 391 11 l 384 16 l 382 18 q 412 54 397 54 q 445 59 427 59 m 734 56 l 736 53 q 726 42 736 52 l 727 42 l 736 43 l 738 40 q 734 37 734 40 l 736 37 l 744 39 l 745 35 l 707 7 q 702 -138 703 -37 l 699 -139 q 697 -133 697 -136 l 696 -133 l 692 -134 q 690 -122 690 -132 l 688 -122 q 685 -140 685 -138 l 680 -140 l 679 -133 l 679 -116 q 680 -78 679 -90 q 679 -47 679 -64 q 682 -7 679 -28 l 680 -7 q 652 -16 675 -10 q 650 -14 652 -14 l 650 -39 q 648 -119 648 -111 l 644 -120 q 638 -104 640 -120 l 636 -104 q 616 -139 629 -139 q 612 -133 614 -133 l 602 -147 q 594 -132 598 -147 l 589 -134 q 578 -58 582 -134 q 581 -38 578 -45 q 578 -8 578 -22 l 578 20 q 588 50 585 50 l 589 50 q 593 47 593 49 l 593 37 q 597 26 597 37 l 604 33 l 607 33 q 605 -2 607 26 q 607 -8 605 -5 q 605 -85 605 -8 l 610 -87 q 613 -85 610 -85 l 616 -86 q 619 -49 619 -64 q 618 17 619 -37 q 619 50 619 37 q 624 53 620 50 q 625 48 625 50 l 627 48 q 629 54 629 54 l 632 54 q 636 42 636 54 l 638 42 q 641 53 638 53 q 649 12 646 47 l 650 12 q 659 16 656 16 l 656 18 q 734 56 684 35 m 808 56 l 808 53 q 799 42 799 43 l 806 43 q 810 40 810 43 l 808 37 l 810 37 q 861 56 842 56 l 864 56 q 870 48 868 48 q 881 40 876 41 l 881 39 q 838 14 880 33 l 839 -2 l 839 -14 l 854 -9 q 863 -20 854 -12 l 863 -22 l 861 -25 q 870 -28 870 -25 q 836 -49 844 -49 l 836 -62 q 830 -85 830 -73 l 831 -98 q 830 -104 830 -101 l 831 -104 q 865 -94 834 -104 q 867 -98 867 -97 l 867 -103 q 872 -106 872 -103 l 865 -114 l 865 -116 q 875 -119 875 -116 q 819 -150 873 -121 q 806 -123 806 -150 q 808 -104 806 -121 q 805 -102 805 -104 l 806 -92 l 803 -94 l 800 -94 q 810 -13 810 -47 q 805 -3 808 -13 q 802 0 802 -3 l 802 1 q 805 24 802 10 q 779 -2 779 13 q 775 -138 775 -66 l 772 -139 q 769 -132 769 -135 l 764 -134 q 763 -123 763 -132 q 756 -140 760 -123 l 752 -140 q 750 -120 752 -125 q 752 -69 752 -92 l 752 -35 q 755 -7 752 -14 l 753 -7 q 726 -16 751 -8 l 724 -13 l 730 -5 q 719 -2 719 -5 q 730 6 719 2 l 730 7 l 728 7 l 719 6 l 718 9 q 734 23 727 12 q 808 56 804 56 m 351 54 q 354 45 354 50 l 354 29 l 357 31 l 359 31 q 363 23 363 31 l 367 24 l 368 24 q 378 -42 374 24 q 356 -136 378 -117 l 354 -136 q 349 -128 351 -136 q 338 -144 340 -144 q 336 -132 336 -139 l 332 -133 l 331 -133 q 329 -132 329 -133 l 326 -133 l 323 -133 q 302 -33 309 -133 q 311 -13 302 -16 q 332 40 318 30 l 334 40 l 337 39 q 351 54 345 45 m 535 54 l 540 54 q 563 24 560 54 q 565 0 565 16 l 565 -5 q 562 -8 565 -8 l 558 -7 q 554 -12 558 -9 q 546 -2 551 -12 q 541 -3 543 -3 q 536 18 538 0 q 532 24 534 18 q 534 29 534 28 l 534 31 l 532 31 q 512 -56 513 -14 l 512 -64 q 524 -103 512 -98 l 529 -103 q 547 -58 533 -103 l 551 -56 l 558 -56 q 563 -67 563 -58 l 565 -67 q 570 -60 566 -60 q 574 -78 573 -60 q 549 -127 559 -127 q 532 -139 536 -127 l 529 -140 l 526 -140 l 519 -134 l 516 -136 q 481 -75 507 -136 l 481 -72 q 488 -28 481 -28 l 487 -13 q 529 53 487 25 q 535 54 532 54 m 931 35 q 932 29 931 35 q 930 7 930 26 l 932 7 l 932 -2 q 939 -5 935 -2 l 941 -5 l 950 29 q 937 24 942 24 q 935 34 935 30 l 936 42 q 931 35 933 42 m 431 26 l 429 18 l 429 16 q 420 -77 429 2 l 420 -78 l 421 -78 q 432 -60 428 -60 l 435 -61 q 445 -26 435 -54 l 445 -20 q 443 -16 445 -16 l 445 -8 l 445 23 l 443 23 q 437 14 443 17 q 432 26 433 14 l 431 26 m 245 18 q 239 -44 240 -4 q 240 -86 240 -63 l 240 -87 l 242 -87 q 248 -71 245 -71 l 252 -71 l 253 -77 l 256 -75 l 258 -75 l 260 -77 l 262 -61 l 262 -33 q 264 -12 262 -24 q 258 11 260 11 q 253 1 258 3 q 247 18 249 1 l 245 18 m 649 6 l 649 1 q 656 7 656 5 l 654 7 q 649 6 650 6 m 336 -2 q 331 -58 332 -23 q 332 -94 332 -75 l 334 -94 q 340 -78 335 -78 q 342 -85 342 -81 l 345 -83 l 348 -85 l 349 -73 l 349 -26 l 348 -8 l 347 -8 q 342 -16 345 -16 q 337 -2 338 -16 l 336 -2 m 649 -5 l 649 -13 q 659 -7 655 -7 l 659 -5 l 649 -5 m 1023 -91 q 1028 -100 1025 -91 q 1032 -98 1031 -98 q 1034 -103 1034 -102 q 1032 -108 1032 -106 q 1044 -103 1040 -103 l 1045 -106 l 1045 -109 q 1025 -145 1043 -123 q 1021 -140 1021 -145 l 1015 -145 q 1014 -138 1014 -142 l 1006 -142 q 1003 -138 1003 -142 q 1004 -133 1004 -134 l 1000 -136 l 995 -136 q 1019 -96 1008 -96 q 1023 -91 1019 -93 m 758 -163 l 1206 -163 q 1210 -166 1210 -163 l 1210 -258 q 1206 -262 1210 -262 l 758 -262 q 755 -258 755 -262 l 755 -166 q 758 -163 755 -163 m 389 -164 l 413 -164 q 416 -168 416 -165 l 416 -182 q 413 -186 416 -186 l 398 -186 l 398 -201 l 409 -201 q 412 -203 412 -201 l 412 -217 q 409 -220 412 -220 l 398 -220 l 398 -251 q 395 -255 398 -255 l 389 -255 q 386 -251 386 -255 l 386 -217 l 382 -212 l 382 -209 q 386 -203 386 -205 l 386 -168 q 389 -164 387 -164 m 83 -166 l 99 -166 q 107 -189 107 -169 l 107 -193 q 104 -197 107 -197 l 98 -197 q 95 -186 95 -197 l 87 -186 l 87 -197 q 102 -202 87 -201 q 110 -230 105 -208 q 99 -255 104 -253 l 83 -255 q 75 -237 75 -251 l 75 -227 q 78 -224 75 -224 l 84 -224 l 90 -235 l 92 -235 q 95 -231 95 -235 l 95 -220 l 83 -220 q 72 -191 78 -220 q 83 -166 78 -166 m 123 -166 l 144 -166 q 151 -178 151 -169 l 151 -213 q 140 -226 151 -226 l 132 -226 l 132 -251 q 128 -255 132 -255 l 123 -255 q 121 -251 121 -255 l 121 -218 l 117 -213 l 117 -209 l 121 -203 l 121 -170 q 123 -166 121 -166 m 164 -166 l 190 -166 q 193 -170 193 -167 l 193 -199 l 197 -212 q 193 -222 193 -217 l 193 -251 q 190 -255 193 -255 l 184 -255 q 182 -251 182 -255 l 182 -220 l 172 -220 l 172 -251 q 169 -255 172 -255 l 164 -255 q 161 -251 161 -255 l 161 -222 l 159 -209 q 161 -199 161 -203 l 161 -170 q 164 -166 161 -166 m 210 -166 l 216 -166 q 229 -203 220 -166 l 230 -203 l 230 -170 q 233 -166 231 -166 l 239 -166 q 242 -170 242 -167 l 242 -201 q 245 -212 242 -205 q 242 -222 242 -217 l 242 -251 q 239 -255 242 -255 l 233 -255 q 219 -213 229 -255 l 218 -213 l 218 -251 q 214 -255 218 -255 l 210 -255 q 208 -251 208 -255 l 208 -224 q 203 -212 208 -218 q 208 -199 208 -205 l 208 -170 q 210 -166 208 -166 m 258 -166 l 263 -166 q 266 -170 266 -167 l 266 -201 l 269 -213 q 266 -217 266 -214 l 266 -251 q 263 -255 266 -255 l 258 -255 q 254 -251 254 -255 l 254 -217 l 251 -212 l 251 -209 l 254 -203 l 254 -170 q 258 -166 255 -166 m 286 -166 l 304 -166 q 310 -178 310 -169 l 310 -193 q 307 -197 310 -197 l 303 -197 l 296 -186 l 294 -186 q 290 -189 290 -186 l 290 -197 q 307 -202 290 -201 q 313 -226 311 -226 l 313 -231 q 309 -251 310 -235 q 300 -255 304 -255 l 290 -255 q 280 -242 280 -255 l 280 -227 q 283 -224 281 -224 l 288 -224 l 294 -235 l 298 -235 l 300 -226 q 298 -220 298 -222 l 290 -220 q 279 -195 279 -220 q 277 -189 277 -195 q 286 -166 282 -166 m 327 -166 l 333 -166 q 336 -170 336 -167 l 336 -201 l 345 -201 l 345 -170 q 349 -166 346 -166 l 353 -166 q 356 -170 356 -167 l 356 -197 q 359 -212 356 -198 l 356 -224 l 356 -251 q 353 -255 356 -255 l 349 -255 q 345 -251 345 -255 l 345 -220 l 336 -220 l 336 -251 q 333 -255 336 -255 l 327 -255 q 324 -251 324 -255 l 324 -217 l 321 -212 l 321 -209 q 324 -203 324 -205 l 324 -170 q 327 -166 325 -166 m 433 -166 l 452 -166 q 457 -178 457 -169 l 457 -203 l 460 -209 l 460 -213 l 457 -218 l 457 -240 q 450 -255 457 -250 l 437 -255 q 427 -242 427 -255 l 427 -224 q 422 -212 427 -218 q 427 -199 427 -205 l 427 -178 q 433 -166 427 -169 m 474 -166 l 480 -166 q 494 -208 484 -166 l 496 -208 l 496 -170 q 498 -166 496 -166 l 503 -166 q 506 -170 506 -167 l 506 -201 q 509 -215 506 -202 q 506 -218 506 -216 l 506 -251 q 503 -255 506 -255 l 497 -255 q 483 -212 493 -255 l 481 -212 l 481 -251 q 479 -255 481 -255 l 474 -255 q 471 -251 471 -255 l 471 -218 l 468 -213 l 468 -209 q 471 -203 471 -205 l 471 -170 q 474 -166 472 -166 m 518 -166 l 545 -166 q 549 -170 549 -167 l 549 -182 q 545 -186 549 -186 l 538 -186 l 538 -203 l 541 -209 l 541 -213 l 538 -218 l 538 -251 q 534 -255 538 -255 l 530 -255 q 528 -251 528 -255 l 528 -224 q 523 -212 528 -218 l 528 -202 l 528 -186 l 518 -186 q 515 -182 515 -186 l 515 -170 q 518 -166 515 -166 m 583 -166 q 589 -181 587 -166 l 589 -193 q 587 -197 589 -197 l 580 -197 q 578 -186 578 -197 l 570 -186 l 570 -197 q 585 -202 570 -201 q 593 -230 587 -205 q 582 -255 587 -255 l 565 -255 q 557 -226 558 -255 l 560 -224 l 567 -224 l 573 -235 l 574 -235 q 578 -231 578 -235 l 578 -220 l 565 -220 q 556 -193 560 -220 q 554 -191 554 -193 q 564 -166 560 -172 l 583 -166 m 625 -166 l 629 -166 q 632 -170 632 -167 l 632 -203 q 635 -212 635 -208 q 632 -222 632 -217 l 632 -235 l 646 -235 q 649 -238 649 -235 l 649 -251 q 646 -255 649 -255 l 625 -255 q 621 -251 621 -255 l 621 -224 q 618 -209 621 -222 l 618 -208 l 621 -202 l 621 -170 q 625 -166 622 -166 m 663 -166 l 688 -166 q 691 -170 691 -167 l 691 -199 l 694 -212 q 691 -222 691 -217 l 691 -251 q 688 -255 691 -255 l 684 -255 q 680 -251 680 -255 l 680 -220 l 670 -220 l 670 -251 q 667 -255 670 -255 l 663 -255 q 659 -251 659 -255 l 659 -222 l 656 -209 q 659 -199 659 -203 l 659 -170 q 663 -166 660 -166 m 708 -166 l 730 -166 q 736 -181 734 -166 l 736 -195 q 735 -209 736 -202 q 736 -224 736 -216 l 736 -240 q 729 -255 736 -250 l 708 -255 q 705 -251 705 -255 l 705 -217 l 702 -212 l 702 -209 q 705 -203 705 -205 l 705 -170 q 708 -166 705 -166 m 132 -186 l 132 -208 l 137 -208 q 140 -203 140 -208 l 140 -189 q 137 -186 140 -186 l 132 -186 m 172 -186 l 172 -201 l 182 -201 l 182 -186 l 172 -186 m 437 -189 l 437 -231 q 441 -235 438 -235 l 446 -235 l 447 -226 l 447 -195 l 446 -186 l 441 -186 q 437 -189 437 -186 m 670 -186 l 670 -197 q 673 -201 671 -201 l 678 -201 q 680 -197 680 -201 l 680 -186 l 670 -186 m 717 -186 l 717 -199 l 725 -199 l 725 -186 l 717 -186 m 791 -182 l 791 -183 l 795 -189 l 795 -235 l 791 -240 l 791 -243 l 808 -243 l 808 -240 l 805 -235 l 805 -205 l 806 -205 q 823 -225 808 -205 l 825 -225 q 838 -205 825 -221 l 840 -205 l 840 -235 l 837 -240 l 837 -243 l 861 -243 q 864 -240 864 -243 q 859 -235 862 -240 l 859 -189 q 864 -186 859 -186 l 864 -182 l 842 -182 q 829 -200 842 -186 l 827 -200 l 811 -182 l 791 -182 m 873 -182 l 873 -186 q 878 -189 878 -186 l 878 -235 q 873 -237 878 -237 l 873 -243 l 892 -243 l 892 -237 q 887 -235 887 -237 l 887 -205 l 888 -205 l 907 -225 q 922 -205 918 -208 l 924 -205 l 924 -235 q 919 -237 924 -237 l 919 -243 l 947 -243 l 947 -240 l 943 -235 l 943 -189 l 947 -183 l 947 -182 l 926 -182 l 911 -200 l 909 -200 l 895 -182 l 873 -182 m 955 -182 l 955 -186 q 976 -218 962 -186 q 955 -237 960 -237 l 955 -243 l 975 -243 l 974 -235 l 983 -225 q 989 -236 989 -235 q 987 -243 987 -239 l 1015 -243 q 1018 -240 1018 -243 q 996 -211 1009 -235 l 996 -207 q 1018 -186 1011 -186 l 1018 -182 l 998 -182 l 998 -183 q 1000 -189 1000 -187 l 990 -200 q 984 -186 984 -193 l 985 -186 l 985 -182 l 955 -182 m 1022 -182 l 1022 -186 q 1044 -218 1029 -186 q 1022 -237 1027 -237 l 1022 -243 l 1042 -243 l 1040 -235 l 1049 -225 q 1055 -236 1055 -235 q 1054 -243 1054 -239 l 1081 -243 q 1084 -240 1084 -243 q 1063 -211 1076 -235 l 1063 -207 q 1084 -186 1078 -186 l 1084 -182 l 1065 -182 l 1065 -183 q 1066 -189 1066 -187 l 1057 -200 q 1050 -186 1050 -193 l 1052 -186 l 1052 -182 l 1022 -182 m 1092 -182 l 1092 -186 q 1097 -189 1097 -186 l 1097 -235 l 1092 -241 l 1095 -243 l 1120 -243 l 1120 -240 l 1116 -235 l 1116 -189 l 1120 -183 l 1120 -182 l 1092 -182 m 1130 -182 l 1130 -186 q 1135 -189 1135 -186 l 1135 -235 q 1130 -237 1135 -237 l 1130 -243 l 1157 -243 l 1157 -240 l 1154 -235 l 1154 -189 q 1157 -183 1157 -184 l 1157 -182 l 1130 -182 m 717 -220 l 717 -235 l 722 -235 q 725 -231 725 -235 l 725 -220 l 717 -220 m 1170 -182 l 1170 -186 q 1174 -189 1174 -186 l 1174 -235 q 1170 -237 1174 -237 l 1170 -243 l 1197 -243 l 1197 -240 l 1194 -235 l 1194 -189 q 1197 -183 1197 -184 l 1197 -182 l 1170 -182 z "},"|":{"ha":1054,"x_min":0,"x_max":0,"o":""},"}":{"ha":1280,"x_min":61,"x_max":1226,"o":"m 443 1127 l 452 1127 q 616 1001 560 1127 q 633 937 633 957 q 649 941 642 941 l 656 941 q 696 898 688 941 q 690 862 690 867 l 690 857 l 697 814 l 697 810 q 685 778 697 791 q 718 723 689 774 q 766 678 718 720 q 810 646 777 646 q 872 625 859 646 q 1000 575 872 611 q 1097 505 1029 551 q 1124 454 1108 494 q 1146 396 1146 430 q 1176 298 1157 308 q 1196 267 1196 275 l 1196 256 q 1110 174 1196 228 q 1019 140 1057 140 l 1008 142 q 951 123 1008 130 q 853 78 893 82 q 806 75 825 75 q 763 81 778 75 q 696 65 703 65 q 674 71 689 65 q 659 66 666 66 l 649 66 q 607 70 645 66 q 530 62 541 62 q 421 75 521 62 q 264 102 325 82 q 136 159 174 129 l 136 160 q 186 319 136 211 q 262 396 248 396 q 385 497 274 396 l 387 497 l 387 500 q 312 681 382 560 q 300 741 306 693 q 283 772 283 758 q 275 787 275 781 q 279 803 279 795 q 248 882 279 819 q 243 917 243 894 l 243 937 q 325 1102 243 1021 q 443 1127 404 1127 m 279 952 l 279 930 q 328 804 279 856 l 337 804 q 384 792 345 804 q 412 751 408 792 l 412 709 q 426 663 412 663 q 441 661 435 661 q 468 688 447 688 q 484 700 484 688 l 484 701 q 463 711 463 703 q 484 726 470 726 q 507 694 507 718 q 500 676 505 681 l 500 675 l 515 675 q 512 688 512 686 l 512 690 q 516 695 512 692 q 577 636 558 646 l 578 636 q 574 656 574 644 l 574 672 q 599 688 574 682 l 613 700 l 613 707 q 612 732 613 717 q 630 748 612 741 l 630 750 q 610 832 623 823 q 602 856 602 850 l 602 857 q 610 871 605 871 l 612 871 q 666 803 633 849 l 667 803 q 674 819 671 803 q 672 856 672 840 l 672 862 q 677 899 672 865 q 656 917 677 917 q 641 909 645 917 l 641 907 l 644 909 q 671 892 671 906 q 663 884 668 884 q 648 890 652 890 l 644 890 q 625 876 632 876 q 614 948 616 882 q 555 1057 596 1019 q 421 1104 491 1104 q 286 1001 317 1104 q 279 952 279 970 m 463 1086 l 468 1086 q 474 1080 471 1086 l 474 1079 q 462 1066 474 1066 q 451 1077 451 1066 q 463 1086 454 1086 m 493 1085 l 503 1085 q 509 1079 505 1085 l 509 1077 q 500 1065 509 1069 l 499 1065 q 487 1073 491 1065 l 487 1074 q 493 1085 487 1082 m 527 1066 l 529 1066 q 543 1046 543 1066 q 538 1040 541 1040 l 535 1040 q 521 1055 523 1040 q 527 1066 521 1064 m 490 1054 l 492 1054 q 504 1043 504 1053 q 494 1034 500 1034 q 484 1043 488 1036 q 490 1054 484 1051 m 560 1042 q 571 1027 571 1037 l 571 1026 q 563 1021 571 1022 q 549 1030 555 1021 q 560 1042 549 1042 m 516 1040 l 518 1040 q 527 1035 527 1039 l 527 1027 q 523 1018 527 1019 l 519 1018 q 509 1029 509 1018 q 516 1040 509 1035 m 552 1019 q 558 1010 558 1017 q 554 999 557 999 q 538 1006 538 1001 l 538 1010 q 552 1019 544 1019 m 490 1015 q 509 1006 503 1015 l 509 996 q 499 990 509 993 q 484 1007 484 994 q 490 1015 487 1014 m 570 1001 l 578 1001 q 585 988 583 1001 q 578 981 582 981 q 565 990 570 981 l 565 996 q 570 1001 565 998 m 546 990 l 547 990 q 554 977 551 990 l 547 972 q 535 982 535 975 q 546 990 537 990 m 587 976 l 588 976 q 602 966 597 976 l 602 959 q 596 952 602 956 l 594 952 q 581 966 581 954 q 587 976 581 972 m 527 971 l 530 971 q 538 959 538 967 q 530 943 538 947 q 518 951 522 943 l 518 957 q 527 971 518 966 m 568 964 q 577 956 574 961 l 577 946 q 572 941 577 944 l 568 941 q 557 951 557 948 q 568 964 559 964 m 593 939 q 605 917 605 934 q 599 909 602 909 l 596 909 q 583 921 583 909 l 583 928 q 593 939 583 939 m 512 920 q 541 899 534 920 q 535 892 538 892 q 507 901 530 892 l 505 901 q 452 875 493 901 l 441 875 q 438 878 438 875 l 438 879 q 503 920 438 905 l 512 920 m 367 888 l 368 888 q 385 873 378 888 q 404 878 399 878 l 407 878 q 414 870 414 874 q 395 856 414 863 q 410 817 410 823 l 410 810 q 401 806 409 806 q 376 846 387 806 l 374 846 q 354 839 358 839 l 353 839 q 348 844 351 839 l 348 846 q 363 865 348 854 q 359 878 359 876 q 367 888 362 887 m 516 888 l 518 888 q 551 863 551 881 q 487 852 551 854 q 479 850 487 850 l 479 848 l 518 848 q 545 844 530 848 l 545 840 q 488 779 545 808 l 488 778 q 504 773 498 773 l 512 773 q 543 790 538 773 q 551 808 543 808 q 565 797 562 803 l 565 795 q 538 756 565 767 q 516 753 526 753 l 509 753 q 454 773 479 753 l 454 772 q 462 751 454 770 l 462 750 q 456 745 462 745 q 427 789 433 745 q 445 829 427 813 q 441 842 441 835 q 516 888 474 888 m 648 871 l 649 871 q 669 831 669 866 q 663 828 665 828 q 643 868 650 828 l 648 871 m 499 832 l 498 829 q 503 819 503 823 l 503 812 q 515 829 515 812 l 515 831 l 499 832 m 462 809 q 465 803 463 803 q 485 801 466 803 q 473 819 473 810 l 473 825 l 471 825 q 462 809 466 825 m 585 790 l 588 790 q 601 772 601 781 l 601 767 q 570 722 601 760 q 558 700 564 700 q 551 699 556 699 q 546 719 546 706 l 546 722 q 581 766 546 745 l 581 781 q 585 790 581 790 m 353 768 l 353 767 q 360 756 357 757 l 368 766 l 368 768 l 353 768 m 328 758 l 321 750 q 331 747 324 750 l 331 754 q 328 758 331 758 m 326 722 q 393 597 330 678 q 414 648 393 606 l 414 650 q 390 692 390 650 q 382 714 387 714 q 359 701 379 714 l 354 701 q 348 707 352 701 l 348 712 q 373 739 373 734 l 370 739 q 326 722 352 722 m 705 701 l 705 699 q 733 616 711 687 q 763 636 747 616 q 705 701 739 664 m 632 683 q 646 669 634 669 q 649 673 649 673 l 649 681 q 644 690 649 689 l 636 690 q 632 683 633 690 m 605 642 q 610 634 607 634 l 612 634 q 623 641 620 634 q 613 658 618 658 l 612 658 q 605 642 607 658 m 487 641 q 493 631 487 634 q 509 641 509 633 q 498 652 509 652 q 487 641 487 652 m 743 589 q 774 466 756 564 q 780 452 780 459 l 780 446 q 775 441 780 444 q 744 471 766 441 l 741 472 l 739 472 l 739 471 q 741 452 741 454 q 733 443 741 446 q 719 455 730 443 l 718 455 l 718 452 q 730 402 718 444 q 732 391 732 396 q 724 377 728 377 q 677 456 712 388 l 672 460 l 660 396 q 652 387 654 387 l 650 387 q 643 405 646 387 l 641 405 q 608 351 635 398 l 601 346 q 582 410 594 353 l 581 410 q 566 338 573 410 l 560 332 l 558 332 q 541 376 550 332 l 538 376 q 526 338 534 341 l 524 338 q 504 385 517 344 l 499 389 q 484 347 496 347 l 482 347 q 452 430 469 347 l 432 393 q 420 387 423 387 q 404 458 414 387 q 399 469 402 458 q 331 355 331 389 q 313 309 323 309 l 311 309 q 304 351 304 327 l 306 401 l 304 401 q 192 252 220 340 q 187 221 187 227 q 212 235 205 235 l 216 235 q 224 231 224 234 l 224 229 q 174 174 174 185 q 170 165 174 172 q 279 126 248 126 l 290 126 q 258 165 258 152 l 258 170 q 269 185 258 178 q 306 149 272 185 l 307 149 q 304 187 304 171 q 306 252 304 202 l 304 262 q 309 268 307 268 l 315 268 q 343 163 330 268 q 357 113 352 113 q 482 90 357 98 l 482 92 q 465 180 465 159 q 474 199 465 194 l 481 199 q 515 101 494 199 q 524 89 519 91 l 534 89 q 577 96 577 90 l 577 101 l 566 238 q 596 324 566 304 l 597 324 q 601 310 601 319 l 593 268 l 593 264 q 605 121 593 251 l 605 102 q 640 85 614 85 q 672 104 672 85 q 699 345 684 157 q 711 354 703 354 q 727 316 727 340 q 701 104 701 123 q 702 100 702 101 q 750 115 747 111 q 830 285 806 223 q 878 334 848 319 q 892 336 880 334 l 900 327 q 875 302 900 318 q 844 226 862 288 q 811 132 811 172 q 785 102 808 123 l 783 100 l 783 98 l 791 96 l 827 96 q 932 136 876 96 q 977 146 958 146 q 1040 287 979 172 q 1063 335 1045 310 q 1073 347 1068 345 q 1087 326 1087 347 q 1021 189 1087 296 q 1013 160 1013 163 l 1017 160 q 1134 212 1053 160 q 1168 254 1168 242 q 1134 307 1168 269 l 1134 296 q 1120 276 1131 276 q 1114 292 1114 282 l 1114 298 q 1117 334 1117 332 l 1103 414 q 1092 469 1103 469 q 1042 365 1092 433 q 1014 335 1027 336 q 1008 347 1008 342 l 1008 357 q 1063 480 1063 420 q 1004 528 1014 514 q 1001 541 1001 538 q 961 509 961 526 q 941 446 955 500 q 930 432 932 432 q 920 466 920 445 q 961 558 920 507 l 961 559 q 861 578 918 578 q 816 522 844 568 l 810 517 q 802 532 805 517 l 802 543 q 839 606 802 570 q 841 612 841 609 q 805 625 841 619 q 743 589 764 625 m 677 617 q 674 608 677 614 q 694 587 680 587 l 697 587 l 697 594 q 683 617 697 608 l 677 617 m 479 602 l 471 602 q 440 581 465 593 l 438 578 l 448 578 q 504 597 459 578 q 524 606 517 597 q 529 611 526 606 l 529 612 l 523 612 q 479 602 486 602 m 572 569 q 585 556 572 565 q 594 564 591 559 l 594 568 q 582 580 594 580 l 578 580 q 572 569 572 577 m 500 538 l 500 536 q 516 524 500 524 l 518 524 l 521 533 q 512 547 521 541 l 505 547 q 500 538 500 545 m 450 532 q 462 521 452 521 l 463 521 q 469 533 467 521 l 469 539 q 458 545 467 545 l 456 545 q 450 532 450 543 m 660 541 l 659 533 l 659 530 q 682 500 663 500 l 685 500 q 665 541 685 519 l 660 541 m 538 503 q 552 490 541 490 q 560 498 560 492 q 551 514 555 514 l 545 514 q 538 503 538 512 m 581 502 q 593 483 585 483 l 601 483 q 602 492 601 484 q 587 513 600 513 q 581 502 583 513 m 496 500 q 493 491 496 498 q 510 471 496 471 l 513 471 q 516 480 514 480 q 499 500 512 500 l 496 500 m 540 446 q 554 430 543 430 q 563 441 563 433 q 551 456 563 452 q 540 446 543 456 m 605 446 l 605 443 q 616 430 605 430 l 618 430 q 623 439 623 432 l 623 444 q 616 455 623 452 l 610 455 q 605 446 605 454 m 823 456 l 830 456 q 836 425 834 456 q 791 321 836 363 q 786 332 786 327 q 803 366 786 336 q 823 456 810 456 m 373 361 l 378 361 q 390 347 380 361 l 390 330 q 418 198 390 311 q 420 184 420 189 q 414 167 418 167 q 380 232 398 167 q 367 319 367 285 l 367 355 q 373 361 367 357 m 67 229 q 77 195 72 229 l 78 195 q 84 214 80 214 q 92 144 89 214 q 102 -31 102 40 l 103 -31 q 111 56 111 32 l 111 60 q 114 64 111 64 q 122 48 118 64 l 123 48 q 127 64 123 64 q 146 6 132 64 l 149 6 l 149 9 q 146 95 146 63 q 145 115 145 114 l 149 117 q 153 109 153 117 l 155 109 q 158 115 155 115 q 164 102 162 115 l 165 102 l 165 118 q 169 121 166 121 q 184 -28 178 121 q 192 -114 186 -28 l 189 -116 q 186 -108 186 -112 l 184 -108 q 181 -114 184 -114 q 178 -111 181 -111 q 174 -119 177 -119 q 165 -109 168 -109 q 153 -81 158 -109 q 144 -66 146 -81 l 140 -67 q 130 -35 136 -67 l 128 -35 l 128 -38 q 127 -132 128 -51 q 120 -150 125 -150 q 114 -127 114 -150 l 113 -127 q 111 -144 113 -133 l 108 -144 q 103 -132 103 -143 l 102 -132 q 97 -149 102 -149 l 96 -149 q 91 -138 92 -149 l 89 -138 q 84 -150 89 -150 q 69 -50 74 -143 q 64 156 64 43 q 61 205 61 197 l 61 210 q 67 229 61 229 m 1202 212 l 1207 212 q 1212 191 1212 195 l 1213 191 q 1217 201 1213 201 q 1226 102 1226 158 l 1223 101 q 1219 104 1223 104 q 1213 78 1216 101 l 1212 78 q 1206 111 1208 78 l 1204 111 q 1201 98 1204 98 q 1192 159 1198 106 l 1190 159 q 1188 125 1188 136 l 1188 120 l 1201 62 q 1221 -19 1207 62 l 1221 -20 q 1217 -89 1219 -67 l 1212 -89 l 1212 -67 l 1211 -67 q 1193 -128 1202 -102 l 1188 -128 q 1187 -109 1187 -117 q 1175 -133 1182 -112 l 1173 -133 l 1171 -130 l 1171 -104 l 1170 -104 q 1164 -120 1168 -120 q 1160 -87 1160 -112 l 1160 -86 q 1157 -83 1160 -83 q 1159 -28 1159 -46 l 1159 -20 q 1157 12 1159 -8 q 1164 23 1160 23 q 1165 22 1164 22 q 1168 26 1165 26 q 1171 6 1171 21 q 1177 18 1173 6 l 1179 18 q 1182 4 1182 13 q 1181 -39 1182 -12 q 1184 -56 1184 -53 l 1185 -56 q 1190 -30 1185 -30 q 1195 -35 1190 -32 q 1196 -22 1195 -24 q 1168 66 1190 2 l 1168 73 q 1173 76 1173 75 q 1154 160 1154 149 q 1157 163 1155 163 l 1162 160 q 1170 185 1164 185 q 1171 184 1170 184 q 1179 199 1171 197 l 1181 207 l 1185 207 q 1187 201 1185 206 l 1188 201 l 1188 205 l 1196 204 q 1202 212 1202 209 m 1128 132 q 1140 121 1140 130 q 1146 118 1146 121 l 1146 117 l 1145 113 q 1156 109 1156 113 q 1099 76 1145 98 l 1101 58 q 1099 42 1099 44 q 1122 48 1105 42 q 1133 34 1123 40 l 1133 33 l 1129 28 q 1141 24 1141 28 q 1098 -2 1114 1 l 1098 -14 q 1088 -52 1093 -25 l 1092 -58 q 1090 -75 1090 -68 l 1134 -61 l 1135 -61 q 1139 -64 1139 -62 l 1134 -72 l 1134 -73 l 1137 -72 l 1140 -72 q 1143 -75 1143 -73 l 1134 -89 l 1135 -89 l 1145 -87 l 1146 -91 l 1146 -92 q 1076 -132 1146 -94 q 1059 -96 1059 -132 q 1062 -73 1062 -79 q 1059 -58 1059 -73 l 1055 -61 l 1053 -58 l 1053 -56 q 1063 43 1063 -1 q 1061 58 1061 43 l 1057 56 q 1053 62 1055 56 q 1076 113 1059 113 q 1128 132 1114 132 m 264 82 q 269 58 269 82 l 269 54 l 276 56 q 279 45 279 52 q 284 48 280 45 l 286 48 q 298 -35 293 48 q 283 -122 294 -96 l 270 -134 l 269 -134 q 262 -125 262 -132 l 250 -144 q 243 -128 245 -144 q 239 -132 239 -132 l 237 -132 q 236 -130 236 -132 l 233 -132 l 228 -132 q 203 -25 214 -132 q 211 4 203 1 l 214 3 q 240 66 221 51 l 245 64 q 258 73 258 71 q 264 82 260 82 m 951 73 l 953 70 l 950 59 l 955 59 l 962 65 q 977 42 965 65 q 973 28 973 32 q 981 23 981 28 q 958 -16 972 5 l 958 -19 q 989 -104 989 -74 l 985 -104 q 983 -98 983 -104 l 979 -98 l 979 -111 q 977 -114 979 -114 q 972 -103 972 -113 l 968 -103 q 966 -109 968 -109 q 956 -71 961 -109 q 935 -41 935 -45 l 932 -41 l 932 -120 q 930 -123 932 -123 q 928 -119 928 -121 l 925 -120 q 922 -116 922 -120 q 914 -125 916 -125 q 911 -122 914 -122 q 908 -125 911 -125 l 905 -125 l 900 -64 q 905 23 902 -10 q 889 33 889 29 l 889 34 l 892 39 q 888 43 890 39 l 888 47 q 903 51 888 50 q 951 73 928 60 m 445 59 q 476 14 468 59 l 476 -3 q 465 -61 469 -56 q 454 -80 461 -80 q 406 -142 438 -121 q 399 -149 406 -144 l 398 -149 q 393 -139 393 -147 l 393 -132 q 385 -113 385 -132 l 385 -109 l 391 -103 l 391 -80 q 385 -77 385 -80 l 385 -73 q 391 -39 387 -39 q 393 -50 393 -41 l 395 -50 q 398 -20 398 -38 l 398 -3 l 399 12 l 396 11 l 395 11 q 391 17 391 11 l 384 16 l 382 18 q 412 54 397 54 q 445 59 427 59 m 734 56 l 736 53 q 726 42 736 52 l 727 42 l 736 43 l 738 40 q 734 37 734 40 l 736 37 l 744 39 l 745 35 l 707 7 q 702 -138 703 -37 l 699 -139 q 697 -133 697 -136 l 696 -133 l 692 -134 q 690 -122 690 -132 l 688 -122 q 685 -140 685 -138 l 680 -140 l 679 -133 l 679 -116 q 680 -78 679 -90 q 679 -47 679 -64 q 682 -7 679 -28 l 680 -7 q 652 -16 675 -10 q 650 -14 652 -14 l 650 -39 q 648 -119 648 -111 l 644 -120 q 638 -104 640 -120 l 636 -104 q 616 -139 629 -139 q 612 -133 614 -133 l 602 -147 q 594 -132 598 -147 l 589 -134 q 578 -58 582 -134 q 581 -38 578 -45 q 578 -8 578 -22 l 578 20 q 588 50 585 50 l 589 50 q 593 47 593 49 l 593 37 q 597 26 597 37 l 604 33 l 607 33 q 605 -2 607 26 q 607 -8 605 -5 q 605 -85 605 -8 l 610 -87 q 613 -85 610 -85 l 616 -86 q 619 -49 619 -64 q 618 17 619 -37 q 619 50 619 37 q 624 53 620 50 q 625 48 625 50 l 627 48 q 629 54 629 54 l 632 54 q 636 42 636 54 l 638 42 q 641 53 638 53 q 649 12 646 47 l 650 12 q 659 16 656 16 l 656 18 q 734 56 684 35 m 808 56 l 808 53 q 799 42 799 43 l 806 43 q 810 40 810 43 l 808 37 l 810 37 q 861 56 842 56 l 864 56 q 870 48 868 48 q 881 40 876 41 l 881 39 q 838 14 880 33 l 839 -2 l 839 -14 l 854 -9 q 863 -20 854 -12 l 863 -22 l 861 -25 q 870 -28 870 -25 q 836 -49 844 -49 l 836 -62 q 830 -85 830 -73 l 831 -98 q 830 -104 830 -101 l 831 -104 q 865 -94 834 -104 q 867 -98 867 -97 l 867 -103 q 872 -106 872 -103 l 865 -114 l 865 -116 q 875 -119 875 -116 q 819 -150 873 -121 q 806 -123 806 -150 q 808 -104 806 -121 q 805 -102 805 -104 l 806 -92 l 803 -94 l 800 -94 q 810 -13 810 -47 q 805 -3 808 -13 q 802 0 802 -3 l 802 1 q 805 24 802 10 q 779 -2 779 13 q 775 -138 775 -66 l 772 -139 q 769 -132 769 -135 l 764 -134 q 763 -123 763 -132 q 756 -140 760 -123 l 752 -140 q 750 -120 752 -125 q 752 -69 752 -92 l 752 -35 q 755 -7 752 -14 l 753 -7 q 726 -16 751 -8 l 724 -13 l 730 -5 q 719 -2 719 -5 q 730 6 719 2 l 730 7 l 728 7 l 719 6 l 718 9 q 734 23 727 12 q 808 56 804 56 m 351 54 q 354 45 354 50 l 354 29 l 357 31 l 359 31 q 363 23 363 31 l 367 24 l 368 24 q 378 -42 374 24 q 356 -136 378 -117 l 354 -136 q 349 -128 351 -136 q 338 -144 340 -144 q 336 -132 336 -139 l 332 -133 l 331 -133 q 329 -132 329 -133 l 326 -133 l 323 -133 q 302 -33 309 -133 q 311 -13 302 -16 q 332 40 318 30 l 334 40 l 337 39 q 351 54 345 45 m 535 54 l 540 54 q 563 24 560 54 q 565 0 565 16 l 565 -5 q 562 -8 565 -8 l 558 -7 q 554 -12 558 -9 q 546 -2 551 -12 q 541 -3 543 -3 q 536 18 538 0 q 532 24 534 18 q 534 29 534 28 l 534 31 l 532 31 q 512 -56 513 -14 l 512 -64 q 524 -103 512 -98 l 529 -103 q 547 -58 533 -103 l 551 -56 l 558 -56 q 563 -67 563 -58 l 565 -67 q 570 -60 566 -60 q 574 -78 573 -60 q 549 -127 559 -127 q 532 -139 536 -127 l 529 -140 l 526 -140 l 519 -134 l 516 -136 q 481 -75 507 -136 l 481 -72 q 488 -28 481 -28 l 487 -13 q 529 53 487 25 q 535 54 532 54 m 931 35 q 932 29 931 35 q 930 7 930 26 l 932 7 l 932 -2 q 939 -5 935 -2 l 941 -5 l 950 29 q 937 24 942 24 q 935 34 935 30 l 936 42 q 931 35 933 42 m 431 26 l 429 18 l 429 16 q 420 -77 429 2 l 420 -78 l 421 -78 q 432 -60 428 -60 l 435 -61 q 445 -26 435 -54 l 445 -20 q 443 -16 445 -16 l 445 -8 l 445 23 l 443 23 q 437 14 443 17 q 432 26 433 14 l 431 26 m 245 18 q 239 -44 240 -4 q 240 -86 240 -63 l 240 -87 l 242 -87 q 248 -71 245 -71 l 252 -71 l 253 -77 l 256 -75 l 258 -75 l 260 -77 l 262 -61 l 262 -33 q 264 -12 262 -24 q 258 11 260 11 q 253 1 258 3 q 247 18 249 1 l 245 18 m 649 6 l 649 1 q 656 7 656 5 l 654 7 q 649 6 650 6 m 336 -2 q 331 -58 332 -23 q 332 -94 332 -75 l 334 -94 q 340 -78 335 -78 q 342 -85 342 -81 l 345 -83 l 348 -85 l 349 -73 l 349 -26 l 348 -8 l 347 -8 q 342 -16 345 -16 q 337 -2 338 -16 l 336 -2 m 649 -5 l 649 -13 q 659 -7 655 -7 l 659 -5 l 649 -5 m 1023 -91 q 1028 -100 1025 -91 q 1032 -98 1031 -98 q 1034 -103 1034 -102 q 1032 -108 1032 -106 q 1044 -103 1040 -103 l 1045 -106 l 1045 -109 q 1025 -145 1043 -123 q 1021 -140 1021 -145 l 1015 -145 q 1014 -138 1014 -142 l 1006 -142 q 1003 -138 1003 -142 q 1004 -133 1004 -134 l 1000 -136 l 995 -136 q 1019 -96 1008 -96 q 1023 -91 1019 -93 m 758 -163 l 1206 -163 q 1210 -166 1210 -163 l 1210 -258 q 1206 -262 1210 -262 l 758 -262 q 755 -258 755 -262 l 755 -166 q 758 -163 755 -163 m 389 -164 l 413 -164 q 416 -168 416 -165 l 416 -182 q 413 -186 416 -186 l 398 -186 l 398 -201 l 409 -201 q 412 -203 412 -201 l 412 -217 q 409 -220 412 -220 l 398 -220 l 398 -251 q 395 -255 398 -255 l 389 -255 q 386 -251 386 -255 l 386 -217 l 382 -212 l 382 -209 q 386 -203 386 -205 l 386 -168 q 389 -164 387 -164 m 83 -166 l 99 -166 q 107 -189 107 -169 l 107 -193 q 104 -197 107 -197 l 98 -197 q 95 -186 95 -197 l 87 -186 l 87 -197 q 102 -202 87 -201 q 110 -230 105 -208 q 99 -255 104 -253 l 83 -255 q 75 -237 75 -251 l 75 -227 q 78 -224 75 -224 l 84 -224 l 90 -235 l 92 -235 q 95 -231 95 -235 l 95 -220 l 83 -220 q 72 -191 78 -220 q 83 -166 78 -166 m 123 -166 l 144 -166 q 151 -178 151 -169 l 151 -213 q 140 -226 151 -226 l 132 -226 l 132 -251 q 128 -255 132 -255 l 123 -255 q 121 -251 121 -255 l 121 -218 l 117 -213 l 117 -209 l 121 -203 l 121 -170 q 123 -166 121 -166 m 164 -166 l 190 -166 q 193 -170 193 -167 l 193 -199 l 197 -212 q 193 -222 193 -217 l 193 -251 q 190 -255 193 -255 l 184 -255 q 182 -251 182 -255 l 182 -220 l 172 -220 l 172 -251 q 169 -255 172 -255 l 164 -255 q 161 -251 161 -255 l 161 -222 l 159 -209 q 161 -199 161 -203 l 161 -170 q 164 -166 161 -166 m 210 -166 l 216 -166 q 229 -203 220 -166 l 230 -203 l 230 -170 q 233 -166 231 -166 l 239 -166 q 242 -170 242 -167 l 242 -201 q 245 -212 242 -205 q 242 -222 242 -217 l 242 -251 q 239 -255 242 -255 l 233 -255 q 219 -213 229 -255 l 218 -213 l 218 -251 q 214 -255 218 -255 l 210 -255 q 208 -251 208 -255 l 208 -224 q 203 -212 208 -218 q 208 -199 208 -205 l 208 -170 q 210 -166 208 -166 m 258 -166 l 263 -166 q 266 -170 266 -167 l 266 -201 l 269 -213 q 266 -217 266 -214 l 266 -251 q 263 -255 266 -255 l 258 -255 q 254 -251 254 -255 l 254 -217 l 251 -212 l 251 -209 l 254 -203 l 254 -170 q 258 -166 255 -166 m 286 -166 l 304 -166 q 310 -178 310 -169 l 310 -193 q 307 -197 310 -197 l 303 -197 l 296 -186 l 294 -186 q 290 -189 290 -186 l 290 -197 q 307 -202 290 -201 q 313 -226 311 -226 l 313 -231 q 309 -251 310 -235 q 300 -255 304 -255 l 290 -255 q 280 -242 280 -255 l 280 -227 q 283 -224 281 -224 l 288 -224 l 294 -235 l 298 -235 l 300 -226 q 298 -220 298 -222 l 290 -220 q 279 -195 279 -220 q 277 -189 277 -195 q 286 -166 282 -166 m 327 -166 l 333 -166 q 336 -170 336 -167 l 336 -201 l 345 -201 l 345 -170 q 349 -166 346 -166 l 353 -166 q 356 -170 356 -167 l 356 -197 q 359 -212 356 -198 l 356 -224 l 356 -251 q 353 -255 356 -255 l 349 -255 q 345 -251 345 -255 l 345 -220 l 336 -220 l 336 -251 q 333 -255 336 -255 l 327 -255 q 324 -251 324 -255 l 324 -217 l 321 -212 l 321 -209 q 324 -203 324 -205 l 324 -170 q 327 -166 325 -166 m 433 -166 l 452 -166 q 457 -178 457 -169 l 457 -203 l 460 -209 l 460 -213 l 457 -218 l 457 -240 q 450 -255 457 -250 l 437 -255 q 427 -242 427 -255 l 427 -224 q 422 -212 427 -218 q 427 -199 427 -205 l 427 -178 q 433 -166 427 -169 m 474 -166 l 480 -166 q 494 -208 484 -166 l 496 -208 l 496 -170 q 498 -166 496 -166 l 503 -166 q 506 -170 506 -167 l 506 -201 q 509 -215 506 -202 q 506 -218 506 -216 l 506 -251 q 503 -255 506 -255 l 497 -255 q 483 -212 493 -255 l 481 -212 l 481 -251 q 479 -255 481 -255 l 474 -255 q 471 -251 471 -255 l 471 -218 l 468 -213 l 468 -209 q 471 -203 471 -205 l 471 -170 q 474 -166 472 -166 m 518 -166 l 545 -166 q 549 -170 549 -167 l 549 -182 q 545 -186 549 -186 l 538 -186 l 538 -203 l 541 -209 l 541 -213 l 538 -218 l 538 -251 q 534 -255 538 -255 l 530 -255 q 528 -251 528 -255 l 528 -224 q 523 -212 528 -218 l 528 -202 l 528 -186 l 518 -186 q 515 -182 515 -186 l 515 -170 q 518 -166 515 -166 m 583 -166 q 589 -181 587 -166 l 589 -193 q 587 -197 589 -197 l 580 -197 q 578 -186 578 -197 l 570 -186 l 570 -197 q 585 -202 570 -201 q 593 -230 587 -205 q 582 -255 587 -255 l 565 -255 q 557 -226 558 -255 l 560 -224 l 567 -224 l 573 -235 l 574 -235 q 578 -231 578 -235 l 578 -220 l 565 -220 q 556 -193 560 -220 q 554 -191 554 -193 q 564 -166 560 -172 l 583 -166 m 625 -166 l 629 -166 q 632 -170 632 -167 l 632 -203 q 635 -212 635 -208 q 632 -222 632 -217 l 632 -235 l 646 -235 q 649 -238 649 -235 l 649 -251 q 646 -255 649 -255 l 625 -255 q 621 -251 621 -255 l 621 -224 q 618 -209 621 -222 l 618 -208 l 621 -202 l 621 -170 q 625 -166 622 -166 m 663 -166 l 688 -166 q 691 -170 691 -167 l 691 -199 l 694 -212 q 691 -222 691 -217 l 691 -251 q 688 -255 691 -255 l 684 -255 q 680 -251 680 -255 l 680 -220 l 670 -220 l 670 -251 q 667 -255 670 -255 l 663 -255 q 659 -251 659 -255 l 659 -222 l 656 -209 q 659 -199 659 -203 l 659 -170 q 663 -166 660 -166 m 708 -166 l 730 -166 q 736 -181 734 -166 l 736 -195 q 735 -209 736 -202 q 736 -224 736 -216 l 736 -240 q 729 -255 736 -250 l 708 -255 q 705 -251 705 -255 l 705 -217 l 702 -212 l 702 -209 q 705 -203 705 -205 l 705 -170 q 708 -166 705 -166 m 132 -186 l 132 -208 l 137 -208 q 140 -203 140 -208 l 140 -189 q 137 -186 140 -186 l 132 -186 m 172 -186 l 172 -201 l 182 -201 l 182 -186 l 172 -186 m 437 -189 l 437 -231 q 441 -235 438 -235 l 446 -235 l 447 -226 l 447 -195 l 446 -186 l 441 -186 q 437 -189 437 -186 m 670 -186 l 670 -197 q 673 -201 671 -201 l 678 -201 q 680 -197 680 -201 l 680 -186 l 670 -186 m 717 -186 l 717 -199 l 725 -199 l 725 -186 l 717 -186 m 791 -182 l 791 -183 l 795 -189 l 795 -235 l 791 -240 l 791 -243 l 808 -243 l 808 -240 l 805 -235 l 805 -205 l 806 -205 q 823 -225 808 -205 l 825 -225 q 838 -205 825 -221 l 840 -205 l 840 -235 l 837 -240 l 837 -243 l 861 -243 q 864 -240 864 -243 q 859 -235 862 -240 l 859 -189 q 864 -186 859 -186 l 864 -182 l 842 -182 q 829 -200 842 -186 l 827 -200 l 811 -182 l 791 -182 m 873 -182 l 873 -186 q 878 -189 878 -186 l 878 -235 q 873 -237 878 -237 l 873 -243 l 892 -243 l 892 -237 q 887 -235 887 -237 l 887 -205 l 888 -205 l 907 -225 q 922 -205 918 -208 l 924 -205 l 924 -235 q 919 -237 924 -237 l 919 -243 l 947 -243 l 947 -240 l 943 -235 l 943 -189 l 947 -183 l 947 -182 l 926 -182 l 911 -200 l 909 -200 l 895 -182 l 873 -182 m 955 -182 l 955 -186 q 976 -218 962 -186 q 955 -237 960 -237 l 955 -243 l 975 -243 l 974 -235 l 983 -225 q 989 -236 989 -235 q 987 -243 987 -239 l 1015 -243 q 1018 -240 1018 -243 q 996 -211 1009 -235 l 996 -207 q 1018 -186 1011 -186 l 1018 -182 l 998 -182 l 998 -183 q 1000 -189 1000 -187 l 990 -200 q 984 -186 984 -193 l 985 -186 l 985 -182 l 955 -182 m 1022 -182 l 1022 -186 q 1044 -218 1029 -186 q 1022 -237 1027 -237 l 1022 -243 l 1042 -243 l 1040 -235 l 1049 -225 q 1055 -236 1055 -235 q 1054 -243 1054 -239 l 1081 -243 q 1084 -240 1084 -243 q 1063 -211 1076 -235 l 1063 -207 q 1084 -186 1078 -186 l 1084 -182 l 1065 -182 l 1065 -183 q 1066 -189 1066 -187 l 1057 -200 q 1050 -186 1050 -193 l 1052 -186 l 1052 -182 l 1022 -182 m 1092 -182 l 1092 -186 q 1097 -189 1097 -186 l 1097 -235 l 1092 -241 l 1095 -243 l 1120 -243 l 1120 -240 l 1116 -235 l 1116 -189 l 1120 -183 l 1120 -182 l 1092 -182 m 1130 -182 l 1130 -186 q 1135 -189 1135 -186 l 1135 -235 q 1130 -237 1135 -237 l 1130 -243 l 1157 -243 l 1157 -240 l 1154 -235 l 1154 -189 q 1157 -183 1157 -184 l 1157 -182 l 1130 -182 m 717 -220 l 717 -235 l 722 -235 q 725 -231 725 -235 l 725 -220 l 717 -220 m 1170 -182 l 1170 -186 q 1174 -189 1174 -186 l 1174 -235 q 1170 -237 1174 -237 l 1170 -243 l 1197 -243 l 1197 -240 l 1194 -235 l 1194 -189 q 1197 -183 1197 -184 l 1197 -182 l 1170 -182 z "},"~":{"ha":688,"x_min":0,"x_max":0,"o":""},"¡":{"ha":456,"x_min":20,"x_max":446,"o":"m 131 0 q 25 26 25 0 q 20 79 20 68 q 73 530 20 117 q 113 705 73 705 q 149 710 140 710 q 366 684 366 710 q 446 26 414 412 q 313 3 446 3 q 131 0 185 0 m 60 734 q 29 873 29 753 q 127 971 29 971 q 197 973 146 973 l 326 973 q 406 945 406 973 q 414 800 414 891 l 414 783 q 304 743 414 743 q 60 734 227 743 z "},"¢":{"ha":1280,"x_min":61,"x_max":1226,"o":"m 443 1127 l 452 1127 q 616 1001 560 1127 q 633 937 633 957 q 649 941 642 941 l 656 941 q 696 898 688 941 q 690 862 690 867 l 690 857 l 697 814 l 697 810 q 685 778 697 791 q 718 723 689 774 q 766 678 718 720 q 810 646 777 646 q 872 625 859 646 q 1000 575 872 611 q 1097 505 1029 551 q 1124 454 1108 494 q 1146 396 1146 430 q 1176 298 1157 308 q 1196 267 1196 275 l 1196 256 q 1110 174 1196 228 q 1019 140 1057 140 l 1008 142 q 951 123 1008 130 q 853 78 893 82 q 806 75 825 75 q 763 81 778 75 q 696 65 703 65 q 674 71 689 65 q 659 66 666 66 l 649 66 q 607 70 645 66 q 530 62 541 62 q 421 75 521 62 q 264 102 325 82 q 136 159 174 129 l 136 160 q 186 319 136 211 q 262 396 248 396 q 385 497 274 396 l 387 497 l 387 500 q 312 681 382 560 q 300 741 306 693 q 283 772 283 758 q 275 787 275 781 q 279 803 279 795 q 248 882 279 819 q 243 917 243 894 l 243 937 q 325 1102 243 1021 q 443 1127 404 1127 m 279 952 l 279 930 q 328 804 279 856 l 337 804 q 384 792 345 804 q 412 751 408 792 l 412 709 q 426 663 412 663 q 441 661 435 661 q 468 688 447 688 q 484 700 484 688 l 484 701 q 463 711 463 703 q 484 726 470 726 q 507 694 507 718 q 500 676 505 681 l 500 675 l 515 675 q 512 688 512 686 l 512 690 q 516 695 512 692 q 577 636 558 646 l 578 636 q 574 656 574 644 l 574 672 q 599 688 574 682 l 613 700 l 613 707 q 612 732 613 717 q 630 748 612 741 l 630 750 q 610 832 623 823 q 602 856 602 850 l 602 857 q 610 871 605 871 l 612 871 q 666 803 633 849 l 667 803 q 674 819 671 803 q 672 856 672 840 l 672 862 q 677 899 672 865 q 656 917 677 917 q 641 909 645 917 l 641 907 l 644 909 q 671 892 671 906 q 663 884 668 884 q 648 890 652 890 l 644 890 q 625 876 632 876 q 614 948 616 882 q 555 1057 596 1019 q 421 1104 491 1104 q 286 1001 317 1104 q 279 952 279 970 m 463 1086 l 468 1086 q 474 1080 471 1086 l 474 1079 q 462 1066 474 1066 q 451 1077 451 1066 q 463 1086 454 1086 m 493 1085 l 503 1085 q 509 1079 505 1085 l 509 1077 q 500 1065 509 1069 l 499 1065 q 487 1073 491 1065 l 487 1074 q 493 1085 487 1082 m 527 1066 l 529 1066 q 543 1046 543 1066 q 538 1040 541 1040 l 535 1040 q 521 1055 523 1040 q 527 1066 521 1064 m 490 1054 l 492 1054 q 504 1043 504 1053 q 494 1034 500 1034 q 484 1043 488 1036 q 490 1054 484 1051 m 560 1042 q 571 1027 571 1037 l 571 1026 q 563 1021 571 1022 q 549 1030 555 1021 q 560 1042 549 1042 m 516 1040 l 518 1040 q 527 1035 527 1039 l 527 1027 q 523 1018 527 1019 l 519 1018 q 509 1029 509 1018 q 516 1040 509 1035 m 552 1019 q 558 1010 558 1017 q 554 999 557 999 q 538 1006 538 1001 l 538 1010 q 552 1019 544 1019 m 490 1015 q 509 1006 503 1015 l 509 996 q 499 990 509 993 q 484 1007 484 994 q 490 1015 487 1014 m 570 1001 l 578 1001 q 585 988 583 1001 q 578 981 582 981 q 565 990 570 981 l 565 996 q 570 1001 565 998 m 546 990 l 547 990 q 554 977 551 990 l 547 972 q 535 982 535 975 q 546 990 537 990 m 587 976 l 588 976 q 602 966 597 976 l 602 959 q 596 952 602 956 l 594 952 q 581 966 581 954 q 587 976 581 972 m 527 971 l 530 971 q 538 959 538 967 q 530 943 538 947 q 518 951 522 943 l 518 957 q 527 971 518 966 m 568 964 q 577 956 574 961 l 577 946 q 572 941 577 944 l 568 941 q 557 951 557 948 q 568 964 559 964 m 593 939 q 605 917 605 934 q 599 909 602 909 l 596 909 q 583 921 583 909 l 583 928 q 593 939 583 939 m 512 920 q 541 899 534 920 q 535 892 538 892 q 507 901 530 892 l 505 901 q 452 875 493 901 l 441 875 q 438 878 438 875 l 438 879 q 503 920 438 905 l 512 920 m 367 888 l 368 888 q 385 873 378 888 q 404 878 399 878 l 407 878 q 414 870 414 874 q 395 856 414 863 q 410 817 410 823 l 410 810 q 401 806 409 806 q 376 846 387 806 l 374 846 q 354 839 358 839 l 353 839 q 348 844 351 839 l 348 846 q 363 865 348 854 q 359 878 359 876 q 367 888 362 887 m 516 888 l 518 888 q 551 863 551 881 q 487 852 551 854 q 479 850 487 850 l 479 848 l 518 848 q 545 844 530 848 l 545 840 q 488 779 545 808 l 488 778 q 504 773 498 773 l 512 773 q 543 790 538 773 q 551 808 543 808 q 565 797 562 803 l 565 795 q 538 756 565 767 q 516 753 526 753 l 509 753 q 454 773 479 753 l 454 772 q 462 751 454 770 l 462 750 q 456 745 462 745 q 427 789 433 745 q 445 829 427 813 q 441 842 441 835 q 516 888 474 888 m 648 871 l 649 871 q 669 831 669 866 q 663 828 665 828 q 643 868 650 828 l 648 871 m 499 832 l 498 829 q 503 819 503 823 l 503 812 q 515 829 515 812 l 515 831 l 499 832 m 462 809 q 465 803 463 803 q 485 801 466 803 q 473 819 473 810 l 473 825 l 471 825 q 462 809 466 825 m 585 790 l 588 790 q 601 772 601 781 l 601 767 q 570 722 601 760 q 558 700 564 700 q 551 699 556 699 q 546 719 546 706 l 546 722 q 581 766 546 745 l 581 781 q 585 790 581 790 m 353 768 l 353 767 q 360 756 357 757 l 368 766 l 368 768 l 353 768 m 328 758 l 321 750 q 331 747 324 750 l 331 754 q 328 758 331 758 m 326 722 q 393 597 330 678 q 414 648 393 606 l 414 650 q 390 692 390 650 q 382 714 387 714 q 359 701 379 714 l 354 701 q 348 707 352 701 l 348 712 q 373 739 373 734 l 370 739 q 326 722 352 722 m 705 701 l 705 699 q 733 616 711 687 q 763 636 747 616 q 705 701 739 664 m 632 683 q 646 669 634 669 q 649 673 649 673 l 649 681 q 644 690 649 689 l 636 690 q 632 683 633 690 m 605 642 q 610 634 607 634 l 612 634 q 623 641 620 634 q 613 658 618 658 l 612 658 q 605 642 607 658 m 487 641 q 493 631 487 634 q 509 641 509 633 q 498 652 509 652 q 487 641 487 652 m 743 589 q 774 466 756 564 q 780 452 780 459 l 780 446 q 775 441 780 444 q 744 471 766 441 l 741 472 l 739 472 l 739 471 q 741 452 741 454 q 733 443 741 446 q 719 455 730 443 l 718 455 l 718 452 q 730 402 718 444 q 732 391 732 396 q 724 377 728 377 q 677 456 712 388 l 672 460 l 660 396 q 652 387 654 387 l 650 387 q 643 405 646 387 l 641 405 q 608 351 635 398 l 601 346 q 582 410 594 353 l 581 410 q 566 338 573 410 l 560 332 l 558 332 q 541 376 550 332 l 538 376 q 526 338 534 341 l 524 338 q 504 385 517 344 l 499 389 q 484 347 496 347 l 482 347 q 452 430 469 347 l 432 393 q 420 387 423 387 q 404 458 414 387 q 399 469 402 458 q 331 355 331 389 q 313 309 323 309 l 311 309 q 304 351 304 327 l 306 401 l 304 401 q 192 252 220 340 q 187 221 187 227 q 212 235 205 235 l 216 235 q 224 231 224 234 l 224 229 q 174 174 174 185 q 170 165 174 172 q 279 126 248 126 l 290 126 q 258 165 258 152 l 258 170 q 269 185 258 178 q 306 149 272 185 l 307 149 q 304 187 304 171 q 306 252 304 202 l 304 262 q 309 268 307 268 l 315 268 q 343 163 330 268 q 357 113 352 113 q 482 90 357 98 l 482 92 q 465 180 465 159 q 474 199 465 194 l 481 199 q 515 101 494 199 q 524 89 519 91 l 534 89 q 577 96 577 90 l 577 101 l 566 238 q 596 324 566 304 l 597 324 q 601 310 601 319 l 593 268 l 593 264 q 605 121 593 251 l 605 102 q 640 85 614 85 q 672 104 672 85 q 699 345 684 157 q 711 354 703 354 q 727 316 727 340 q 701 104 701 123 q 702 100 702 101 q 750 115 747 111 q 830 285 806 223 q 878 334 848 319 q 892 336 880 334 l 900 327 q 875 302 900 318 q 844 226 862 288 q 811 132 811 172 q 785 102 808 123 l 783 100 l 783 98 l 791 96 l 827 96 q 932 136 876 96 q 977 146 958 146 q 1040 287 979 172 q 1063 335 1045 310 q 1073 347 1068 345 q 1087 326 1087 347 q 1021 189 1087 296 q 1013 160 1013 163 l 1017 160 q 1134 212 1053 160 q 1168 254 1168 242 q 1134 307 1168 269 l 1134 296 q 1120 276 1131 276 q 1114 292 1114 282 l 1114 298 q 1117 334 1117 332 l 1103 414 q 1092 469 1103 469 q 1042 365 1092 433 q 1014 335 1027 336 q 1008 347 1008 342 l 1008 357 q 1063 480 1063 420 q 1004 528 1014 514 q 1001 541 1001 538 q 961 509 961 526 q 941 446 955 500 q 930 432 932 432 q 920 466 920 445 q 961 558 920 507 l 961 559 q 861 578 918 578 q 816 522 844 568 l 810 517 q 802 532 805 517 l 802 543 q 839 606 802 570 q 841 612 841 609 q 805 625 841 619 q 743 589 764 625 m 677 617 q 674 608 677 614 q 694 587 680 587 l 697 587 l 697 594 q 683 617 697 608 l 677 617 m 479 602 l 471 602 q 440 581 465 593 l 438 578 l 448 578 q 504 597 459 578 q 524 606 517 597 q 529 611 526 606 l 529 612 l 523 612 q 479 602 486 602 m 572 569 q 585 556 572 565 q 594 564 591 559 l 594 568 q 582 580 594 580 l 578 580 q 572 569 572 577 m 500 538 l 500 536 q 516 524 500 524 l 518 524 l 521 533 q 512 547 521 541 l 505 547 q 500 538 500 545 m 450 532 q 462 521 452 521 l 463 521 q 469 533 467 521 l 469 539 q 458 545 467 545 l 456 545 q 450 532 450 543 m 660 541 l 659 533 l 659 530 q 682 500 663 500 l 685 500 q 665 541 685 519 l 660 541 m 538 503 q 552 490 541 490 q 560 498 560 492 q 551 514 555 514 l 545 514 q 538 503 538 512 m 581 502 q 593 483 585 483 l 601 483 q 602 492 601 484 q 587 513 600 513 q 581 502 583 513 m 496 500 q 493 491 496 498 q 510 471 496 471 l 513 471 q 516 480 514 480 q 499 500 512 500 l 496 500 m 540 446 q 554 430 543 430 q 563 441 563 433 q 551 456 563 452 q 540 446 543 456 m 605 446 l 605 443 q 616 430 605 430 l 618 430 q 623 439 623 432 l 623 444 q 616 455 623 452 l 610 455 q 605 446 605 454 m 823 456 l 830 456 q 836 425 834 456 q 791 321 836 363 q 786 332 786 327 q 803 366 786 336 q 823 456 810 456 m 373 361 l 378 361 q 390 347 380 361 l 390 330 q 418 198 390 311 q 420 184 420 189 q 414 167 418 167 q 380 232 398 167 q 367 319 367 285 l 367 355 q 373 361 367 357 m 67 229 q 77 195 72 229 l 78 195 q 84 214 80 214 q 92 144 89 214 q 102 -31 102 40 l 103 -31 q 111 56 111 32 l 111 60 q 114 64 111 64 q 122 48 118 64 l 123 48 q 127 64 123 64 q 146 6 132 64 l 149 6 l 149 9 q 146 95 146 63 q 145 115 145 114 l 149 117 q 153 109 153 117 l 155 109 q 158 115 155 115 q 164 102 162 115 l 165 102 l 165 118 q 169 121 166 121 q 184 -28 178 121 q 192 -114 186 -28 l 189 -116 q 186 -108 186 -112 l 184 -108 q 181 -114 184 -114 q 178 -111 181 -111 q 174 -119 177 -119 q 165 -109 168 -109 q 153 -81 158 -109 q 144 -66 146 -81 l 140 -67 q 130 -35 136 -67 l 128 -35 l 128 -38 q 127 -132 128 -51 q 120 -150 125 -150 q 114 -127 114 -150 l 113 -127 q 111 -144 113 -133 l 108 -144 q 103 -132 103 -143 l 102 -132 q 97 -149 102 -149 l 96 -149 q 91 -138 92 -149 l 89 -138 q 84 -150 89 -150 q 69 -50 74 -143 q 64 156 64 43 q 61 205 61 197 l 61 210 q 67 229 61 229 m 1202 212 l 1207 212 q 1212 191 1212 195 l 1213 191 q 1217 201 1213 201 q 1226 102 1226 158 l 1223 101 q 1219 104 1223 104 q 1213 78 1216 101 l 1212 78 q 1206 111 1208 78 l 1204 111 q 1201 98 1204 98 q 1192 159 1198 106 l 1190 159 q 1188 125 1188 136 l 1188 120 l 1201 62 q 1221 -19 1207 62 l 1221 -20 q 1217 -89 1219 -67 l 1212 -89 l 1212 -67 l 1211 -67 q 1193 -128 1202 -102 l 1188 -128 q 1187 -109 1187 -117 q 1175 -133 1182 -112 l 1173 -133 l 1171 -130 l 1171 -104 l 1170 -104 q 1164 -120 1168 -120 q 1160 -87 1160 -112 l 1160 -86 q 1157 -83 1160 -83 q 1159 -28 1159 -46 l 1159 -20 q 1157 12 1159 -8 q 1164 23 1160 23 q 1165 22 1164 22 q 1168 26 1165 26 q 1171 6 1171 21 q 1177 18 1173 6 l 1179 18 q 1182 4 1182 13 q 1181 -39 1182 -12 q 1184 -56 1184 -53 l 1185 -56 q 1190 -30 1185 -30 q 1195 -35 1190 -32 q 1196 -22 1195 -24 q 1168 66 1190 2 l 1168 73 q 1173 76 1173 75 q 1154 160 1154 149 q 1157 163 1155 163 l 1162 160 q 1170 185 1164 185 q 1171 184 1170 184 q 1179 199 1171 197 l 1181 207 l 1185 207 q 1187 201 1185 206 l 1188 201 l 1188 205 l 1196 204 q 1202 212 1202 209 m 1128 132 q 1140 121 1140 130 q 1146 118 1146 121 l 1146 117 l 1145 113 q 1156 109 1156 113 q 1099 76 1145 98 l 1101 58 q 1099 42 1099 44 q 1122 48 1105 42 q 1133 34 1123 40 l 1133 33 l 1129 28 q 1141 24 1141 28 q 1098 -2 1114 1 l 1098 -14 q 1088 -52 1093 -25 l 1092 -58 q 1090 -75 1090 -68 l 1134 -61 l 1135 -61 q 1139 -64 1139 -62 l 1134 -72 l 1134 -73 l 1137 -72 l 1140 -72 q 1143 -75 1143 -73 l 1134 -89 l 1135 -89 l 1145 -87 l 1146 -91 l 1146 -92 q 1076 -132 1146 -94 q 1059 -96 1059 -132 q 1062 -73 1062 -79 q 1059 -58 1059 -73 l 1055 -61 l 1053 -58 l 1053 -56 q 1063 43 1063 -1 q 1061 58 1061 43 l 1057 56 q 1053 62 1055 56 q 1076 113 1059 113 q 1128 132 1114 132 m 264 82 q 269 58 269 82 l 269 54 l 276 56 q 279 45 279 52 q 284 48 280 45 l 286 48 q 298 -35 293 48 q 283 -122 294 -96 l 270 -134 l 269 -134 q 262 -125 262 -132 l 250 -144 q 243 -128 245 -144 q 239 -132 239 -132 l 237 -132 q 236 -130 236 -132 l 233 -132 l 228 -132 q 203 -25 214 -132 q 211 4 203 1 l 214 3 q 240 66 221 51 l 245 64 q 258 73 258 71 q 264 82 260 82 m 951 73 l 953 70 l 950 59 l 955 59 l 962 65 q 977 42 965 65 q 973 28 973 32 q 981 23 981 28 q 958 -16 972 5 l 958 -19 q 989 -104 989 -74 l 985 -104 q 983 -98 983 -104 l 979 -98 l 979 -111 q 977 -114 979 -114 q 972 -103 972 -113 l 968 -103 q 966 -109 968 -109 q 956 -71 961 -109 q 935 -41 935 -45 l 932 -41 l 932 -120 q 930 -123 932 -123 q 928 -119 928 -121 l 925 -120 q 922 -116 922 -120 q 914 -125 916 -125 q 911 -122 914 -122 q 908 -125 911 -125 l 905 -125 l 900 -64 q 905 23 902 -10 q 889 33 889 29 l 889 34 l 892 39 q 888 43 890 39 l 888 47 q 903 51 888 50 q 951 73 928 60 m 445 59 q 476 14 468 59 l 476 -3 q 465 -61 469 -56 q 454 -80 461 -80 q 406 -142 438 -121 q 399 -149 406 -144 l 398 -149 q 393 -139 393 -147 l 393 -132 q 385 -113 385 -132 l 385 -109 l 391 -103 l 391 -80 q 385 -77 385 -80 l 385 -73 q 391 -39 387 -39 q 393 -50 393 -41 l 395 -50 q 398 -20 398 -38 l 398 -3 l 399 12 l 396 11 l 395 11 q 391 17 391 11 l 384 16 l 382 18 q 412 54 397 54 q 445 59 427 59 m 734 56 l 736 53 q 726 42 736 52 l 727 42 l 736 43 l 738 40 q 734 37 734 40 l 736 37 l 744 39 l 745 35 l 707 7 q 702 -138 703 -37 l 699 -139 q 697 -133 697 -136 l 696 -133 l 692 -134 q 690 -122 690 -132 l 688 -122 q 685 -140 685 -138 l 680 -140 l 679 -133 l 679 -116 q 680 -78 679 -90 q 679 -47 679 -64 q 682 -7 679 -28 l 680 -7 q 652 -16 675 -10 q 650 -14 652 -14 l 650 -39 q 648 -119 648 -111 l 644 -120 q 638 -104 640 -120 l 636 -104 q 616 -139 629 -139 q 612 -133 614 -133 l 602 -147 q 594 -132 598 -147 l 589 -134 q 578 -58 582 -134 q 581 -38 578 -45 q 578 -8 578 -22 l 578 20 q 588 50 585 50 l 589 50 q 593 47 593 49 l 593 37 q 597 26 597 37 l 604 33 l 607 33 q 605 -2 607 26 q 607 -8 605 -5 q 605 -85 605 -8 l 610 -87 q 613 -85 610 -85 l 616 -86 q 619 -49 619 -64 q 618 17 619 -37 q 619 50 619 37 q 624 53 620 50 q 625 48 625 50 l 627 48 q 629 54 629 54 l 632 54 q 636 42 636 54 l 638 42 q 641 53 638 53 q 649 12 646 47 l 650 12 q 659 16 656 16 l 656 18 q 734 56 684 35 m 808 56 l 808 53 q 799 42 799 43 l 806 43 q 810 40 810 43 l 808 37 l 810 37 q 861 56 842 56 l 864 56 q 870 48 868 48 q 881 40 876 41 l 881 39 q 838 14 880 33 l 839 -2 l 839 -14 l 854 -9 q 863 -20 854 -12 l 863 -22 l 861 -25 q 870 -28 870 -25 q 836 -49 844 -49 l 836 -62 q 830 -85 830 -73 l 831 -98 q 830 -104 830 -101 l 831 -104 q 865 -94 834 -104 q 867 -98 867 -97 l 867 -103 q 872 -106 872 -103 l 865 -114 l 865 -116 q 875 -119 875 -116 q 819 -150 873 -121 q 806 -123 806 -150 q 808 -104 806 -121 q 805 -102 805 -104 l 806 -92 l 803 -94 l 800 -94 q 810 -13 810 -47 q 805 -3 808 -13 q 802 0 802 -3 l 802 1 q 805 24 802 10 q 779 -2 779 13 q 775 -138 775 -66 l 772 -139 q 769 -132 769 -135 l 764 -134 q 763 -123 763 -132 q 756 -140 760 -123 l 752 -140 q 750 -120 752 -125 q 752 -69 752 -92 l 752 -35 q 755 -7 752 -14 l 753 -7 q 726 -16 751 -8 l 724 -13 l 730 -5 q 719 -2 719 -5 q 730 6 719 2 l 730 7 l 728 7 l 719 6 l 718 9 q 734 23 727 12 q 808 56 804 56 m 351 54 q 354 45 354 50 l 354 29 l 357 31 l 359 31 q 363 23 363 31 l 367 24 l 368 24 q 378 -42 374 24 q 356 -136 378 -117 l 354 -136 q 349 -128 351 -136 q 338 -144 340 -144 q 336 -132 336 -139 l 332 -133 l 331 -133 q 329 -132 329 -133 l 326 -133 l 323 -133 q 302 -33 309 -133 q 311 -13 302 -16 q 332 40 318 30 l 334 40 l 337 39 q 351 54 345 45 m 535 54 l 540 54 q 563 24 560 54 q 565 0 565 16 l 565 -5 q 562 -8 565 -8 l 558 -7 q 554 -12 558 -9 q 546 -2 551 -12 q 541 -3 543 -3 q 536 18 538 0 q 532 24 534 18 q 534 29 534 28 l 534 31 l 532 31 q 512 -56 513 -14 l 512 -64 q 524 -103 512 -98 l 529 -103 q 547 -58 533 -103 l 551 -56 l 558 -56 q 563 -67 563 -58 l 565 -67 q 570 -60 566 -60 q 574 -78 573 -60 q 549 -127 559 -127 q 532 -139 536 -127 l 529 -140 l 526 -140 l 519 -134 l 516 -136 q 481 -75 507 -136 l 481 -72 q 488 -28 481 -28 l 487 -13 q 529 53 487 25 q 535 54 532 54 m 931 35 q 932 29 931 35 q 930 7 930 26 l 932 7 l 932 -2 q 939 -5 935 -2 l 941 -5 l 950 29 q 937 24 942 24 q 935 34 935 30 l 936 42 q 931 35 933 42 m 431 26 l 429 18 l 429 16 q 420 -77 429 2 l 420 -78 l 421 -78 q 432 -60 428 -60 l 435 -61 q 445 -26 435 -54 l 445 -20 q 443 -16 445 -16 l 445 -8 l 445 23 l 443 23 q 437 14 443 17 q 432 26 433 14 l 431 26 m 245 18 q 239 -44 240 -4 q 240 -86 240 -63 l 240 -87 l 242 -87 q 248 -71 245 -71 l 252 -71 l 253 -77 l 256 -75 l 258 -75 l 260 -77 l 262 -61 l 262 -33 q 264 -12 262 -24 q 258 11 260 11 q 253 1 258 3 q 247 18 249 1 l 245 18 m 649 6 l 649 1 q 656 7 656 5 l 654 7 q 649 6 650 6 m 336 -2 q 331 -58 332 -23 q 332 -94 332 -75 l 334 -94 q 340 -78 335 -78 q 342 -85 342 -81 l 345 -83 l 348 -85 l 349 -73 l 349 -26 l 348 -8 l 347 -8 q 342 -16 345 -16 q 337 -2 338 -16 l 336 -2 m 649 -5 l 649 -13 q 659 -7 655 -7 l 659 -5 l 649 -5 m 1023 -91 q 1028 -100 1025 -91 q 1032 -98 1031 -98 q 1034 -103 1034 -102 q 1032 -108 1032 -106 q 1044 -103 1040 -103 l 1045 -106 l 1045 -109 q 1025 -145 1043 -123 q 1021 -140 1021 -145 l 1015 -145 q 1014 -138 1014 -142 l 1006 -142 q 1003 -138 1003 -142 q 1004 -133 1004 -134 l 1000 -136 l 995 -136 q 1019 -96 1008 -96 q 1023 -91 1019 -93 m 758 -163 l 1206 -163 q 1210 -166 1210 -163 l 1210 -258 q 1206 -262 1210 -262 l 758 -262 q 755 -258 755 -262 l 755 -166 q 758 -163 755 -163 m 389 -164 l 413 -164 q 416 -168 416 -165 l 416 -182 q 413 -186 416 -186 l 398 -186 l 398 -201 l 409 -201 q 412 -203 412 -201 l 412 -217 q 409 -220 412 -220 l 398 -220 l 398 -251 q 395 -255 398 -255 l 389 -255 q 386 -251 386 -255 l 386 -217 l 382 -212 l 382 -209 q 386 -203 386 -205 l 386 -168 q 389 -164 387 -164 m 83 -166 l 99 -166 q 107 -189 107 -169 l 107 -193 q 104 -197 107 -197 l 98 -197 q 95 -186 95 -197 l 87 -186 l 87 -197 q 102 -202 87 -201 q 110 -230 105 -208 q 99 -255 104 -253 l 83 -255 q 75 -237 75 -251 l 75 -227 q 78 -224 75 -224 l 84 -224 l 90 -235 l 92 -235 q 95 -231 95 -235 l 95 -220 l 83 -220 q 72 -191 78 -220 q 83 -166 78 -166 m 123 -166 l 144 -166 q 151 -178 151 -169 l 151 -213 q 140 -226 151 -226 l 132 -226 l 132 -251 q 128 -255 132 -255 l 123 -255 q 121 -251 121 -255 l 121 -218 l 117 -213 l 117 -209 l 121 -203 l 121 -170 q 123 -166 121 -166 m 164 -166 l 190 -166 q 193 -170 193 -167 l 193 -199 l 197 -212 q 193 -222 193 -217 l 193 -251 q 190 -255 193 -255 l 184 -255 q 182 -251 182 -255 l 182 -220 l 172 -220 l 172 -251 q 169 -255 172 -255 l 164 -255 q 161 -251 161 -255 l 161 -222 l 159 -209 q 161 -199 161 -203 l 161 -170 q 164 -166 161 -166 m 210 -166 l 216 -166 q 229 -203 220 -166 l 230 -203 l 230 -170 q 233 -166 231 -166 l 239 -166 q 242 -170 242 -167 l 242 -201 q 245 -212 242 -205 q 242 -222 242 -217 l 242 -251 q 239 -255 242 -255 l 233 -255 q 219 -213 229 -255 l 218 -213 l 218 -251 q 214 -255 218 -255 l 210 -255 q 208 -251 208 -255 l 208 -224 q 203 -212 208 -218 q 208 -199 208 -205 l 208 -170 q 210 -166 208 -166 m 258 -166 l 263 -166 q 266 -170 266 -167 l 266 -201 l 269 -213 q 266 -217 266 -214 l 266 -251 q 263 -255 266 -255 l 258 -255 q 254 -251 254 -255 l 254 -217 l 251 -212 l 251 -209 l 254 -203 l 254 -170 q 258 -166 255 -166 m 286 -166 l 304 -166 q 310 -178 310 -169 l 310 -193 q 307 -197 310 -197 l 303 -197 l 296 -186 l 294 -186 q 290 -189 290 -186 l 290 -197 q 307 -202 290 -201 q 313 -226 311 -226 l 313 -231 q 309 -251 310 -235 q 300 -255 304 -255 l 290 -255 q 280 -242 280 -255 l 280 -227 q 283 -224 281 -224 l 288 -224 l 294 -235 l 298 -235 l 300 -226 q 298 -220 298 -222 l 290 -220 q 279 -195 279 -220 q 277 -189 277 -195 q 286 -166 282 -166 m 327 -166 l 333 -166 q 336 -170 336 -167 l 336 -201 l 345 -201 l 345 -170 q 349 -166 346 -166 l 353 -166 q 356 -170 356 -167 l 356 -197 q 359 -212 356 -198 l 356 -224 l 356 -251 q 353 -255 356 -255 l 349 -255 q 345 -251 345 -255 l 345 -220 l 336 -220 l 336 -251 q 333 -255 336 -255 l 327 -255 q 324 -251 324 -255 l 324 -217 l 321 -212 l 321 -209 q 324 -203 324 -205 l 324 -170 q 327 -166 325 -166 m 433 -166 l 452 -166 q 457 -178 457 -169 l 457 -203 l 460 -209 l 460 -213 l 457 -218 l 457 -240 q 450 -255 457 -250 l 437 -255 q 427 -242 427 -255 l 427 -224 q 422 -212 427 -218 q 427 -199 427 -205 l 427 -178 q 433 -166 427 -169 m 474 -166 l 480 -166 q 494 -208 484 -166 l 496 -208 l 496 -170 q 498 -166 496 -166 l 503 -166 q 506 -170 506 -167 l 506 -201 q 509 -215 506 -202 q 506 -218 506 -216 l 506 -251 q 503 -255 506 -255 l 497 -255 q 483 -212 493 -255 l 481 -212 l 481 -251 q 479 -255 481 -255 l 474 -255 q 471 -251 471 -255 l 471 -218 l 468 -213 l 468 -209 q 471 -203 471 -205 l 471 -170 q 474 -166 472 -166 m 518 -166 l 545 -166 q 549 -170 549 -167 l 549 -182 q 545 -186 549 -186 l 538 -186 l 538 -203 l 541 -209 l 541 -213 l 538 -218 l 538 -251 q 534 -255 538 -255 l 530 -255 q 528 -251 528 -255 l 528 -224 q 523 -212 528 -218 l 528 -202 l 528 -186 l 518 -186 q 515 -182 515 -186 l 515 -170 q 518 -166 515 -166 m 583 -166 q 589 -181 587 -166 l 589 -193 q 587 -197 589 -197 l 580 -197 q 578 -186 578 -197 l 570 -186 l 570 -197 q 585 -202 570 -201 q 593 -230 587 -205 q 582 -255 587 -255 l 565 -255 q 557 -226 558 -255 l 560 -224 l 567 -224 l 573 -235 l 574 -235 q 578 -231 578 -235 l 578 -220 l 565 -220 q 556 -193 560 -220 q 554 -191 554 -193 q 564 -166 560 -172 l 583 -166 m 625 -166 l 629 -166 q 632 -170 632 -167 l 632 -203 q 635 -212 635 -208 q 632 -222 632 -217 l 632 -235 l 646 -235 q 649 -238 649 -235 l 649 -251 q 646 -255 649 -255 l 625 -255 q 621 -251 621 -255 l 621 -224 q 618 -209 621 -222 l 618 -208 l 621 -202 l 621 -170 q 625 -166 622 -166 m 663 -166 l 688 -166 q 691 -170 691 -167 l 691 -199 l 694 -212 q 691 -222 691 -217 l 691 -251 q 688 -255 691 -255 l 684 -255 q 680 -251 680 -255 l 680 -220 l 670 -220 l 670 -251 q 667 -255 670 -255 l 663 -255 q 659 -251 659 -255 l 659 -222 l 656 -209 q 659 -199 659 -203 l 659 -170 q 663 -166 660 -166 m 708 -166 l 730 -166 q 736 -181 734 -166 l 736 -195 q 735 -209 736 -202 q 736 -224 736 -216 l 736 -240 q 729 -255 736 -250 l 708 -255 q 705 -251 705 -255 l 705 -217 l 702 -212 l 702 -209 q 705 -203 705 -205 l 705 -170 q 708 -166 705 -166 m 132 -186 l 132 -208 l 137 -208 q 140 -203 140 -208 l 140 -189 q 137 -186 140 -186 l 132 -186 m 172 -186 l 172 -201 l 182 -201 l 182 -186 l 172 -186 m 437 -189 l 437 -231 q 441 -235 438 -235 l 446 -235 l 447 -226 l 447 -195 l 446 -186 l 441 -186 q 437 -189 437 -186 m 670 -186 l 670 -197 q 673 -201 671 -201 l 678 -201 q 680 -197 680 -201 l 680 -186 l 670 -186 m 717 -186 l 717 -199 l 725 -199 l 725 -186 l 717 -186 m 791 -182 l 791 -183 l 795 -189 l 795 -235 l 791 -240 l 791 -243 l 808 -243 l 808 -240 l 805 -235 l 805 -205 l 806 -205 q 823 -225 808 -205 l 825 -225 q 838 -205 825 -221 l 840 -205 l 840 -235 l 837 -240 l 837 -243 l 861 -243 q 864 -240 864 -243 q 859 -235 862 -240 l 859 -189 q 864 -186 859 -186 l 864 -182 l 842 -182 q 829 -200 842 -186 l 827 -200 l 811 -182 l 791 -182 m 873 -182 l 873 -186 q 878 -189 878 -186 l 878 -235 q 873 -237 878 -237 l 873 -243 l 892 -243 l 892 -237 q 887 -235 887 -237 l 887 -205 l 888 -205 l 907 -225 q 922 -205 918 -208 l 924 -205 l 924 -235 q 919 -237 924 -237 l 919 -243 l 947 -243 l 947 -240 l 943 -235 l 943 -189 l 947 -183 l 947 -182 l 926 -182 l 911 -200 l 909 -200 l 895 -182 l 873 -182 m 955 -182 l 955 -186 q 976 -218 962 -186 q 955 -237 960 -237 l 955 -243 l 975 -243 l 974 -235 l 983 -225 q 989 -236 989 -235 q 987 -243 987 -239 l 1015 -243 q 1018 -240 1018 -243 q 996 -211 1009 -235 l 996 -207 q 1018 -186 1011 -186 l 1018 -182 l 998 -182 l 998 -183 q 1000 -189 1000 -187 l 990 -200 q 984 -186 984 -193 l 985 -186 l 985 -182 l 955 -182 m 1022 -182 l 1022 -186 q 1044 -218 1029 -186 q 1022 -237 1027 -237 l 1022 -243 l 1042 -243 l 1040 -235 l 1049 -225 q 1055 -236 1055 -235 q 1054 -243 1054 -239 l 1081 -243 q 1084 -240 1084 -243 q 1063 -211 1076 -235 l 1063 -207 q 1084 -186 1078 -186 l 1084 -182 l 1065 -182 l 1065 -183 q 1066 -189 1066 -187 l 1057 -200 q 1050 -186 1050 -193 l 1052 -186 l 1052 -182 l 1022 -182 m 1092 -182 l 1092 -186 q 1097 -189 1097 -186 l 1097 -235 l 1092 -241 l 1095 -243 l 1120 -243 l 1120 -240 l 1116 -235 l 1116 -189 l 1120 -183 l 1120 -182 l 1092 -182 m 1130 -182 l 1130 -186 q 1135 -189 1135 -186 l 1135 -235 q 1130 -237 1135 -237 l 1130 -243 l 1157 -243 l 1157 -240 l 1154 -235 l 1154 -189 q 1157 -183 1157 -184 l 1157 -182 l 1130 -182 m 717 -220 l 717 -235 l 722 -235 q 725 -231 725 -235 l 725 -220 l 717 -220 m 1170 -182 l 1170 -186 q 1174 -189 1174 -186 l 1174 -235 q 1170 -237 1174 -237 l 1170 -243 l 1197 -243 l 1197 -240 l 1194 -235 l 1194 -189 q 1197 -183 1197 -184 l 1197 -182 l 1170 -182 z "},"£":{"ha":920,"x_min":0,"x_max":895,"o":"m 425 983 l 501 983 q 831 804 723 983 q 845 732 845 761 l 845 724 q 772 635 845 635 l 723 635 q 506 642 692 635 q 448 783 478 642 q 420 806 430 806 l 416 806 q 384 755 384 797 l 384 741 q 470 591 384 665 q 633 574 518 584 q 709 509 709 558 q 623 376 709 376 q 465 313 503 376 q 366 194 366 198 q 465 174 366 174 q 555 254 555 174 q 660 310 567 310 l 791 310 q 895 254 895 310 l 895 223 q 745 20 895 52 q 592 0 669 0 l 574 0 q 258 26 546 0 l 226 26 q 50 22 63 22 q 22 41 22 27 l 22 82 q 109 245 22 151 q 149 349 149 305 l 149 351 q 90 380 149 380 q 5 433 15 380 q 0 535 5 481 q 54 579 0 579 l 63 589 q 27 703 27 642 q 221 949 27 871 q 425 983 321 983 z "},"¤":{"ha":688,"x_min":0,"x_max":0,"o":""},"¥":{"ha":856,"x_min":0,"x_max":0,"o":""},"¦":{"ha":688,"x_min":0,"x_max":0,"o":""},"§":{"ha":688,"x_min":0,"x_max":0,"o":""},"¨":{"ha":694,"x_min":0,"x_max":0,"o":""},"©":{"ha":1280,"x_min":61,"x_max":1226,"o":"m 443 1127 l 452 1127 q 616 1001 560 1127 q 633 937 633 957 q 649 941 642 941 l 656 941 q 696 898 688 941 q 690 862 690 867 l 690 857 l 697 814 l 697 810 q 685 778 697 791 q 718 723 689 774 q 766 678 718 720 q 810 646 777 646 q 872 625 859 646 q 1000 575 872 611 q 1097 505 1029 551 q 1124 454 1108 494 q 1146 396 1146 430 q 1176 298 1157 308 q 1196 267 1196 275 l 1196 256 q 1110 174 1196 228 q 1019 140 1057 140 l 1008 142 q 951 123 1008 130 q 853 78 893 82 q 806 75 825 75 q 763 81 778 75 q 696 65 703 65 q 674 71 689 65 q 659 66 666 66 l 649 66 q 607 70 645 66 q 530 62 541 62 q 421 75 521 62 q 264 102 325 82 q 136 159 174 129 l 136 160 q 186 319 136 211 q 262 396 248 396 q 385 497 274 396 l 387 497 l 387 500 q 312 681 382 560 q 300 741 306 693 q 283 772 283 758 q 275 787 275 781 q 279 803 279 795 q 248 882 279 819 q 243 917 243 894 l 243 937 q 325 1102 243 1021 q 443 1127 404 1127 m 279 952 l 279 930 q 328 804 279 856 l 337 804 q 384 792 345 804 q 412 751 408 792 l 412 709 q 426 663 412 663 q 441 661 435 661 q 468 688 447 688 q 484 700 484 688 l 484 701 q 463 711 463 703 q 484 726 470 726 q 507 694 507 718 q 500 676 505 681 l 500 675 l 515 675 q 512 688 512 686 l 512 690 q 516 695 512 692 q 577 636 558 646 l 578 636 q 574 656 574 644 l 574 672 q 599 688 574 682 l 613 700 l 613 707 q 612 732 613 717 q 630 748 612 741 l 630 750 q 610 832 623 823 q 602 856 602 850 l 602 857 q 610 871 605 871 l 612 871 q 666 803 633 849 l 667 803 q 674 819 671 803 q 672 856 672 840 l 672 862 q 677 899 672 865 q 656 917 677 917 q 641 909 645 917 l 641 907 l 644 909 q 671 892 671 906 q 663 884 668 884 q 648 890 652 890 l 644 890 q 625 876 632 876 q 614 948 616 882 q 555 1057 596 1019 q 421 1104 491 1104 q 286 1001 317 1104 q 279 952 279 970 m 463 1086 l 468 1086 q 474 1080 471 1086 l 474 1079 q 462 1066 474 1066 q 451 1077 451 1066 q 463 1086 454 1086 m 493 1085 l 503 1085 q 509 1079 505 1085 l 509 1077 q 500 1065 509 1069 l 499 1065 q 487 1073 491 1065 l 487 1074 q 493 1085 487 1082 m 527 1066 l 529 1066 q 543 1046 543 1066 q 538 1040 541 1040 l 535 1040 q 521 1055 523 1040 q 527 1066 521 1064 m 490 1054 l 492 1054 q 504 1043 504 1053 q 494 1034 500 1034 q 484 1043 488 1036 q 490 1054 484 1051 m 560 1042 q 571 1027 571 1037 l 571 1026 q 563 1021 571 1022 q 549 1030 555 1021 q 560 1042 549 1042 m 516 1040 l 518 1040 q 527 1035 527 1039 l 527 1027 q 523 1018 527 1019 l 519 1018 q 509 1029 509 1018 q 516 1040 509 1035 m 552 1019 q 558 1010 558 1017 q 554 999 557 999 q 538 1006 538 1001 l 538 1010 q 552 1019 544 1019 m 490 1015 q 509 1006 503 1015 l 509 996 q 499 990 509 993 q 484 1007 484 994 q 490 1015 487 1014 m 570 1001 l 578 1001 q 585 988 583 1001 q 578 981 582 981 q 565 990 570 981 l 565 996 q 570 1001 565 998 m 546 990 l 547 990 q 554 977 551 990 l 547 972 q 535 982 535 975 q 546 990 537 990 m 587 976 l 588 976 q 602 966 597 976 l 602 959 q 596 952 602 956 l 594 952 q 581 966 581 954 q 587 976 581 972 m 527 971 l 530 971 q 538 959 538 967 q 530 943 538 947 q 518 951 522 943 l 518 957 q 527 971 518 966 m 568 964 q 577 956 574 961 l 577 946 q 572 941 577 944 l 568 941 q 557 951 557 948 q 568 964 559 964 m 593 939 q 605 917 605 934 q 599 909 602 909 l 596 909 q 583 921 583 909 l 583 928 q 593 939 583 939 m 512 920 q 541 899 534 920 q 535 892 538 892 q 507 901 530 892 l 505 901 q 452 875 493 901 l 441 875 q 438 878 438 875 l 438 879 q 503 920 438 905 l 512 920 m 367 888 l 368 888 q 385 873 378 888 q 404 878 399 878 l 407 878 q 414 870 414 874 q 395 856 414 863 q 410 817 410 823 l 410 810 q 401 806 409 806 q 376 846 387 806 l 374 846 q 354 839 358 839 l 353 839 q 348 844 351 839 l 348 846 q 363 865 348 854 q 359 878 359 876 q 367 888 362 887 m 516 888 l 518 888 q 551 863 551 881 q 487 852 551 854 q 479 850 487 850 l 479 848 l 518 848 q 545 844 530 848 l 545 840 q 488 779 545 808 l 488 778 q 504 773 498 773 l 512 773 q 543 790 538 773 q 551 808 543 808 q 565 797 562 803 l 565 795 q 538 756 565 767 q 516 753 526 753 l 509 753 q 454 773 479 753 l 454 772 q 462 751 454 770 l 462 750 q 456 745 462 745 q 427 789 433 745 q 445 829 427 813 q 441 842 441 835 q 516 888 474 888 m 648 871 l 649 871 q 669 831 669 866 q 663 828 665 828 q 643 868 650 828 l 648 871 m 499 832 l 498 829 q 503 819 503 823 l 503 812 q 515 829 515 812 l 515 831 l 499 832 m 462 809 q 465 803 463 803 q 485 801 466 803 q 473 819 473 810 l 473 825 l 471 825 q 462 809 466 825 m 585 790 l 588 790 q 601 772 601 781 l 601 767 q 570 722 601 760 q 558 700 564 700 q 551 699 556 699 q 546 719 546 706 l 546 722 q 581 766 546 745 l 581 781 q 585 790 581 790 m 353 768 l 353 767 q 360 756 357 757 l 368 766 l 368 768 l 353 768 m 328 758 l 321 750 q 331 747 324 750 l 331 754 q 328 758 331 758 m 326 722 q 393 597 330 678 q 414 648 393 606 l 414 650 q 390 692 390 650 q 382 714 387 714 q 359 701 379 714 l 354 701 q 348 707 352 701 l 348 712 q 373 739 373 734 l 370 739 q 326 722 352 722 m 705 701 l 705 699 q 733 616 711 687 q 763 636 747 616 q 705 701 739 664 m 632 683 q 646 669 634 669 q 649 673 649 673 l 649 681 q 644 690 649 689 l 636 690 q 632 683 633 690 m 605 642 q 610 634 607 634 l 612 634 q 623 641 620 634 q 613 658 618 658 l 612 658 q 605 642 607 658 m 487 641 q 493 631 487 634 q 509 641 509 633 q 498 652 509 652 q 487 641 487 652 m 743 589 q 774 466 756 564 q 780 452 780 459 l 780 446 q 775 441 780 444 q 744 471 766 441 l 741 472 l 739 472 l 739 471 q 741 452 741 454 q 733 443 741 446 q 719 455 730 443 l 718 455 l 718 452 q 730 402 718 444 q 732 391 732 396 q 724 377 728 377 q 677 456 712 388 l 672 460 l 660 396 q 652 387 654 387 l 650 387 q 643 405 646 387 l 641 405 q 608 351 635 398 l 601 346 q 582 410 594 353 l 581 410 q 566 338 573 410 l 560 332 l 558 332 q 541 376 550 332 l 538 376 q 526 338 534 341 l 524 338 q 504 385 517 344 l 499 389 q 484 347 496 347 l 482 347 q 452 430 469 347 l 432 393 q 420 387 423 387 q 404 458 414 387 q 399 469 402 458 q 331 355 331 389 q 313 309 323 309 l 311 309 q 304 351 304 327 l 306 401 l 304 401 q 192 252 220 340 q 187 221 187 227 q 212 235 205 235 l 216 235 q 224 231 224 234 l 224 229 q 174 174 174 185 q 170 165 174 172 q 279 126 248 126 l 290 126 q 258 165 258 152 l 258 170 q 269 185 258 178 q 306 149 272 185 l 307 149 q 304 187 304 171 q 306 252 304 202 l 304 262 q 309 268 307 268 l 315 268 q 343 163 330 268 q 357 113 352 113 q 482 90 357 98 l 482 92 q 465 180 465 159 q 474 199 465 194 l 481 199 q 515 101 494 199 q 524 89 519 91 l 534 89 q 577 96 577 90 l 577 101 l 566 238 q 596 324 566 304 l 597 324 q 601 310 601 319 l 593 268 l 593 264 q 605 121 593 251 l 605 102 q 640 85 614 85 q 672 104 672 85 q 699 345 684 157 q 711 354 703 354 q 727 316 727 340 q 701 104 701 123 q 702 100 702 101 q 750 115 747 111 q 830 285 806 223 q 878 334 848 319 q 892 336 880 334 l 900 327 q 875 302 900 318 q 844 226 862 288 q 811 132 811 172 q 785 102 808 123 l 783 100 l 783 98 l 791 96 l 827 96 q 932 136 876 96 q 977 146 958 146 q 1040 287 979 172 q 1063 335 1045 310 q 1073 347 1068 345 q 1087 326 1087 347 q 1021 189 1087 296 q 1013 160 1013 163 l 1017 160 q 1134 212 1053 160 q 1168 254 1168 242 q 1134 307 1168 269 l 1134 296 q 1120 276 1131 276 q 1114 292 1114 282 l 1114 298 q 1117 334 1117 332 l 1103 414 q 1092 469 1103 469 q 1042 365 1092 433 q 1014 335 1027 336 q 1008 347 1008 342 l 1008 357 q 1063 480 1063 420 q 1004 528 1014 514 q 1001 541 1001 538 q 961 509 961 526 q 941 446 955 500 q 930 432 932 432 q 920 466 920 445 q 961 558 920 507 l 961 559 q 861 578 918 578 q 816 522 844 568 l 810 517 q 802 532 805 517 l 802 543 q 839 606 802 570 q 841 612 841 609 q 805 625 841 619 q 743 589 764 625 m 677 617 q 674 608 677 614 q 694 587 680 587 l 697 587 l 697 594 q 683 617 697 608 l 677 617 m 479 602 l 471 602 q 440 581 465 593 l 438 578 l 448 578 q 504 597 459 578 q 524 606 517 597 q 529 611 526 606 l 529 612 l 523 612 q 479 602 486 602 m 572 569 q 585 556 572 565 q 594 564 591 559 l 594 568 q 582 580 594 580 l 578 580 q 572 569 572 577 m 500 538 l 500 536 q 516 524 500 524 l 518 524 l 521 533 q 512 547 521 541 l 505 547 q 500 538 500 545 m 450 532 q 462 521 452 521 l 463 521 q 469 533 467 521 l 469 539 q 458 545 467 545 l 456 545 q 450 532 450 543 m 660 541 l 659 533 l 659 530 q 682 500 663 500 l 685 500 q 665 541 685 519 l 660 541 m 538 503 q 552 490 541 490 q 560 498 560 492 q 551 514 555 514 l 545 514 q 538 503 538 512 m 581 502 q 593 483 585 483 l 601 483 q 602 492 601 484 q 587 513 600 513 q 581 502 583 513 m 496 500 q 493 491 496 498 q 510 471 496 471 l 513 471 q 516 480 514 480 q 499 500 512 500 l 496 500 m 540 446 q 554 430 543 430 q 563 441 563 433 q 551 456 563 452 q 540 446 543 456 m 605 446 l 605 443 q 616 430 605 430 l 618 430 q 623 439 623 432 l 623 444 q 616 455 623 452 l 610 455 q 605 446 605 454 m 823 456 l 830 456 q 836 425 834 456 q 791 321 836 363 q 786 332 786 327 q 803 366 786 336 q 823 456 810 456 m 373 361 l 378 361 q 390 347 380 361 l 390 330 q 418 198 390 311 q 420 184 420 189 q 414 167 418 167 q 380 232 398 167 q 367 319 367 285 l 367 355 q 373 361 367 357 m 67 229 q 77 195 72 229 l 78 195 q 84 214 80 214 q 92 144 89 214 q 102 -31 102 40 l 103 -31 q 111 56 111 32 l 111 60 q 114 64 111 64 q 122 48 118 64 l 123 48 q 127 64 123 64 q 146 6 132 64 l 149 6 l 149 9 q 146 95 146 63 q 145 115 145 114 l 149 117 q 153 109 153 117 l 155 109 q 158 115 155 115 q 164 102 162 115 l 165 102 l 165 118 q 169 121 166 121 q 184 -28 178 121 q 192 -114 186 -28 l 189 -116 q 186 -108 186 -112 l 184 -108 q 181 -114 184 -114 q 178 -111 181 -111 q 174 -119 177 -119 q 165 -109 168 -109 q 153 -81 158 -109 q 144 -66 146 -81 l 140 -67 q 130 -35 136 -67 l 128 -35 l 128 -38 q 127 -132 128 -51 q 120 -150 125 -150 q 114 -127 114 -150 l 113 -127 q 111 -144 113 -133 l 108 -144 q 103 -132 103 -143 l 102 -132 q 97 -149 102 -149 l 96 -149 q 91 -138 92 -149 l 89 -138 q 84 -150 89 -150 q 69 -50 74 -143 q 64 156 64 43 q 61 205 61 197 l 61 210 q 67 229 61 229 m 1202 212 l 1207 212 q 1212 191 1212 195 l 1213 191 q 1217 201 1213 201 q 1226 102 1226 158 l 1223 101 q 1219 104 1223 104 q 1213 78 1216 101 l 1212 78 q 1206 111 1208 78 l 1204 111 q 1201 98 1204 98 q 1192 159 1198 106 l 1190 159 q 1188 125 1188 136 l 1188 120 l 1201 62 q 1221 -19 1207 62 l 1221 -20 q 1217 -89 1219 -67 l 1212 -89 l 1212 -67 l 1211 -67 q 1193 -128 1202 -102 l 1188 -128 q 1187 -109 1187 -117 q 1175 -133 1182 -112 l 1173 -133 l 1171 -130 l 1171 -104 l 1170 -104 q 1164 -120 1168 -120 q 1160 -87 1160 -112 l 1160 -86 q 1157 -83 1160 -83 q 1159 -28 1159 -46 l 1159 -20 q 1157 12 1159 -8 q 1164 23 1160 23 q 1165 22 1164 22 q 1168 26 1165 26 q 1171 6 1171 21 q 1177 18 1173 6 l 1179 18 q 1182 4 1182 13 q 1181 -39 1182 -12 q 1184 -56 1184 -53 l 1185 -56 q 1190 -30 1185 -30 q 1195 -35 1190 -32 q 1196 -22 1195 -24 q 1168 66 1190 2 l 1168 73 q 1173 76 1173 75 q 1154 160 1154 149 q 1157 163 1155 163 l 1162 160 q 1170 185 1164 185 q 1171 184 1170 184 q 1179 199 1171 197 l 1181 207 l 1185 207 q 1187 201 1185 206 l 1188 201 l 1188 205 l 1196 204 q 1202 212 1202 209 m 1128 132 q 1140 121 1140 130 q 1146 118 1146 121 l 1146 117 l 1145 113 q 1156 109 1156 113 q 1099 76 1145 98 l 1101 58 q 1099 42 1099 44 q 1122 48 1105 42 q 1133 34 1123 40 l 1133 33 l 1129 28 q 1141 24 1141 28 q 1098 -2 1114 1 l 1098 -14 q 1088 -52 1093 -25 l 1092 -58 q 1090 -75 1090 -68 l 1134 -61 l 1135 -61 q 1139 -64 1139 -62 l 1134 -72 l 1134 -73 l 1137 -72 l 1140 -72 q 1143 -75 1143 -73 l 1134 -89 l 1135 -89 l 1145 -87 l 1146 -91 l 1146 -92 q 1076 -132 1146 -94 q 1059 -96 1059 -132 q 1062 -73 1062 -79 q 1059 -58 1059 -73 l 1055 -61 l 1053 -58 l 1053 -56 q 1063 43 1063 -1 q 1061 58 1061 43 l 1057 56 q 1053 62 1055 56 q 1076 113 1059 113 q 1128 132 1114 132 m 264 82 q 269 58 269 82 l 269 54 l 276 56 q 279 45 279 52 q 284 48 280 45 l 286 48 q 298 -35 293 48 q 283 -122 294 -96 l 270 -134 l 269 -134 q 262 -125 262 -132 l 250 -144 q 243 -128 245 -144 q 239 -132 239 -132 l 237 -132 q 236 -130 236 -132 l 233 -132 l 228 -132 q 203 -25 214 -132 q 211 4 203 1 l 214 3 q 240 66 221 51 l 245 64 q 258 73 258 71 q 264 82 260 82 m 951 73 l 953 70 l 950 59 l 955 59 l 962 65 q 977 42 965 65 q 973 28 973 32 q 981 23 981 28 q 958 -16 972 5 l 958 -19 q 989 -104 989 -74 l 985 -104 q 983 -98 983 -104 l 979 -98 l 979 -111 q 977 -114 979 -114 q 972 -103 972 -113 l 968 -103 q 966 -109 968 -109 q 956 -71 961 -109 q 935 -41 935 -45 l 932 -41 l 932 -120 q 930 -123 932 -123 q 928 -119 928 -121 l 925 -120 q 922 -116 922 -120 q 914 -125 916 -125 q 911 -122 914 -122 q 908 -125 911 -125 l 905 -125 l 900 -64 q 905 23 902 -10 q 889 33 889 29 l 889 34 l 892 39 q 888 43 890 39 l 888 47 q 903 51 888 50 q 951 73 928 60 m 445 59 q 476 14 468 59 l 476 -3 q 465 -61 469 -56 q 454 -80 461 -80 q 406 -142 438 -121 q 399 -149 406 -144 l 398 -149 q 393 -139 393 -147 l 393 -132 q 385 -113 385 -132 l 385 -109 l 391 -103 l 391 -80 q 385 -77 385 -80 l 385 -73 q 391 -39 387 -39 q 393 -50 393 -41 l 395 -50 q 398 -20 398 -38 l 398 -3 l 399 12 l 396 11 l 395 11 q 391 17 391 11 l 384 16 l 382 18 q 412 54 397 54 q 445 59 427 59 m 734 56 l 736 53 q 726 42 736 52 l 727 42 l 736 43 l 738 40 q 734 37 734 40 l 736 37 l 744 39 l 745 35 l 707 7 q 702 -138 703 -37 l 699 -139 q 697 -133 697 -136 l 696 -133 l 692 -134 q 690 -122 690 -132 l 688 -122 q 685 -140 685 -138 l 680 -140 l 679 -133 l 679 -116 q 680 -78 679 -90 q 679 -47 679 -64 q 682 -7 679 -28 l 680 -7 q 652 -16 675 -10 q 650 -14 652 -14 l 650 -39 q 648 -119 648 -111 l 644 -120 q 638 -104 640 -120 l 636 -104 q 616 -139 629 -139 q 612 -133 614 -133 l 602 -147 q 594 -132 598 -147 l 589 -134 q 578 -58 582 -134 q 581 -38 578 -45 q 578 -8 578 -22 l 578 20 q 588 50 585 50 l 589 50 q 593 47 593 49 l 593 37 q 597 26 597 37 l 604 33 l 607 33 q 605 -2 607 26 q 607 -8 605 -5 q 605 -85 605 -8 l 610 -87 q 613 -85 610 -85 l 616 -86 q 619 -49 619 -64 q 618 17 619 -37 q 619 50 619 37 q 624 53 620 50 q 625 48 625 50 l 627 48 q 629 54 629 54 l 632 54 q 636 42 636 54 l 638 42 q 641 53 638 53 q 649 12 646 47 l 650 12 q 659 16 656 16 l 656 18 q 734 56 684 35 m 808 56 l 808 53 q 799 42 799 43 l 806 43 q 810 40 810 43 l 808 37 l 810 37 q 861 56 842 56 l 864 56 q 870 48 868 48 q 881 40 876 41 l 881 39 q 838 14 880 33 l 839 -2 l 839 -14 l 854 -9 q 863 -20 854 -12 l 863 -22 l 861 -25 q 870 -28 870 -25 q 836 -49 844 -49 l 836 -62 q 830 -85 830 -73 l 831 -98 q 830 -104 830 -101 l 831 -104 q 865 -94 834 -104 q 867 -98 867 -97 l 867 -103 q 872 -106 872 -103 l 865 -114 l 865 -116 q 875 -119 875 -116 q 819 -150 873 -121 q 806 -123 806 -150 q 808 -104 806 -121 q 805 -102 805 -104 l 806 -92 l 803 -94 l 800 -94 q 810 -13 810 -47 q 805 -3 808 -13 q 802 0 802 -3 l 802 1 q 805 24 802 10 q 779 -2 779 13 q 775 -138 775 -66 l 772 -139 q 769 -132 769 -135 l 764 -134 q 763 -123 763 -132 q 756 -140 760 -123 l 752 -140 q 750 -120 752 -125 q 752 -69 752 -92 l 752 -35 q 755 -7 752 -14 l 753 -7 q 726 -16 751 -8 l 724 -13 l 730 -5 q 719 -2 719 -5 q 730 6 719 2 l 730 7 l 728 7 l 719 6 l 718 9 q 734 23 727 12 q 808 56 804 56 m 351 54 q 354 45 354 50 l 354 29 l 357 31 l 359 31 q 363 23 363 31 l 367 24 l 368 24 q 378 -42 374 24 q 356 -136 378 -117 l 354 -136 q 349 -128 351 -136 q 338 -144 340 -144 q 336 -132 336 -139 l 332 -133 l 331 -133 q 329 -132 329 -133 l 326 -133 l 323 -133 q 302 -33 309 -133 q 311 -13 302 -16 q 332 40 318 30 l 334 40 l 337 39 q 351 54 345 45 m 535 54 l 540 54 q 563 24 560 54 q 565 0 565 16 l 565 -5 q 562 -8 565 -8 l 558 -7 q 554 -12 558 -9 q 546 -2 551 -12 q 541 -3 543 -3 q 536 18 538 0 q 532 24 534 18 q 534 29 534 28 l 534 31 l 532 31 q 512 -56 513 -14 l 512 -64 q 524 -103 512 -98 l 529 -103 q 547 -58 533 -103 l 551 -56 l 558 -56 q 563 -67 563 -58 l 565 -67 q 570 -60 566 -60 q 574 -78 573 -60 q 549 -127 559 -127 q 532 -139 536 -127 l 529 -140 l 526 -140 l 519 -134 l 516 -136 q 481 -75 507 -136 l 481 -72 q 488 -28 481 -28 l 487 -13 q 529 53 487 25 q 535 54 532 54 m 931 35 q 932 29 931 35 q 930 7 930 26 l 932 7 l 932 -2 q 939 -5 935 -2 l 941 -5 l 950 29 q 937 24 942 24 q 935 34 935 30 l 936 42 q 931 35 933 42 m 431 26 l 429 18 l 429 16 q 420 -77 429 2 l 420 -78 l 421 -78 q 432 -60 428 -60 l 435 -61 q 445 -26 435 -54 l 445 -20 q 443 -16 445 -16 l 445 -8 l 445 23 l 443 23 q 437 14 443 17 q 432 26 433 14 l 431 26 m 245 18 q 239 -44 240 -4 q 240 -86 240 -63 l 240 -87 l 242 -87 q 248 -71 245 -71 l 252 -71 l 253 -77 l 256 -75 l 258 -75 l 260 -77 l 262 -61 l 262 -33 q 264 -12 262 -24 q 258 11 260 11 q 253 1 258 3 q 247 18 249 1 l 245 18 m 649 6 l 649 1 q 656 7 656 5 l 654 7 q 649 6 650 6 m 336 -2 q 331 -58 332 -23 q 332 -94 332 -75 l 334 -94 q 340 -78 335 -78 q 342 -85 342 -81 l 345 -83 l 348 -85 l 349 -73 l 349 -26 l 348 -8 l 347 -8 q 342 -16 345 -16 q 337 -2 338 -16 l 336 -2 m 649 -5 l 649 -13 q 659 -7 655 -7 l 659 -5 l 649 -5 m 1023 -91 q 1028 -100 1025 -91 q 1032 -98 1031 -98 q 1034 -103 1034 -102 q 1032 -108 1032 -106 q 1044 -103 1040 -103 l 1045 -106 l 1045 -109 q 1025 -145 1043 -123 q 1021 -140 1021 -145 l 1015 -145 q 1014 -138 1014 -142 l 1006 -142 q 1003 -138 1003 -142 q 1004 -133 1004 -134 l 1000 -136 l 995 -136 q 1019 -96 1008 -96 q 1023 -91 1019 -93 m 758 -163 l 1206 -163 q 1210 -166 1210 -163 l 1210 -258 q 1206 -262 1210 -262 l 758 -262 q 755 -258 755 -262 l 755 -166 q 758 -163 755 -163 m 389 -164 l 413 -164 q 416 -168 416 -165 l 416 -182 q 413 -186 416 -186 l 398 -186 l 398 -201 l 409 -201 q 412 -203 412 -201 l 412 -217 q 409 -220 412 -220 l 398 -220 l 398 -251 q 395 -255 398 -255 l 389 -255 q 386 -251 386 -255 l 386 -217 l 382 -212 l 382 -209 q 386 -203 386 -205 l 386 -168 q 389 -164 387 -164 m 83 -166 l 99 -166 q 107 -189 107 -169 l 107 -193 q 104 -197 107 -197 l 98 -197 q 95 -186 95 -197 l 87 -186 l 87 -197 q 102 -202 87 -201 q 110 -230 105 -208 q 99 -255 104 -253 l 83 -255 q 75 -237 75 -251 l 75 -227 q 78 -224 75 -224 l 84 -224 l 90 -235 l 92 -235 q 95 -231 95 -235 l 95 -220 l 83 -220 q 72 -191 78 -220 q 83 -166 78 -166 m 123 -166 l 144 -166 q 151 -178 151 -169 l 151 -213 q 140 -226 151 -226 l 132 -226 l 132 -251 q 128 -255 132 -255 l 123 -255 q 121 -251 121 -255 l 121 -218 l 117 -213 l 117 -209 l 121 -203 l 121 -170 q 123 -166 121 -166 m 164 -166 l 190 -166 q 193 -170 193 -167 l 193 -199 l 197 -212 q 193 -222 193 -217 l 193 -251 q 190 -255 193 -255 l 184 -255 q 182 -251 182 -255 l 182 -220 l 172 -220 l 172 -251 q 169 -255 172 -255 l 164 -255 q 161 -251 161 -255 l 161 -222 l 159 -209 q 161 -199 161 -203 l 161 -170 q 164 -166 161 -166 m 210 -166 l 216 -166 q 229 -203 220 -166 l 230 -203 l 230 -170 q 233 -166 231 -166 l 239 -166 q 242 -170 242 -167 l 242 -201 q 245 -212 242 -205 q 242 -222 242 -217 l 242 -251 q 239 -255 242 -255 l 233 -255 q 219 -213 229 -255 l 218 -213 l 218 -251 q 214 -255 218 -255 l 210 -255 q 208 -251 208 -255 l 208 -224 q 203 -212 208 -218 q 208 -199 208 -205 l 208 -170 q 210 -166 208 -166 m 258 -166 l 263 -166 q 266 -170 266 -167 l 266 -201 l 269 -213 q 266 -217 266 -214 l 266 -251 q 263 -255 266 -255 l 258 -255 q 254 -251 254 -255 l 254 -217 l 251 -212 l 251 -209 l 254 -203 l 254 -170 q 258 -166 255 -166 m 286 -166 l 304 -166 q 310 -178 310 -169 l 310 -193 q 307 -197 310 -197 l 303 -197 l 296 -186 l 294 -186 q 290 -189 290 -186 l 290 -197 q 307 -202 290 -201 q 313 -226 311 -226 l 313 -231 q 309 -251 310 -235 q 300 -255 304 -255 l 290 -255 q 280 -242 280 -255 l 280 -227 q 283 -224 281 -224 l 288 -224 l 294 -235 l 298 -235 l 300 -226 q 298 -220 298 -222 l 290 -220 q 279 -195 279 -220 q 277 -189 277 -195 q 286 -166 282 -166 m 327 -166 l 333 -166 q 336 -170 336 -167 l 336 -201 l 345 -201 l 345 -170 q 349 -166 346 -166 l 353 -166 q 356 -170 356 -167 l 356 -197 q 359 -212 356 -198 l 356 -224 l 356 -251 q 353 -255 356 -255 l 349 -255 q 345 -251 345 -255 l 345 -220 l 336 -220 l 336 -251 q 333 -255 336 -255 l 327 -255 q 324 -251 324 -255 l 324 -217 l 321 -212 l 321 -209 q 324 -203 324 -205 l 324 -170 q 327 -166 325 -166 m 433 -166 l 452 -166 q 457 -178 457 -169 l 457 -203 l 460 -209 l 460 -213 l 457 -218 l 457 -240 q 450 -255 457 -250 l 437 -255 q 427 -242 427 -255 l 427 -224 q 422 -212 427 -218 q 427 -199 427 -205 l 427 -178 q 433 -166 427 -169 m 474 -166 l 480 -166 q 494 -208 484 -166 l 496 -208 l 496 -170 q 498 -166 496 -166 l 503 -166 q 506 -170 506 -167 l 506 -201 q 509 -215 506 -202 q 506 -218 506 -216 l 506 -251 q 503 -255 506 -255 l 497 -255 q 483 -212 493 -255 l 481 -212 l 481 -251 q 479 -255 481 -255 l 474 -255 q 471 -251 471 -255 l 471 -218 l 468 -213 l 468 -209 q 471 -203 471 -205 l 471 -170 q 474 -166 472 -166 m 518 -166 l 545 -166 q 549 -170 549 -167 l 549 -182 q 545 -186 549 -186 l 538 -186 l 538 -203 l 541 -209 l 541 -213 l 538 -218 l 538 -251 q 534 -255 538 -255 l 530 -255 q 528 -251 528 -255 l 528 -224 q 523 -212 528 -218 l 528 -202 l 528 -186 l 518 -186 q 515 -182 515 -186 l 515 -170 q 518 -166 515 -166 m 583 -166 q 589 -181 587 -166 l 589 -193 q 587 -197 589 -197 l 580 -197 q 578 -186 578 -197 l 570 -186 l 570 -197 q 585 -202 570 -201 q 593 -230 587 -205 q 582 -255 587 -255 l 565 -255 q 557 -226 558 -255 l 560 -224 l 567 -224 l 573 -235 l 574 -235 q 578 -231 578 -235 l 578 -220 l 565 -220 q 556 -193 560 -220 q 554 -191 554 -193 q 564 -166 560 -172 l 583 -166 m 625 -166 l 629 -166 q 632 -170 632 -167 l 632 -203 q 635 -212 635 -208 q 632 -222 632 -217 l 632 -235 l 646 -235 q 649 -238 649 -235 l 649 -251 q 646 -255 649 -255 l 625 -255 q 621 -251 621 -255 l 621 -224 q 618 -209 621 -222 l 618 -208 l 621 -202 l 621 -170 q 625 -166 622 -166 m 663 -166 l 688 -166 q 691 -170 691 -167 l 691 -199 l 694 -212 q 691 -222 691 -217 l 691 -251 q 688 -255 691 -255 l 684 -255 q 680 -251 680 -255 l 680 -220 l 670 -220 l 670 -251 q 667 -255 670 -255 l 663 -255 q 659 -251 659 -255 l 659 -222 l 656 -209 q 659 -199 659 -203 l 659 -170 q 663 -166 660 -166 m 708 -166 l 730 -166 q 736 -181 734 -166 l 736 -195 q 735 -209 736 -202 q 736 -224 736 -216 l 736 -240 q 729 -255 736 -250 l 708 -255 q 705 -251 705 -255 l 705 -217 l 702 -212 l 702 -209 q 705 -203 705 -205 l 705 -170 q 708 -166 705 -166 m 132 -186 l 132 -208 l 137 -208 q 140 -203 140 -208 l 140 -189 q 137 -186 140 -186 l 132 -186 m 172 -186 l 172 -201 l 182 -201 l 182 -186 l 172 -186 m 437 -189 l 437 -231 q 441 -235 438 -235 l 446 -235 l 447 -226 l 447 -195 l 446 -186 l 441 -186 q 437 -189 437 -186 m 670 -186 l 670 -197 q 673 -201 671 -201 l 678 -201 q 680 -197 680 -201 l 680 -186 l 670 -186 m 717 -186 l 717 -199 l 725 -199 l 725 -186 l 717 -186 m 791 -182 l 791 -183 l 795 -189 l 795 -235 l 791 -240 l 791 -243 l 808 -243 l 808 -240 l 805 -235 l 805 -205 l 806 -205 q 823 -225 808 -205 l 825 -225 q 838 -205 825 -221 l 840 -205 l 840 -235 l 837 -240 l 837 -243 l 861 -243 q 864 -240 864 -243 q 859 -235 862 -240 l 859 -189 q 864 -186 859 -186 l 864 -182 l 842 -182 q 829 -200 842 -186 l 827 -200 l 811 -182 l 791 -182 m 873 -182 l 873 -186 q 878 -189 878 -186 l 878 -235 q 873 -237 878 -237 l 873 -243 l 892 -243 l 892 -237 q 887 -235 887 -237 l 887 -205 l 888 -205 l 907 -225 q 922 -205 918 -208 l 924 -205 l 924 -235 q 919 -237 924 -237 l 919 -243 l 947 -243 l 947 -240 l 943 -235 l 943 -189 l 947 -183 l 947 -182 l 926 -182 l 911 -200 l 909 -200 l 895 -182 l 873 -182 m 955 -182 l 955 -186 q 976 -218 962 -186 q 955 -237 960 -237 l 955 -243 l 975 -243 l 974 -235 l 983 -225 q 989 -236 989 -235 q 987 -243 987 -239 l 1015 -243 q 1018 -240 1018 -243 q 996 -211 1009 -235 l 996 -207 q 1018 -186 1011 -186 l 1018 -182 l 998 -182 l 998 -183 q 1000 -189 1000 -187 l 990 -200 q 984 -186 984 -193 l 985 -186 l 985 -182 l 955 -182 m 1022 -182 l 1022 -186 q 1044 -218 1029 -186 q 1022 -237 1027 -237 l 1022 -243 l 1042 -243 l 1040 -235 l 1049 -225 q 1055 -236 1055 -235 q 1054 -243 1054 -239 l 1081 -243 q 1084 -240 1084 -243 q 1063 -211 1076 -235 l 1063 -207 q 1084 -186 1078 -186 l 1084 -182 l 1065 -182 l 1065 -183 q 1066 -189 1066 -187 l 1057 -200 q 1050 -186 1050 -193 l 1052 -186 l 1052 -182 l 1022 -182 m 1092 -182 l 1092 -186 q 1097 -189 1097 -186 l 1097 -235 l 1092 -241 l 1095 -243 l 1120 -243 l 1120 -240 l 1116 -235 l 1116 -189 l 1120 -183 l 1120 -182 l 1092 -182 m 1130 -182 l 1130 -186 q 1135 -189 1135 -186 l 1135 -235 q 1130 -237 1135 -237 l 1130 -243 l 1157 -243 l 1157 -240 l 1154 -235 l 1154 -189 q 1157 -183 1157 -184 l 1157 -182 l 1130 -182 m 717 -220 l 717 -235 l 722 -235 q 725 -231 725 -235 l 725 -220 l 717 -220 m 1170 -182 l 1170 -186 q 1174 -189 1174 -186 l 1174 -235 q 1170 -237 1174 -237 l 1170 -243 l 1197 -243 l 1197 -240 l 1194 -235 l 1194 -189 q 1197 -183 1197 -184 l 1197 -182 l 1170 -182 z "},"ª":{"ha":439,"x_min":0,"x_max":0,"o":""},"«":{"ha":640,"x_min":0,"x_max":0,"o":""},"¬":{"ha":688,"x_min":0,"x_max":0,"o":""}}}
